<svg xmlns="http://www.w3.org/2000/svg" width="706.672" height="435.353" viewBox="0 0 706.672 435.353"><defs><style>.a{fill:#f2f5fa;}.b,.l,.o{fill:none;}.b{stroke:#f2f5ff;stroke-width:8.032px;}.b,.o{stroke-miterlimit:10;}.c{fill:#e7e7ff;}.d{fill:#00dfff;}.e,.g,.j,.k,.n,.p,.t,.u{fill:#000078;}.e{opacity:0.15;}.f{fill:#2b45c6;}.g{opacity:0.3;}.h{fill:#375adc;}.i{fill:#1a2ead;}.j{opacity:0.1;}.k{opacity:0.05;}.m,.q,.r,.s{fill:#fff;}.m{opacity:0.7;}.n,.r{opacity:0.5;}.o{stroke:#00dfff;stroke-linecap:round;stroke-width:2.485px;}.p{opacity:0.2;}.q{opacity:0.8;}.s{opacity:0.6;}.t{opacity:0.4;}.u{opacity:0.25;}</style></defs><g transform="translate(-607 -124)"><path class="a" d="M1074.459,121.477a69.13,69.13,0,0,0-27.57,6.1c-16.907,8-26.4,26.409-44.829,31.788l4.008-.28c-7.524,2.411-16.666,3.416-27.006,3.427-24.945.026-56.884-5.732-90.065-11.489s-67.6-11.512-97.485-11.481c-53.283.054-92.187,18.5-84.091,88.092C710.4,252,726.132,286.4,712.9,309.168c-9.588,17.048-27.184,27.05-44.183,33.693-44.4,18.106-60.91,52.018-49.61,100.384,16.507,71.168,72.855,94.206,134.593,94.142,51.318-.054,79.779,24.107,128.23,18.636,46.106-5.47,82.011-18.6,120.13-18.636,29.123-.03,60.18-5.732,87.618,4.778,43.473,17.308,78.634,3.318,124.318,3.271a99.839,99.839,0,0,0,20.505-2.216c51.63-10.418,59.371-59.18,44.245-104.549-8.6-28.071-14.76-39.929,2.2-67.049,14.291-26.934,39.473-47.357,41.379-78.894.389-34.157-15.343-68.559-45.73-81.464-24.863-10.558-47.384-6.261-71.974-12.743-46.778-13.094-79.317-77.1-130.166-77.044" transform="translate(-8.664 2.523)"/><g transform="translate(1944.126 -17.461)"><path class="b" d="M-1108.426,438.376"/><path class="c" d="M-1011.218,507.336a2.246,2.246,0,0,1-2.177-1.8l-.505-2.658a29.479,29.479,0,0,1-3.373-.828c-.006,0-.071,0-.085,0l-4.687,2.172a2.619,2.619,0,0,1-1.094.229,2.7,2.7,0,0,1-1.331-.338l-4.671-2.7a1.9,1.9,0,0,1-.973-1.541,1.9,1.9,0,0,1,.814-1.628l2.826-2.032a10.584,10.584,0,0,1-.7-1.064l-5.951-.377a2.136,2.136,0,0,1-2-2.128v-3.473a2.136,2.136,0,0,1,2-2.128l5.95-.378a10.511,10.511,0,0,1,.7-1.063l-2.826-2.033a1.9,1.9,0,0,1-.814-1.63,1.9,1.9,0,0,1,.973-1.539l4.671-2.7a2.686,2.686,0,0,1,1.331-.339,2.619,2.619,0,0,1,1.094.229l4.689,2.173a.433.433,0,0,0,.06,0c.014,0,0,.006-.019.011a29.423,29.423,0,0,1,3.415-.84l.505-2.658a2.248,2.248,0,0,1,2.177-1.8h6.869a2.248,2.248,0,0,1,2.177,1.8l.5,2.659a29.508,29.508,0,0,1,3.375.827c.005,0,.07,0,.084,0l4.687-2.171a2.6,2.6,0,0,1,1.094-.23,2.7,2.7,0,0,1,1.331.338l4.672,2.7a1.9,1.9,0,0,1,.972,1.54,1.9,1.9,0,0,1-.814,1.629l-2.825,2.032a10.8,10.8,0,0,1,.7,1.064l5.951.377a2.139,2.139,0,0,1,2,2.126v3.475a2.136,2.136,0,0,1-2,2.129l-5.951.377a10.5,10.5,0,0,1-.7,1.064l2.825,2.033a1.9,1.9,0,0,1,.814,1.628,1.9,1.9,0,0,1-.972,1.54l-4.672,2.7a2.7,2.7,0,0,1-1.331.338h0a2.622,2.622,0,0,1-1.094-.229l-4.687-2.172a.484.484,0,0,0-.062,0c-.016,0,0-.006.017-.011a29.311,29.311,0,0,1-3.414.84l-.5,2.658a2.245,2.245,0,0,1-2.176,1.8Zm3.435-21.358a14.53,14.53,0,0,0-7.136,1.685c-1.6.922-2.513,2.106-2.513,3.247s.916,2.326,2.513,3.247a14.515,14.515,0,0,0,7.135,1.685,14.519,14.519,0,0,0,7.136-1.685c1.6-.921,2.513-2.105,2.513-3.247s-.916-2.325-2.513-3.247A14.529,14.529,0,0,0-1007.783,485.978Z"/><path class="c" d="M-957.81,476.621a2.512,2.512,0,0,1-1.759-.77l-1.864-1.96c-.46.024-.922.036-1.377.036s-.909-.012-1.358-.035l-1.982,2.084a2.209,2.209,0,0,1-1.609.636,2.5,2.5,0,0,1-.594-.07l-4.63-1.1a2,2,0,0,1-1.366-1.078,1.741,1.741,0,0,1,.024-1.508l.735-1.456c-.393-.219-.772-.453-1.128-.7l-4.371.735a1.932,1.932,0,0,1-.332.028,2.372,2.372,0,0,1-1.87-.977l-1.748-2.433a2.034,2.034,0,0,1-.382-1.126,1.791,1.791,0,0,1,1.259-1.733l3.36-1.064c0-.051,0-.1,0-.154l-3.254-1.034a1.9,1.9,0,0,1-1.388-1.656l0-.058v-.057a1.723,1.723,0,0,1,.337-1.017l1.909-2.661a2.18,2.18,0,0,1,1.786-.847,2.342,2.342,0,0,1,.393.033l4.3.724c.309-.212.647-.423,1-.623l.133-.074-.68-1.348a1.924,1.924,0,0,1-.211-.768l-.017-.226.028-.123a1.815,1.815,0,0,1,1.376-1.549l4.843-1.155a1.973,1.973,0,0,1,.467-.055,2.5,2.5,0,0,1,1.757.772l1.863,1.958c.469-.025.943-.038,1.408-.038.444,0,.89.012,1.327.035l1.978-2.081a2.209,2.209,0,0,1,1.613-.638,2.432,2.432,0,0,1,.588.07l4.633,1.107a1.893,1.893,0,0,1,1.523,1.791,1.716,1.716,0,0,1-.165.759l-.752,1.49c.051.029.1.057.152.086.348.2.673.4.973.61l4.377-.734a1.935,1.935,0,0,1,.328-.027,2.384,2.384,0,0,1,1.864.965l1.756,2.447a1.942,1.942,0,0,1,.378,1.093l.015.194-.035.139a1.767,1.767,0,0,1-1.213,1.424l-3.384,1.072c0,.051,0,.1,0,.153l3.255,1.03a1.886,1.886,0,0,1,1.059,2.783c-.56.863-1.207,1.686-1.808,2.524l-.1.142a2.188,2.188,0,0,1-1.785.848,2.494,2.494,0,0,1-.406-.034l-4.292-.721q-.539.366-1.133.7l.682,1.351a1.9,1.9,0,0,1,.039,1.67,1.813,1.813,0,0,1-1.246,1l-4.811,1.153A2.091,2.091,0,0,1-957.81,476.621Zm-11.678-11.7a3.539,3.539,0,0,0,.907.925,5.013,5.013,0,0,0,.559.364,8.769,8.769,0,0,0,2.326.888,12.487,12.487,0,0,0,2.891.332,10.89,10.89,0,0,0,5.211-1.212,4.848,4.848,0,0,0,.562-.365,3.668,3.668,0,0,0,.835-.815,1.5,1.5,0,0,0,.143-1.759s-.065-.11-.085-.14c-.036-.053-.071-.107-.112-.159s-.081-.1-.119-.145l-.039-.037-.032-.04-.038-.039a7.132,7.132,0,0,0-3.43-1.725,12.42,12.42,0,0,0-2.89-.334c-2.879,0-5.6.985-6.609,2.394a1.469,1.469,0,0,0-.256,1.519l.052.126.122.211Z"/><path class="c" d="M-894.838,497.252l39.514-22.812a1.293,1.293,0,0,0,0-2.449l-9.682-5.59a4.686,4.686,0,0,0-4.24,0l-39.514,22.814a1.292,1.292,0,0,0,0,2.448l4.842,2.794-49.589,28.631c-1.171.676-.681.907-.131,1.224s.949.6,2.12-.076l49.588-28.63,2.852,1.646A4.686,4.686,0,0,0-894.838,497.252Z"/><path class="c" d="M-909.737,453.472a17.779,17.779,0,0,1-8.852-2.151c-.276-.162-.535-.328-.789-.507l-1.461-1.027,12.432-1.821,1.126-2.352-3.355-1.966-11.853,1.73.392-1.111a7.662,7.662,0,0,1,3.64-3.912,17.887,17.887,0,0,1,8.7-2.07,20.777,20.777,0,0,1,3.982.379l40.54-23.4a4.828,4.828,0,0,1-.335-3.262,7.279,7.279,0,0,1,3.765-4.351,17.918,17.918,0,0,1,8.713-2.072,17.776,17.776,0,0,1,8.852,2.151c.281.165.539.33.789.507l1.461,1.027-12.432,1.821-1.126,2.352,3.354,1.967,11.854-1.732-.392,1.111a7.664,7.664,0,0,1-3.64,3.913,17.9,17.9,0,0,1-8.7,2.069,20.7,20.7,0,0,1-3.981-.379l-40.54,23.406a4.822,4.822,0,0,1,.334,3.262,7.281,7.281,0,0,1-3.764,4.352A17.926,17.926,0,0,1-909.737,453.472Z"/><path class="c" d="M-1021.208,382.574l68.343,39.458,63.751-36.918-68.346-39.456Z"/><path class="c" d="M-1047.151,478.173l92.15-53.2-80.631-46.553-92.15,53.2Z"/><path class="d" d="M-952.872,419.1l-64.7-37.356v-2.83l59.469-34.334,64.7,37.354v2.83Z"/><path class="d" d="M-1017.574,378.915l64.7,37.356,59.472-34.336-64.7-37.354Z"/><path class="e" d="M-1017.574,378.915l64.7,37.356,59.472-34.336-64.7-37.354Z"/><path class="f" d="M-936.836,394.507a4.791,4.791,0,0,0,4.333,0,1.32,1.32,0,0,0,0-2.5,4.788,4.788,0,0,0-4.333,0A1.32,1.32,0,0,0-936.836,394.507Z"/><path class="g" d="M-952.872,416.271v2.83l-64.7-37.356v-2.83Z"/><path class="d" d="M-1037.426,157.577l72.091,41.621a5.33,5.33,0,0,1,2.412,4.177V422.326a5.329,5.329,0,0,1-2.412,4.176l-77.977,45.02a5.33,5.33,0,0,1-4.823,0l-72.089-41.621a5.329,5.329,0,0,1-2.411-4.177V206.773a5.329,5.329,0,0,1,2.411-4.176l77.975-45.02A5.33,5.33,0,0,1-1037.426,157.577Z"/><path class="d" d="M-1122.633,206.769V425.723a5.345,5.345,0,0,0,2.406,4.177l72.1,41.622a4.836,4.836,0,0,0,2.406.58V247.579a5,5,0,0,1-2.406-.579l-72.1-41.623-.657-.546-.857-.713A5,5,0,0,0-1122.633,206.769Z"/><path class="g" d="M-1122.633,206.769V425.723a5.345,5.345,0,0,0,2.406,4.177l72.1,41.622a4.836,4.836,0,0,0,2.406.58V247.579a5,5,0,0,1-2.406-.579l-72.1-41.623-.657-.546-.857-.713A5,5,0,0,0-1122.633,206.769Z"/><path class="d" d="M-1120.224,202.6l77.976-45.02a5.33,5.33,0,0,1,4.823,0l72.09,41.621c1.332.769,1.332,2.016,0,2.785L-1043.312,247a5.336,5.336,0,0,1-4.823,0l-72.089-41.622C-1121.556,204.612-1121.556,203.366-1120.224,202.6Z"/><path class="e" d="M-1120.224,202.6l77.976-45.02a5.33,5.33,0,0,1,4.823,0l72.09,41.621c1.332.769,1.332,2.016,0,2.785L-1043.312,247a5.336,5.336,0,0,1-4.823,0l-72.089-41.622C-1121.556,204.612-1121.556,203.366-1120.224,202.6Z"/><path class="h" d="M-971.588,351.1l-64.7,37.356v68.672l64.7-37.359Z"/><path class="i" d="M-1003.382,400.156a.663.663,0,0,0-.668.068l-26.324,15.14a1.935,1.935,0,0,0-.666.7l-1.769-1.021a1.963,1.963,0,0,1,.668-.7l25.766-14.821a2.1,2.1,0,0,1,1.889,0Z"/><path class="f" d="M-1031.318,417l0,29.489c0,.6.423.847.945.545l26.318-15.139a2.088,2.088,0,0,0,.945-1.636V400.768c0-.6-.423-.846-.945-.545l-26.323,15.142A2.089,2.089,0,0,0-1031.318,417Z"/><path class="i" d="M-1031.064,447.086l-1.077-.621a2.089,2.089,0,0,1-.944-1.634V415.975a1.929,1.929,0,0,1,.276-.93l1.769,1.021a1.917,1.917,0,0,0-.278.935l0,29.489A.689.689,0,0,0-1031.064,447.086Z"/><path class="d" d="M-1029.21,444.384a.439.439,0,0,1-.225-.06.548.548,0,0,1-.244-.506l-.005-26.194a1.454,1.454,0,0,1,.667-1.156l23.472-13.5a.55.55,0,0,1,.561-.041.551.551,0,0,1,.244.506v26.2a1.454,1.454,0,0,1-.667,1.156l-23.466,13.491A.678.678,0,0,1-1029.21,444.384Zm24-41.238a.408.408,0,0,0-.2.063l-23.471,13.5a1.189,1.189,0,0,0-.529.917l0,26.194a.3.3,0,0,0,.107.268.3.3,0,0,0,.285-.042h0l23.466-13.491a1.19,1.19,0,0,0,.529-.917v-26.2a.3.3,0,0,0-.106-.268A.177.177,0,0,0-1005.21,403.146Z"/><path class="d" d="M-1027.366,440.94a.259.259,0,0,1-.134-.036.313.313,0,0,1-.143-.283V418.394a.8.8,0,0,1,.321-.556l20.058-11.554a.31.31,0,0,1,.315-.018.311.311,0,0,1,.143.283l-.03,22.275a.689.689,0,0,1-.321.555l-20.026,11.508A.368.368,0,0,1-1027.366,440.94Zm.008-.272h0Zm20.268-34.163s-.016.005-.037.017l-20.059,11.555a.57.57,0,0,0-.182.317v22.227a.1.1,0,0,0,.007.045s.017-.006.038-.018l20.027-11.508a.425.425,0,0,0,.182-.317h0l.03-22.275A.092.092,0,0,0-1007.09,406.505Z"/><path class="d" d="M-1026.009,411.966a.267.267,0,0,1-.267-.266v-6.282a.268.268,0,0,1,.267-.267.267.267,0,0,1,.266.267V411.7A.267.267,0,0,1-1026.009,411.966Z"/><path class="d" d="M-1021.617,409.449a.268.268,0,0,1-.267-.267V402.9a.267.267,0,0,1,.267-.266.267.267,0,0,1,.266.266v6.282A.267.267,0,0,1-1021.617,409.449Z"/><path class="d" d="M-1017.226,406.932a.267.267,0,0,1-.266-.267v-6.281a.267.267,0,0,1,.266-.267.268.268,0,0,1,.267.267v6.281A.268.268,0,0,1-1017.226,406.932Z"/><path class="d" d="M-1012.834,404.415a.267.267,0,0,1-.266-.267v-6.281a.267.267,0,0,1,.266-.267.268.268,0,0,1,.267.267v6.281A.268.268,0,0,1-1012.834,404.415Z"/><path class="d" d="M-1008.442,401.9a.266.266,0,0,1-.266-.266V395.35a.267.267,0,0,1,.266-.267.268.268,0,0,1,.267.267v6.282A.267.267,0,0,1-1008.442,401.9Z"/><path class="i" d="M-1003.382,376.959a.662.662,0,0,0-.668.067l-26.324,15.14a1.944,1.944,0,0,0-.666.7l-1.769-1.02a1.947,1.947,0,0,1,.668-.7l25.766-14.821a2.089,2.089,0,0,1,1.889,0Z"/><path class="f" d="M-1031.318,393.8l0,14.869c0,.6.423.846.945.545l26.318-15.139a2.088,2.088,0,0,0,.945-1.636V377.571c0-.6-.423-.847-.945-.546l-26.323,15.142A2.089,2.089,0,0,0-1031.318,393.8Z"/><path class="i" d="M-1031.064,409.268l-1.077-.622a2.086,2.086,0,0,1-.944-1.634V392.778a1.923,1.923,0,0,1,.276-.93l1.769,1.02a1.92,1.92,0,0,0-.278.935l0,14.869A.689.689,0,0,0-1031.064,409.268Z"/><path class="d" d="M-1029.21,406.565a.448.448,0,0,1-.225-.059.549.549,0,0,1-.244-.506l-.005-11.574a1.454,1.454,0,0,1,.667-1.155l23.472-13.5a.55.55,0,0,1,.561-.042.552.552,0,0,1,.244.507v11.58a1.456,1.456,0,0,1-.667,1.156l-23.466,13.491A.687.687,0,0,1-1029.21,406.565Zm24-26.616a.417.417,0,0,0-.2.062l-23.471,13.5a1.185,1.185,0,0,0-.529.916l0,11.574a.3.3,0,0,0,.107.268.3.3,0,0,0,.285-.042h0l23.466-13.491a1.19,1.19,0,0,0,.529-.917v-11.58a.3.3,0,0,0-.106-.268A.176.176,0,0,0-1005.21,379.949Z"/><path class="d" d="M-1027.366,403.122a.259.259,0,0,1-.134-.036.314.314,0,0,1-.143-.283V395.2a.8.8,0,0,1,.321-.556l20.058-11.554a.312.312,0,0,1,.315-.018.312.312,0,0,1,.143.283l-.03,7.655a.689.689,0,0,1-.321.555l-20.026,11.508A.368.368,0,0,1-1027.366,403.122Zm.008-.272h0Zm20.268-19.543a.3.3,0,0,0-.037.018l-20.059,11.554a.577.577,0,0,0-.182.317V402.8a.1.1,0,0,0,.007.045s.017-.006.038-.018l20.027-11.508a.425.425,0,0,0,.182-.317h0l.03-7.655A.1.1,0,0,0-1007.09,383.307Z"/><path class="d" d="M-998.064,373.936a3.432,3.432,0,0,0-1.553,2.69c0,.991.7,1.392,1.553.9a3.434,3.434,0,0,0,1.554-2.691C-996.51,373.842-997.206,373.44-998.064,373.936Z"/><path class="d" d="M-998.064,400.366a3.432,3.432,0,0,0-1.553,2.69c0,.991.7,1.392,1.553.9a3.434,3.434,0,0,0,1.554-2.691C-996.51,400.272-997.206,399.87-998.064,400.366Z"/><path class="d" d="M-998.064,407.474a3.433,3.433,0,0,0-1.553,2.691c0,.99.7,1.392,1.553.9a3.435,3.435,0,0,0,1.554-2.691C-996.51,407.38-997.206,406.979-998.064,407.474Z"/><path class="d" d="M-998.064,414.583a3.432,3.432,0,0,0-1.553,2.69c0,.991.7,1.392,1.553.9a3.433,3.433,0,0,0,1.554-2.69C-996.51,414.489-997.206,414.087-998.064,414.583Z"/><path class="d" d="M-998.064,421.691a3.434,3.434,0,0,0-1.553,2.691c0,.991.7,1.392,1.553.9a3.435,3.435,0,0,0,1.554-2.691C-996.51,421.6-997.206,421.2-998.064,421.691Z"/><path class="d" d="M-998.064,380.356a3.434,3.434,0,0,0-1.553,2.691c0,.99.7,1.392,1.553.9a3.435,3.435,0,0,0,1.554-2.691C-996.51,380.262-997.206,379.861-998.064,380.356Z"/><path class="d" d="M-998.064,386.777a3.433,3.433,0,0,0-1.553,2.691c0,.99.7,1.392,1.553.9a3.433,3.433,0,0,0,1.554-2.69C-996.51,386.683-997.206,386.282-998.064,386.777Z"/><path class="i" d="M-981.07,377.287l-.148-1.444a.155.155,0,0,0-.2-.138,3.19,3.19,0,0,1-.712.072.363.363,0,0,0-.292.143l-.317.476,1.7.973A.127.127,0,0,1-981.07,377.287Zm1.229-10.107c.01.108.015.22.015.343a5.543,5.543,0,0,1-2.509,4.352,3.333,3.333,0,0,1-.307.159c.154,1.347,1.213,1.843,2.494,1.1a5.537,5.537,0,0,0,2.508-4.347C-977.64,367.3-978.6,366.637-979.841,367.18Zm5.442-1.275-1.715-.988-.251.512a.378.378,0,0,0,.021.323,2.942,2.942,0,0,1,.3.655.158.158,0,0,0,.22.1l1.321-.588a.147.147,0,0,1,.112-.011Zm-3.348-3.773-.958-.553v-.005a.135.135,0,0,0-.066-.005.224.224,0,0,0-.062-.011h-.015a.186.186,0,0,0-.046.021c-.015.01-.026.025-.041.036s-.02.01-.031.025l-.783,1.178-.988-.574-.021-.01-.711-.415h-.006a.1.1,0,0,0-.046-.01.318.318,0,0,0-.071.021l-1.024.594-.461.266a.226.226,0,0,0-.062.046l-.046.061a.091.091,0,0,0-.02.036.213.213,0,0,0-.026.041l.005.005a.375.375,0,0,0-.03.087l-.149,1.654a.221.221,0,0,1-.015.056.127.127,0,0,1-.016.057.539.539,0,0,1-.122.2,8.54,8.54,0,0,0-.83.876.26.26,0,0,1-.123.077.325.325,0,0,1-.169.005l-.952-.333c-.021-.01-.046,0-.072,0l-.02-.01a.093.093,0,0,0-.036.01.039.039,0,0,1-.021.005c-.005,0-.01,0-.015.01s-.041.021-.056.031a.139.139,0,0,0-.046.051l-.451.779-.476.824-.169.292a.23.23,0,0,0-.026.143.259.259,0,0,0,.072.138l.768.661a.217.217,0,0,1,.056.082.215.215,0,0,1,.031.112.212.212,0,0,1-.01.1,8.855,8.855,0,0,0-.348,1.152.536.536,0,0,1-.087.184.531.531,0,0,1-.1.108l-1.357.952a.364.364,0,0,0-.092.113.353.353,0,0,0-.061.179v1.72a.13.13,0,0,0,.051.108l1.725,1-.629,1.265a.2.2,0,0,0,.077.256l2.094,1.208.092.056a.192.192,0,0,1-.077-.081.2.2,0,0,1,0-.18l.881-1.776a.2.2,0,0,0,.02-.077.364.364,0,0,0-.041-.246,3.061,3.061,0,0,1-.292-.655.158.158,0,0,0-.22-.1l-.671.3-.655.3a.108.108,0,0,1-.113,0,.124.124,0,0,1-.056-.112v-1.715a.36.36,0,0,1,.056-.18.3.3,0,0,1,.1-.112l1.357-.958a.421.421,0,0,0,.1-.107.481.481,0,0,0,.087-.18,9.589,9.589,0,0,1,.343-1.152.322.322,0,0,0,.015-.1.277.277,0,0,0-.087-.2l-.768-.66a.213.213,0,0,1-.071-.133.248.248,0,0,1,.025-.149l.313-.537.384-.671.394-.686a.233.233,0,0,1,.169-.1.168.168,0,0,1,.1.006l.953.332a.264.264,0,0,0,.169,0,.258.258,0,0,0,.122-.081,8.874,8.874,0,0,1,.83-.876.468.468,0,0,0,.118-.195.391.391,0,0,0,.036-.112l.148-1.654a.29.29,0,0,1,.026-.092.379.379,0,0,1,.153-.19l.282-.164.594-.343.609-.348a.142.142,0,0,1,.107-.015l.011.005a.113.113,0,0,1,.061.1l.077.757.067.686a.159.159,0,0,0,.2.139,2.913,2.913,0,0,1,.717-.072.319.319,0,0,0,.205-.067.234.234,0,0,0,.082-.077l1.1-1.653a.19.19,0,0,1,.256-.062Z"/><path class="j" d="M-981.044,364.139a.29.29,0,0,0-.026.092l-.148,1.654a.391.391,0,0,1-.036.112l-2.182-1.264h-.005c.005-.021.016-.036.021-.057a.221.221,0,0,0,.015-.056l.149-1.654a.375.375,0,0,1,.03-.087Z"/><path class="e" d="M-982.324,367.149a.264.264,0,0,1-.169,0l-.953-.332a.168.168,0,0,0-.1-.006l-2.156-1.254c.026,0,.051-.01.072,0l.952.333a.325.325,0,0,0,.169-.005Z"/><path class="e" d="M-983.907,369.95l-2.186-1.265-.01-.005a.685.685,0,0,0-.021-.107.217.217,0,0,0-.056-.082l-.768-.661a.259.259,0,0,1-.072-.138l2.187,1.265a.213.213,0,0,0,.071.133l.768.66A.277.277,0,0,1-983.907,369.95Z"/><path class="e" d="M-983.917,374.968a.2.2,0,0,1-.02.077l-.881,1.776a.2.2,0,0,0,0,.18l-.015.025-.006.005-2.088-1.213a.2.2,0,0,1-.077-.256l.629-1.265.461.266h.005a.108.108,0,0,0,.113,0l.655-.3Z"/><path class="e" d="M-981.07,377.287a.127.127,0,0,0,.031.082l-1.7-.973.317-.476a.363.363,0,0,1,.292-.143,3.19,3.19,0,0,0,.712-.072.155.155,0,0,1,.2.138Z"/><path class="j" d="M-976.523,362.838a.19.19,0,0,0-.256.062l-1.1,1.653a.234.234,0,0,1-.082.077l-.615-.353-.573-.333-.077-.757a.113.113,0,0,0-.061-.1l-.011-.005c-.03-.01-.45-.261-.45-.261l.783-1.178c.011-.015.021-.025.031-.025s.026-.026.041-.036a.186.186,0,0,1,.046-.021h.015a.186.186,0,0,1,.128.016l.958.558Z"/><path class="e" d="M-984.352,371.379a.421.421,0,0,1-.1.107l-1.357.958a.3.3,0,0,0-.1.112l-2.181-1.264a.364.364,0,0,1,.092-.113l1.357-.952a.531.531,0,0,0,.1-.108Z"/><path class="f" d="M-974.506,365.91l-1.321.6a.158.158,0,0,1-.22-.1,2.942,2.942,0,0,0-.3-.655.378.378,0,0,1-.021-.323l.881-1.777a.2.2,0,0,0-.077-.261l-.957-.553a.2.2,0,0,0-.261.062l-1.1,1.653a.352.352,0,0,1-.287.144,2.913,2.913,0,0,0-.717.072.159.159,0,0,1-.2-.139l-.144-1.443a.111.111,0,0,0-.179-.093l-1.485.855a.405.405,0,0,0-.179.282l-.148,1.654a.58.58,0,0,1-.154.307,8.874,8.874,0,0,0-.83.876.281.281,0,0,1-.291.081l-.953-.332a.235.235,0,0,0-.271.1l-1.091,1.894a.233.233,0,0,0,.046.282l.768.66a.288.288,0,0,1,.072.3,9.589,9.589,0,0,0-.343,1.152.545.545,0,0,1-.189.287l-1.357.958a.386.386,0,0,0-.154.292v1.715a.112.112,0,0,0,.169.112l1.326-.6a.158.158,0,0,1,.22.1,3.061,3.061,0,0,0,.292.655.358.358,0,0,1,.021.323l-.881,1.776a.2.2,0,0,0,.077.261l.957.553a.207.207,0,0,0,.267-.061l1.1-1.654a.363.363,0,0,1,.292-.143,3.19,3.19,0,0,0,.712-.072.155.155,0,0,1,.2.138l.148,1.444a.11.11,0,0,0,.179.092l1.485-.86a.408.408,0,0,0,.179-.276l.149-1.654a.5.5,0,0,1,.153-.307,9.59,9.59,0,0,0,.825-.876.282.282,0,0,1,.291-.082l.958.333a.231.231,0,0,0,.266-.1l1.091-1.89a.233.233,0,0,0-.046-.281l-.763-.661a.28.28,0,0,1-.077-.3,8.987,8.987,0,0,0,.343-1.152.573.573,0,0,1,.19-.286l1.361-.958a.4.4,0,0,0,.149-.292v-1.715A.112.112,0,0,0-974.506,365.91Zm-5.642,7.225c-1.388.8-2.514.153-2.514-1.449a5.558,5.558,0,0,1,2.514-4.352c1.387-.8,2.508-.149,2.508,1.454A5.537,5.537,0,0,1-980.148,373.135Z"/><path class="i" d="M-984.729,380.839c-.017-.011-.041-.023-.07-.041a.414.414,0,0,1-.047-.029c-.012,0-.018-.006-.03-.012-.1-.059-.218-.124-.347-.194-.365-.212-.783-.454-1.007-.589-.012,0-.018-.006-.029-.018-.036-.017-.065-.035-.089-.047l-.011-.012h-.012l-.012-.011a.021.021,0,0,1-.012-.006.2.2,0,0,0-.094-.018l-.936.094a.17.17,0,0,0-.053.012c-.012.006-.018.006-.029.012s-.024.017-.036.023-.023.018-.035.03a.088.088,0,0,0-.024.023.175.175,0,0,0-.023.042l-.507,1.359a.319.319,0,0,1-.082.107.5.5,0,0,1-.123.088c-.1.047-.2.1-.3.159l-.977-.565a.062.062,0,0,0-.047-.012.164.164,0,0,0-.106.053l-.724.771-.3.312a.23.23,0,0,0-.041.059l-.035.071a.25.25,0,0,0-.012.058.076.076,0,0,0,.006.036l.289.971a.244.244,0,0,1-.006.124.351.351,0,0,1-.048.106,7.156,7.156,0,0,0-.47.818.318.318,0,0,1-.106.112.336.336,0,0,1-.118.059l-.877.212a.208.208,0,0,0-.065.023.211.211,0,0,0-.059.042.123.123,0,0,0-.041.041.117.117,0,0,0-.036.059l-.323,1.083-.118.4a.1.1,0,0,0,.035.112.019.019,0,0,1,.012.006l.583.341c.029.018.059.03.082.047l.312.177.006.006c0,.135,0,.265.012.394a.27.27,0,0,1-.029.142.261.261,0,0,1-.053.094l-.9,1.083a.342.342,0,0,0-.053.118v.006a.187.187,0,0,0,0,.119l.422.923a.051.051,0,0,0,.023.029l.006.006,1.772,1.024c.041.024.071.042.094.053-.006-.005-.006-.017-.011-.023l-.042-.094-.206-.448-.176-.394a.2.2,0,0,1,0-.118.217.217,0,0,1,.053-.106l.894-1.083a.33.33,0,0,0,.059-.1.253.253,0,0,0,.03-.136,4.138,4.138,0,0,1,0-.771.133.133,0,0,0-.136-.135l-.8-.041a.206.206,0,0,1-.065-.018c-.006-.006-.012-.012-.018-.012a.114.114,0,0,1-.023-.106l.2-.665.012-.047.229-.777a.272.272,0,0,1,.03-.059.323.323,0,0,1,.165-.106l.883-.212a.246.246,0,0,0,.111-.053.272.272,0,0,0,.107-.112,8.225,8.225,0,0,1,.476-.818.3.3,0,0,0,.041-.112.224.224,0,0,0,.006-.124l-.282-.965a.217.217,0,0,1,.006-.106l.006-.006a.262.262,0,0,1,.064-.112l.7-.73.336-.353c.047-.053.106-.071.141-.047h.006a.043.043,0,0,1,.023.023l.477.73c.036.053.124.047.2-.006a3.745,3.745,0,0,1,.583-.335.518.518,0,0,0,.106-.071.337.337,0,0,0,.094-.123l.507-1.36a.19.19,0,0,1,.053-.071l.335-.088.754-.077a.127.127,0,0,1,.07.006C-984.558,380.945-984.629,380.9-984.729,380.839Zm-3.968,9.95a.147.147,0,0,0-.094-.165,1.573,1.573,0,0,1-.406-.236.169.169,0,0,0-.212.036l-.954.871a.186.186,0,0,1-.106.047c.271.153.636.365.936.542l.583.335a.079.079,0,0,1-.041-.088Zm4.186-9.82a.1.1,0,0,1,.041.094l-.294,1.342a.147.147,0,0,0,.094.165,1.557,1.557,0,0,1,.406.236.169.169,0,0,0,.212-.036l.954-.871a.133.133,0,0,1,.135-.041C-983.039,381.811-983.993,381.263-984.511,380.969Zm-1.242,9.867-.477-.73c-.035-.053-.124-.047-.2.006-.094.064-.188.123-.283.176l.983.571A.047.047,0,0,1-985.753,390.836Zm.759-6.07a.953.953,0,0,0-.736-.583h-.035a.072.072,0,0,0-.035-.006h-.041a1.514,1.514,0,0,0-.666.136,1.825,1.825,0,0,1,.012.259,4.141,4.141,0,0,1-1.878,3.25c-.076.041-.147.082-.218.117a1.459,1.459,0,0,0,.13.489.923.923,0,0,0,.877.589h.088c.03,0,.065-.006.094-.006l.083-.018c.018,0,.029-.006.041-.006a.169.169,0,0,1,.053-.012,2.659,2.659,0,0,0,1.213-.788A3.574,3.574,0,0,0-984.994,384.766Zm1.472.006c0,.124-.006.247-.018.371a.134.134,0,0,0,.136.135l.8.042a.108.108,0,0,1,.058.017C-982.6,385.3-983.069,385.031-983.522,384.772Z"/><path class="e" d="M-985.753,390.836a.047.047,0,0,0,.023.023l-.983-.571c.1-.053.189-.112.283-.176.076-.053.165-.059.2-.006Z"/><path class="j" d="M-988.991,392.131a.079.079,0,0,0,.041.088l-.583-.335c-.3-.177-.665-.389-.936-.542a.186.186,0,0,0,.106-.047l.954-.871a.169.169,0,0,1,.212-.036,1.573,1.573,0,0,0,.406.236.147.147,0,0,1,.094.165Z"/><path class="j" d="M-989.947,388.957a.31.31,0,0,1-.064.1l-.9,1.088a.331.331,0,0,0-.054.106l-1.877-1.077a.537.537,0,0,1,.054-.128l.9-1.077a.751.751,0,0,0,.053-.1Z"/><path class="k" d="M-989.926,388.05a4.688,4.688,0,0,0,0,.768.223.223,0,0,1-.021.139l-1.888-1.088a.22.22,0,0,0,.021-.138c-.01-.129-.01-.267-.01-.395l.885.512c.01,0,.01,0,.021.01s.032.022.064.022l.8.032A.131.131,0,0,1-989.926,388.05Z"/><path class="j" d="M-989.329,385.821a.382.382,0,0,1-.117.054l-.885.213a.241.241,0,0,0-.16.107l-1.888-1.088a.086.086,0,0,1,.043-.043.127.127,0,0,1,.064-.042.108.108,0,0,1,.064-.022l.874-.213a.25.25,0,0,0,.117-.064Z"/><path class="j" d="M-988.7,384.659a.239.239,0,0,1-.01.117l-1.877-1.087a.277.277,0,0,0,0-.128l-.288-.971a.038.038,0,0,1-.011-.032c0-.021.011-.032.021-.053l1.888,1.077a.392.392,0,0,0-.011.107Z"/><path class="j" d="M-985.692,381.118a.342.342,0,0,0-.054.075l-.5,1.354a.318.318,0,0,1-.1.128l-1.887-1.087c0-.011.021-.022.021-.022a.493.493,0,0,0,.075-.106l.511-1.366c0-.01.011-.021.022-.042.01,0,.01-.011.021-.022Z"/><path class="l" d="M-985.688,381.122a.249.249,0,0,1,.153-.071l.182-.017"/><path class="f" d="M-982.545,385.337a.108.108,0,0,0-.058-.017l-.8-.042a.134.134,0,0,1-.136-.135c.012-.124.018-.247.018-.371s-.006-.271-.018-.4a.364.364,0,0,1,.089-.236l.895-1.083a.256.256,0,0,0,.053-.224l-.424-.936c-.006-.017-.018-.023-.036-.035a.133.133,0,0,0-.135.041l-.954.871a.169.169,0,0,1-.212.036,1.557,1.557,0,0,0-.406-.236.147.147,0,0,1-.094-.165l.294-1.342a.1.1,0,0,0-.041-.094.138.138,0,0,0-.088-.012l-.754.077-.182.017a.249.249,0,0,0-.153.071.19.19,0,0,0-.053.071l-.507,1.36a.337.337,0,0,1-.094.123.518.518,0,0,1-.106.071,3.745,3.745,0,0,0-.583.335c-.076.053-.164.059-.2.006l-.477-.73a.039.039,0,0,0-.029-.023c-.035-.024-.094-.006-.141.047l-.336.353-.7.73a.325.325,0,0,0-.07.118.217.217,0,0,0-.006.106l.282.965a.224.224,0,0,1-.006.124.3.3,0,0,1-.041.112,8.225,8.225,0,0,0-.476.818.272.272,0,0,1-.107.112.246.246,0,0,1-.111.053l-.883.212a.323.323,0,0,0-.165.106.272.272,0,0,0-.03.059l-.229.777-.012.047-.2.665a.114.114,0,0,0,.023.106c.006,0,.012.006.018.012a.206.206,0,0,0,.065.018l.8.041a.133.133,0,0,1,.136.135,4.138,4.138,0,0,0,0,.771.253.253,0,0,1-.03.136.33.33,0,0,1-.059.1l-.894,1.083a.253.253,0,0,0-.053.224l.176.394.024.053.058.126.071.155.062.136c.01.023.02.047.032.07l.012.025a.073.073,0,0,0,.053.018.186.186,0,0,0,.106-.047l.954-.871a.169.169,0,0,1,.212-.036,1.573,1.573,0,0,0,.406.236.147.147,0,0,1,.094.165l-.294,1.342a.091.091,0,0,0,.041.094.139.139,0,0,0,.088.012l.937-.088a.277.277,0,0,0,.206-.148l.506-1.354a.439.439,0,0,1,.2-.2q.15-.07.3-.159c.1-.053.189-.112.283-.176.076-.053.165-.059.2-.006l.477.73a.047.047,0,0,0,.023.023.126.126,0,0,0,.148-.047l1.03-1.083a.274.274,0,0,0,.076-.224l-.288-.965a.363.363,0,0,1,.053-.236,7.156,7.156,0,0,0,.471-.818.359.359,0,0,1,.224-.165l.877-.212a.277.277,0,0,0,.2-.165l.442-1.489A.1.1,0,0,0-982.545,385.337Zm-4.68,3.638a.169.169,0,0,0-.053.012c-.012,0-.023.006-.041.006l-.083.018c-.029,0-.064.006-.094.006h-.088a.923.923,0,0,1-.877-.589,1.459,1.459,0,0,1-.13-.489,2.227,2.227,0,0,1-.017-.27,4.2,4.2,0,0,1,1.159-2.662,3.228,3.228,0,0,1,.707-.571c.082-.047.159-.088.235-.123a1.514,1.514,0,0,1,.666-.136h.041a.072.072,0,0,1,.035.006h.035a.953.953,0,0,1,.736.583,3.574,3.574,0,0,1-1.018,3.421A2.659,2.659,0,0,1-987.225,388.975Z"/><path class="d" d="M-985.671,406.25a7.119,7.119,0,0,0-3.989,3.293,6.549,6.549,0,0,0,.214,6.218,7.144,7.144,0,0,0-1.122,3.842,8.5,8.5,0,0,0,5.617,7.59c.1.041.21.071.314.109l.964-.557a9.09,9.09,0,0,1-5.155-4.735,6.449,6.449,0,0,1,.159-5.051,7.811,7.811,0,0,0,1.855,1.728c1.918,1.256,5.653,2.2,7.4.187a3.123,3.123,0,0,0-.146-4.079,6.108,6.108,0,0,0-4.421-2.06,6.2,6.2,0,0,0-4.588,1.922,6.054,6.054,0,0,1-.453-2.836,5.434,5.434,0,0,1,3.884-4.551c1.583,2.464,5.079,4.713,7.778,2.6,2.676-2.09-1.609-4-3.411-4.174a12.077,12.077,0,0,0-3.736.211,4.03,4.03,0,0,1-.243-2.234,4.855,4.855,0,0,1,1.84-2.859,6.174,6.174,0,0,1,7.267-.447.4.4,0,1,0,.506-.61C-979.4,395.84-987.938,400.7-985.671,406.25Zm-.678,8.172a4.629,4.629,0,0,1,4.066-.187c1.131.5,2.422,1.549,2.243,2.928-.313,2.421-3.556,1.743-5.082,1.1a6.453,6.453,0,0,1-2.847-2.467A5.235,5.235,0,0,1-986.349,414.422Zm3.268-7.61a8.1,8.1,0,0,1,3.392.242c.515.174,1.994.662,1.913,1.414-.051.462-.71.814-1.09.972a2.763,2.763,0,0,1-1.769.084,6.026,6.026,0,0,1-3.06-2.212c-.092-.118-.178-.239-.261-.362A8.778,8.778,0,0,1-983.081,406.812Z"/><path class="m" d="M-985.671,406.25a7.119,7.119,0,0,0-3.989,3.293,6.549,6.549,0,0,0,.214,6.218,7.144,7.144,0,0,0-1.122,3.842,8.5,8.5,0,0,0,5.617,7.59c.1.041.21.071.314.109l.964-.557a9.09,9.09,0,0,1-5.155-4.735,6.449,6.449,0,0,1,.159-5.051,7.811,7.811,0,0,0,1.855,1.728c1.918,1.256,5.653,2.2,7.4.187a3.123,3.123,0,0,0-.146-4.079,6.108,6.108,0,0,0-4.421-2.06,6.2,6.2,0,0,0-4.588,1.922,6.054,6.054,0,0,1-.453-2.836,5.434,5.434,0,0,1,3.884-4.551c1.583,2.464,5.079,4.713,7.778,2.6,2.676-2.09-1.609-4-3.411-4.174a12.077,12.077,0,0,0-3.736.211,4.03,4.03,0,0,1-.243-2.234,4.855,4.855,0,0,1,1.84-2.859,6.174,6.174,0,0,1,7.267-.447.4.4,0,1,0,.506-.61C-979.4,395.84-987.938,400.7-985.671,406.25Zm-.678,8.172a4.629,4.629,0,0,1,4.066-.187c1.131.5,2.422,1.549,2.243,2.928-.313,2.421-3.556,1.743-5.082,1.1a6.453,6.453,0,0,1-2.847-2.467A5.235,5.235,0,0,1-986.349,414.422Zm3.268-7.61a8.1,8.1,0,0,1,3.392.242c.515.174,1.994.662,1.913,1.414-.051.462-.71.814-1.09.972a2.763,2.763,0,0,1-1.769.084,6.026,6.026,0,0,1-3.06-2.212c-.092-.118-.178-.239-.261-.362A8.778,8.778,0,0,1-983.081,406.812Z"/><path class="d" d="M-989.048,418.034a6.317,6.317,0,0,1,.379-1.075,4.409,4.409,0,0,1-.777-1.2,7.082,7.082,0,0,0-.6,1.165A9.271,9.271,0,0,0-989.048,418.034Z"/><path class="d" d="M-986.484,407.919a7.282,7.282,0,0,1,1.348-.649,6.45,6.45,0,0,1-.535-1.02,8.13,8.13,0,0,0-1.491.7A7.264,7.264,0,0,0-986.484,407.919Z"/><path class="d" d="M-984.637,427.3l.964-.557a11.3,11.3,0,0,1-1.191-.571l-1.023.591a9.509,9.509,0,0,0,.936.428C-984.848,427.234-984.741,427.264-984.637,427.3Z"/><path class="d" d="M-959.1,409.522a7.108,7.108,0,0,0-4.98-1.418,6.57,6.57,0,0,0-5,3.7,7.071,7.071,0,0,0-2.506.554,7.587,7.587,0,0,0-1.291.7,8.332,8.332,0,0,0-3.231,7.924c.043.341.1.672.17,1,.022.085.043.159.064.245l.843-.48c-.011-.1-.021-.181-.032-.267a8.657,8.657,0,0,1,1.2-5.631,6.2,6.2,0,0,1,2.282-2.047,6.4,6.4,0,0,1,1.962-.683,7.8,7.8,0,0,0-.363,2.506c.054,2.293,1.387,5.909,4.042,6.207a3.135,3.135,0,0,0,3.275-2.442,6.084,6.084,0,0,0-.811-4.81,6.232,6.232,0,0,0-4.18-2.687,6.126,6.126,0,0,1,2.068-1.984,5.446,5.446,0,0,1,5.951.619c-1.13,2.708-.992,6.857,2.272,7.881,3.242,1.024,2.378-3.594,1.5-5.173a12.18,12.18,0,0,0-2.293-2.954,4.062,4.062,0,0,1,1.7-1.471,4.854,4.854,0,0,1,3.4-.107,6.189,6.189,0,0,1,4.489,5.738.4.4,0,1,0,.79.064C-946.976,408.776-955.817,404.5-959.1,409.522Zm-7.113,4.074a4.624,4.624,0,0,1,2.453,3.242c.234,1.216.106,2.88-1.131,3.509-2.175,1.12-3.455-1.941-3.8-3.562a6.56,6.56,0,0,1,.417-3.743A5.3,5.3,0,0,1-966.215,413.6Zm8.116-1.621a8.137,8.137,0,0,1,1.727,2.922c.15.523.587,2.027-.085,2.379-.405.224-1.067-.118-1.418-.342a2.75,2.75,0,0,1-1.067-1.407,6.022,6.022,0,0,1,.085-3.776c.043-.149.1-.288.15-.426C-958.494,411.538-958.291,411.751-958.1,411.975Z"/><path class="m" d="M-959.1,409.522a7.108,7.108,0,0,0-4.98-1.418,6.57,6.57,0,0,0-5,3.7,7.071,7.071,0,0,0-2.506.554,7.587,7.587,0,0,0-1.291.7,8.332,8.332,0,0,0-3.231,7.924c.043.341.1.672.17,1,.022.085.043.159.064.245l.843-.48c-.011-.1-.021-.181-.032-.267a8.657,8.657,0,0,1,1.2-5.631,6.2,6.2,0,0,1,2.282-2.047,6.4,6.4,0,0,1,1.962-.683,7.8,7.8,0,0,0-.363,2.506c.054,2.293,1.387,5.909,4.042,6.207a3.135,3.135,0,0,0,3.275-2.442,6.084,6.084,0,0,0-.811-4.81,6.232,6.232,0,0,0-4.18-2.687,6.126,6.126,0,0,1,2.068-1.984,5.446,5.446,0,0,1,5.951.619c-1.13,2.708-.992,6.857,2.272,7.881,3.242,1.024,2.378-3.594,1.5-5.173a12.18,12.18,0,0,0-2.293-2.954,4.062,4.062,0,0,1,1.7-1.471,4.854,4.854,0,0,1,3.4-.107,6.189,6.189,0,0,1,4.489,5.738.4.4,0,1,0,.79.064C-946.976,408.776-955.817,404.5-959.1,409.522Zm-7.113,4.074a4.624,4.624,0,0,1,2.453,3.242c.234,1.216.106,2.88-1.131,3.509-2.175,1.12-3.455-1.941-3.8-3.562a6.56,6.56,0,0,1,.417-3.743A5.3,5.3,0,0,1-966.215,413.6Zm8.116-1.621a8.137,8.137,0,0,1,1.727,2.922c.15.523.587,2.027-.085,2.379-.405.224-1.067-.118-1.418-.342a2.75,2.75,0,0,1-1.067-1.407,6.022,6.022,0,0,1,.085-3.776c.043-.149.1-.288.15-.426C-958.494,411.538-958.291,411.751-958.1,411.975Z"/><path class="d" d="M-970.725,413.424a6.374,6.374,0,0,1,1.1-.3,4.4,4.4,0,0,1,.545-1.319,7.132,7.132,0,0,0-1.3.182A9.028,9.028,0,0,0-970.725,413.424Z"/><path class="d" d="M-960.94,409.8a7.267,7.267,0,0,1,1.3.742,6.422,6.422,0,0,1,.536-1.019,8.248,8.248,0,0,0-1.446-.815A6.873,6.873,0,0,0-960.94,409.8Z"/><path class="d" d="M-975.878,422.235c-.021-.086-.042-.16-.064-.245-.074-.331-.127-.662-.17-1l1.045.5s.021.182.032.267Z"/><path class="h" d="M-974,299.769l-59.88,34.571a5.329,5.329,0,0,0-2.411,4.177v20.552c0,1.538,1.079,2.162,2.411,1.393L-974,325.89a5.33,5.33,0,0,0,2.411-4.177V301.161C-971.588,299.623-972.668,299-974,299.769Z"/><path class="d" d="M-976.113,308.825a5.169,5.169,0,0,1-2.411,4l-50.83,29.347c-1.332.769-2.411.223-2.411-1.219a5.171,5.171,0,0,1,2.411-4.005l50.83-29.347C-977.192,306.836-976.113,307.382-976.113,308.825Z"/><path class="i" d="M-976.113,319.274a5.171,5.171,0,0,1-2.411,4l-50.83,29.347c-1.332.769-2.411.223-2.411-1.22a5.17,5.17,0,0,1,2.411-4l50.83-29.347C-977.192,317.285-976.113,317.831-976.113,319.274Z"/><path class="d" d="M-978.524,318.054l-21.571,12.454v5.224l21.571-12.454a5.171,5.171,0,0,0,2.411-4C-976.113,317.831-977.192,317.285-978.524,318.054Z"/><path class="d" d="M-1057.033,251.38c-2.5-1.449-4.524-.129-4.524,2.946V364.883a10.372,10.372,0,0,0,4.524,8.192c2.5,1.449,4.525.13,4.525-2.946V259.572A10.371,10.371,0,0,0-1057.033,251.38Z"/><path class="n" d="M-1057.033,251.38c-2.5-1.449-4.524-.129-4.524,2.946V364.883a10.372,10.372,0,0,0,4.524,8.192c2.5,1.449,4.525.13,4.525-2.946V259.572A10.371,10.371,0,0,0-1057.033,251.38Z"/><path class="f" d="M-1057.034,370.431a5.174,5.174,0,0,1-2.262-4.091V255.449c0-1.538,1.013-2.2,2.262-1.479a5.172,5.172,0,0,1,2.263,4.091V368.952C-1054.771,370.49-1055.784,371.152-1057.034,370.431Z"/><path class="d" d="M-1057.034,370.431a5.174,5.174,0,0,1-2.262-4.091V312.16l4.525,2.612v54.18C-1054.771,370.49-1055.784,371.152-1057.034,370.431Z"/><path class="d" d="M-1070.606,243.544c-2.5-1.449-4.524-.13-4.524,2.946V357.047a10.372,10.372,0,0,0,4.524,8.192c2.5,1.449,4.525.13,4.525-2.946V251.736A10.37,10.37,0,0,0-1070.606,243.544Z"/><path class="n" d="M-1070.606,243.544c-2.5-1.449-4.524-.13-4.524,2.946V357.047a10.372,10.372,0,0,0,4.524,8.192c2.5,1.449,4.525.13,4.525-2.946V251.736A10.37,10.37,0,0,0-1070.606,243.544Z"/><path class="d" d="M-1070.607,362.6a5.174,5.174,0,0,1-2.262-4.091V247.613c0-1.538,1.013-2.2,2.262-1.479a5.172,5.172,0,0,1,2.263,4.091V361.116C-1068.344,362.654-1069.357,363.316-1070.607,362.6Z"/><path class="d" d="M-1084.179,235.708c-2.5-1.449-4.525-.13-4.525,2.946V349.211a10.372,10.372,0,0,0,4.524,8.192c2.5,1.449,4.524.13,4.525-2.946V243.9A10.371,10.371,0,0,0-1084.179,235.708Z"/><path class="n" d="M-1084.179,235.708c-2.5-1.449-4.525-.13-4.525,2.946V349.211a10.372,10.372,0,0,0,4.524,8.192c2.5,1.449,4.524.13,4.525-2.946V243.9A10.371,10.371,0,0,0-1084.179,235.708Z"/><path class="f" d="M-1084.18,354.759a5.174,5.174,0,0,1-2.262-4.091V239.777c0-1.538,1.013-2.2,2.262-1.479a5.166,5.166,0,0,1,2.262,4.091V353.28C-1081.918,354.818-1082.93,355.48-1084.18,354.759Z"/><path class="d" d="M-1084.18,354.759a5.174,5.174,0,0,1-2.262-4.091V270.149l4.525,2.612,0,80.519C-1081.918,354.818-1082.93,355.48-1084.18,354.759Z"/><path class="d" d="M-1097.752,227.872c-2.5-1.448-4.525-.13-4.525,2.946V341.375a10.369,10.369,0,0,0,4.524,8.192c2.5,1.449,4.524.13,4.524-2.946V236.064A10.369,10.369,0,0,0-1097.752,227.872Z"/><path class="n" d="M-1097.752,227.872c-2.5-1.448-4.525-.13-4.525,2.946V341.375a10.369,10.369,0,0,0,4.524,8.192c2.5,1.449,4.524.13,4.524-2.946V236.064A10.369,10.369,0,0,0-1097.752,227.872Z"/><path class="f" d="M-1097.753,346.923a5.174,5.174,0,0,1-2.262-4.091V231.941c0-1.538,1.013-2.2,2.262-1.479a5.171,5.171,0,0,1,2.262,4.091V345.444C-1095.491,346.982-1096.5,347.644-1097.753,346.923Z"/><path class="d" d="M-1097.753,346.923a5.174,5.174,0,0,1-2.262-4.091V322.61l4.524,2.612v20.222C-1095.491,346.982-1096.5,347.644-1097.753,346.923Z"/><path class="d" d="M-1111.325,220.036c-2.5-1.449-4.525-.13-4.525,2.946V333.539a10.369,10.369,0,0,0,4.524,8.192c2.5,1.449,4.524.13,4.524-2.946V228.228A10.373,10.373,0,0,0-1111.325,220.036Z"/><path class="n" d="M-1111.325,220.036c-2.5-1.449-4.525-.13-4.525,2.946V333.539a10.369,10.369,0,0,0,4.524,8.192c2.5,1.449,4.524.13,4.524-2.946V228.228A10.373,10.373,0,0,0-1111.325,220.036Z"/><path class="f" d="M-1111.326,339.087a5.174,5.174,0,0,1-2.262-4.091V224.1c0-1.538,1.012-2.2,2.262-1.479a5.174,5.174,0,0,1,2.262,4.091V337.608C-1109.064,339.146-1110.077,339.808-1111.326,339.087Z"/><path class="d" d="M-1111.326,339.087a5.174,5.174,0,0,1-2.262-4.091V275.59l4.524,2.612v59.406C-1109.064,339.146-1110.077,339.808-1111.326,339.087Z"/><path class="f" d="M-974,216.408l-59.88,34.571a5.329,5.329,0,0,0-2.411,4.177V324.03c0,1.538,1.079,2.161,2.411,1.392L-974,290.851a5.33,5.33,0,0,0,2.411-4.177V217.8C-971.588,216.262-972.668,215.639-974,216.408Z"/><path class="i" d="M-1035.635,252.88a4.879,4.879,0,0,0-.655,2.276V324.03c0,1.538,1.079,2.161,2.411,1.392L-974,290.851a4.983,4.983,0,0,0,1.752-1.894Z"/><path class="h" d="M-1033.879,250.979a5.329,5.329,0,0,0-2.411,4.177v68.873l59.877-34.571A5.332,5.332,0,0,0-974,285.281V216.408Z"/><line class="o" x2="7.958" y2="7.658" transform="translate(-1022.12 260.177)"/><line class="o" y1="16.848" x2="7.958" transform="translate(-1022.12 255.582)"/><line class="o" x2="7.958" y2="7.658" transform="translate(-996.128 245.17)"/><line class="o" y1="16.848" x2="7.958" transform="translate(-996.128 240.575)"/><line class="o" y1="20.009" x2="34.656" transform="translate(-1022.473 271.509)"/><path class="o" d="M-1000.813,279.012v9.675c0,2.945,1.939,4.213,4.332,2.831a9.9,9.9,0,0,0,4.332-7.833v-9.674"/><line class="o" y2="9.34" transform="translate(-996.481 276.512)"/><path class="f" d="M-1105.906,430.148a2.361,2.361,0,0,1,1.067,1.849c0,.68-.478.956-1.067.616a2.357,2.357,0,0,1-1.067-1.849C-1106.973,430.084-1106.5,429.808-1105.906,430.148Z"/><path class="f" d="M-1097.015,435.291a2.351,2.351,0,0,1,1.063,1.842c0,.678-.476.953-1.063.614a2.351,2.351,0,0,1-1.063-1.842C-1098.079,435.227-1097.6,434.952-1097.015,435.291Z"/><path class="f" d="M-1088.273,440.337a2.341,2.341,0,0,1,1.06,1.835c0,.676-.475.95-1.06.612a2.344,2.344,0,0,1-1.06-1.836C-1089.333,440.273-1088.858,440-1088.273,440.337Z"/><path class="f" d="M-1079.457,445.431a2.333,2.333,0,0,1,1.056,1.829c0,.673-.472.946-1.056.609a2.333,2.333,0,0,1-1.056-1.829C-1080.513,445.367-1080.04,445.094-1079.457,445.431Z"/><path class="f" d="M-1116.282,377.862l9.037,5.192a5.664,5.664,0,0,1,2.562,4.438v5.184c0,1.634-1.147,2.3-2.562,1.48l-9.037-5.193a5.664,5.664,0,0,1-2.562-4.438v-5.184C-1118.844,377.707-1117.7,377.045-1116.282,377.862Z"/><path class="d" d="M-1113.846,383.708l1.175-.678h0l.009,0h0a1.568,1.568,0,0,1,1.565.16,4.924,4.924,0,0,1,2.227,3.857,1.565,1.565,0,0,1-.651,1.44h0l-1.093.626-.2-.33a2.251,2.251,0,0,1-.639-.248,4.925,4.925,0,0,1-2.227-3.857,2.363,2.363,0,0,1,.07-.569Z"/><path class="p" d="M-1113.846,383.708l1.175-.678h0l.009,0h0a1.568,1.568,0,0,1,1.565.16,4.924,4.924,0,0,1,2.227,3.857,1.565,1.565,0,0,1-.651,1.44h0l-1.093.626-.2-.33a2.251,2.251,0,0,1-.639-.248,4.925,4.925,0,0,1-2.227-3.857,2.363,2.363,0,0,1,.07-.569Z"/><path class="d" d="M-1112.225,383.835a4.922,4.922,0,0,1,2.227,3.857c0,1.42-1,2-2.227,1.286a4.922,4.922,0,0,1-2.227-3.857C-1114.452,383.7-1113.455,383.125-1112.225,383.835Z"/><path class="h" d="M-1116.282,352.9l9.037,5.193a5.663,5.663,0,0,1,2.562,4.437v5.185c0,1.634-1.147,2.3-2.562,1.479l-9.037-5.192a5.663,5.663,0,0,1-2.562-4.438v-5.184C-1118.844,352.743-1117.7,352.081-1116.282,352.9Z"/><path class="d" d="M-1113.846,358.745l1.175-.678h0l.009-.005v0a1.57,1.57,0,0,1,1.565.159,4.925,4.925,0,0,1,2.227,3.858,1.565,1.565,0,0,1-.651,1.44h0l-1.093.626-.2-.329a2.281,2.281,0,0,1-.639-.248,4.928,4.928,0,0,1-2.227-3.858,2.37,2.37,0,0,1,.07-.569Z"/><path class="p" d="M-1113.846,358.745l1.175-.678h0l.009-.005v0a1.57,1.57,0,0,1,1.565.159,4.925,4.925,0,0,1,2.227,3.858,1.565,1.565,0,0,1-.651,1.44h0l-1.093.626-.2-.329a2.281,2.281,0,0,1-.639-.248,4.928,4.928,0,0,1-2.227-3.858,2.37,2.37,0,0,1,.07-.569Z"/><path class="d" d="M-1112.225,358.872a4.922,4.922,0,0,1,2.227,3.857c0,1.42-1,2-2.227,1.286a4.925,4.925,0,0,1-2.227-3.858C-1114.452,358.737-1113.455,358.161-1112.225,358.872Z"/><path class="h" d="M-974.4,333.977l-41.874,24.176a6.22,6.22,0,0,0-2.813,4.873v5.691c0,1.794,1.26,2.522,2.813,1.625l41.874-24.176a6.218,6.218,0,0,0,2.813-4.873V335.6C-971.588,333.807-972.848,333.08-974.4,333.977Z"/><path class="d" d="M-974.555,338.8v2.761a1.243,1.243,0,0,1-.563.974l-.633.366c-.311.179-.563.034-.563-.325v-2.761a1.245,1.245,0,0,1,.563-.975l.633-.365C-974.807,338.293-974.555,338.439-974.555,338.8Z"/><path class="d" d="M-977.4,340.437V343.2a1.243,1.243,0,0,1-.562.974l-.633.366c-.311.179-.563.034-.563-.325v-2.761a1.245,1.245,0,0,1,.563-.975l.633-.365C-977.651,339.932-977.4,340.078-977.4,340.437Z"/><path class="d" d="M-980.242,342.076v2.761a1.242,1.242,0,0,1-.563.974l-.633.366c-.31.179-.562.034-.562-.325v-2.761a1.246,1.246,0,0,1,.562-.975l.633-.365C-980.494,341.571-980.242,341.717-980.242,342.076Z"/><path class="d" d="M-983.085,343.715v2.761a1.241,1.241,0,0,1-.563.974l-.633.366c-.311.179-.563.034-.563-.325V344.73a1.245,1.245,0,0,1,.563-.975l.633-.365C-983.337,343.211-983.085,343.356-983.085,343.715Z"/><path class="f" d="M-985.929,345.354v2.761a1.243,1.243,0,0,1-.562.974l-.633.366c-.311.179-.563.034-.563-.325v-2.761a1.242,1.242,0,0,1,.563-.974l.633-.366C-986.181,344.85-985.929,344.995-985.929,345.354Z"/><path class="f" d="M-988.772,346.993v2.761a1.245,1.245,0,0,1-.563.975l-.633.365c-.31.179-.562.034-.562-.325v-2.761a1.243,1.243,0,0,1,.562-.974l.633-.366C-989.024,346.489-988.772,346.634-988.772,346.993Z"/><path class="d" d="M-991.615,348.632v2.761a1.245,1.245,0,0,1-.563.975l-.633.365c-.311.18-.563.034-.563-.325v-2.761a1.241,1.241,0,0,1,.563-.974l.633-.366C-991.867,348.128-991.615,348.273-991.615,348.632Z"/><path class="d" d="M-994.459,350.271v2.761a1.246,1.246,0,0,1-.562.975l-.633.365c-.311.18-.563.034-.563-.325v-2.761a1.241,1.241,0,0,1,.563-.974l.633-.366C-994.711,349.767-994.459,349.912-994.459,350.271Z"/><path class="d" d="M-997.3,351.91v2.761a1.245,1.245,0,0,1-.563.975l-.633.365c-.31.18-.562.034-.562-.324v-2.762a1.245,1.245,0,0,1,.562-.974l.633-.366C-997.554,351.406-997.3,351.552-997.3,351.91Z"/><path class="f" d="M-1000.145,353.549v2.761a1.243,1.243,0,0,1-.563.975l-.633.365c-.311.18-.563.034-.563-.324v-2.762a1.243,1.243,0,0,1,.563-.974l.633-.365C-1000.4,353.045-1000.145,353.191-1000.145,353.549Z"/><path class="d" d="M-1002.989,355.189v2.761a1.245,1.245,0,0,1-.562.974l-.633.365c-.311.18-.563.034-.563-.324V356.2a1.243,1.243,0,0,1,.563-.975l.633-.365C-1003.241,354.684-1002.989,354.83-1002.989,355.189Z"/><path class="d" d="M-1005.832,356.828v2.761a1.243,1.243,0,0,1-.563.974l-.633.366c-.31.179-.562.034-.562-.325v-2.761a1.246,1.246,0,0,1,.562-.975l.633-.365C-1006.084,356.323-1005.832,356.469-1005.832,356.828Z"/><path class="f" d="M-1008.675,358.467v2.761a1.241,1.241,0,0,1-.563.974l-.633.366c-.311.179-.563.034-.563-.325v-2.761a1.245,1.245,0,0,1,.563-.975l.633-.365C-1008.927,357.962-1008.675,358.108-1008.675,358.467Z"/><path class="d" d="M-1011.519,360.106v2.761a1.24,1.24,0,0,1-.562.974l-.633.366c-.311.179-.563.034-.563-.325v-2.761a1.245,1.245,0,0,1,.563-.975l.633-.365C-1011.77,359.6-1011.519,359.747-1011.519,360.106Z"/><path class="f" d="M-1014.362,361.745v2.761a1.242,1.242,0,0,1-.563.974l-.633.366c-.31.179-.562.034-.562-.325V362.76a1.246,1.246,0,0,1,.562-.975l.633-.365C-1014.614,361.241-1014.362,361.386-1014.362,361.745Z"/><path class="h" d="M-1023.319,367.277l-1.174-.678h0l-.008-.005h0a1.568,1.568,0,0,0-1.565.16,4.922,4.922,0,0,0-2.227,3.857,1.568,1.568,0,0,0,.65,1.441h0l1.093.626.2-.329a2.27,2.27,0,0,0,.638-.249,4.926,4.926,0,0,0,2.228-3.857,2.413,2.413,0,0,0-.07-.569Z"/><path class="d" d="M-1024.939,367.4a4.922,4.922,0,0,0-2.227,3.858c0,1.42,1,1.995,2.227,1.285a4.922,4.922,0,0,0,2.227-3.857C-1022.712,367.27-1023.709,366.694-1024.939,367.4Z"/><path class="q" d="M-1024.939,367.4a4.922,4.922,0,0,0-2.227,3.858c0,1.42,1,1.995,2.227,1.285a4.922,4.922,0,0,0,2.227-3.857C-1022.712,367.27-1023.709,366.694-1024.939,367.4Z"/><path class="h" d="M-1032.986,372.857l-1.175-.678h0l-.008-.005v0a1.567,1.567,0,0,0-1.565.159,4.922,4.922,0,0,0-2.227,3.858,1.565,1.565,0,0,0,.65,1.44h0l1.093.626.2-.329a2.274,2.274,0,0,0,.639-.249,4.922,4.922,0,0,0,2.227-3.857,2.37,2.37,0,0,0-.07-.569Z"/><path class="d" d="M-1034.607,372.983a4.924,4.924,0,0,0-2.227,3.858c0,1.42,1,2,2.227,1.286a4.924,4.924,0,0,0,2.227-3.858C-1032.38,372.849-1033.377,372.273-1034.607,372.983Z"/><path class="q" d="M-1034.607,372.983a4.924,4.924,0,0,0-2.227,3.858c0,1.42,1,2,2.227,1.286a4.924,4.924,0,0,0,2.227-3.858C-1032.38,372.849-1033.377,372.273-1034.607,372.983Z"/><path class="h" d="M-1097.422,361.763l43.825,25.28a3.14,3.14,0,0,1,1.42,2.46v12.1c0,.906-.636,1.273-1.421.82l-43.824-25.281a3.14,3.14,0,0,1-1.42-2.459v-12.1C-1098.842,361.677-1098.206,361.31-1097.422,361.763Z"/><path class="d" d="M-1096.178,367.1a3.043,3.043,0,0,0,1.42,2.357l38.5,22.2c.784.453,1.42.131,1.42-.718a3.044,3.044,0,0,0-1.42-2.358l-38.5-22.2C-1095.542,365.925-1096.178,366.246-1096.178,367.1Z"/><path class="i" d="M-1096.178,373.248a3.045,3.045,0,0,0,1.42,2.358l38.5,22.2c.784.453,1.42.132,1.42-.718a3.047,3.047,0,0,0-1.42-2.358l-38.5-22.2C-1095.542,372.077-1096.178,372.4-1096.178,373.248Z"/><path class="d" d="M-1094.758,372.53l21.268,12.257v3.076l-21.268-12.257a3.045,3.045,0,0,1-1.42-2.358C-1096.178,372.4-1095.542,372.077-1094.758,372.53Z"/><path class="f" d="M-1116.282,352.9l9.037,5.193a5.663,5.663,0,0,1,2.562,4.437v5.185c0,1.634-1.147,2.3-2.562,1.479l-9.037-5.192a5.663,5.663,0,0,1-2.562-4.438v-5.184C-1118.844,352.743-1117.7,352.081-1116.282,352.9Z"/><path class="d" d="M-1113.846,358.745l1.175-.678h0l.009-.005v0a1.57,1.57,0,0,1,1.565.159,4.925,4.925,0,0,1,2.227,3.858,1.565,1.565,0,0,1-.651,1.44h0l-1.093.626-.2-.329a2.281,2.281,0,0,1-.639-.248,4.928,4.928,0,0,1-2.227-3.858,2.37,2.37,0,0,1,.07-.569Z"/><path class="p" d="M-1113.846,358.745l1.175-.678h0l.009-.005v0a1.57,1.57,0,0,1,1.565.159,4.925,4.925,0,0,1,2.227,3.858,1.565,1.565,0,0,1-.651,1.44h0l-1.093.626-.2-.329a2.281,2.281,0,0,1-.639-.248,4.928,4.928,0,0,1-2.227-3.858,2.37,2.37,0,0,1,.07-.569Z"/><path class="d" d="M-1112.225,358.872a4.922,4.922,0,0,1,2.227,3.857c0,1.42-1,2-2.227,1.286a4.925,4.925,0,0,1-2.227-3.858C-1114.452,358.737-1113.455,358.161-1112.225,358.872Z"/><path class="f" d="M-1097.422,361.763l43.825,25.28a3.14,3.14,0,0,1,1.42,2.46v12.1c0,.906-.636,1.273-1.421.82l-43.824-25.281a3.14,3.14,0,0,1-1.42-2.459v-12.1C-1098.842,361.677-1098.206,361.31-1097.422,361.763Z"/><path class="d" d="M-1096.178,367.1a3.043,3.043,0,0,0,1.42,2.357l38.5,22.2c.784.453,1.42.131,1.42-.718a3.044,3.044,0,0,0-1.42-2.358l-38.5-22.2C-1095.542,365.925-1096.178,366.246-1096.178,367.1Z"/><path class="i" d="M-1096.178,373.248a3.045,3.045,0,0,0,1.42,2.358l38.5,22.2c.784.453,1.42.132,1.42-.718a3.047,3.047,0,0,0-1.42-2.358l-38.5-22.2C-1095.542,372.077-1096.178,372.4-1096.178,373.248Z"/><path class="d" d="M-1094.758,372.53l21.268,12.257v3.076l-21.268-12.257a3.045,3.045,0,0,1-1.42-2.358C-1096.178,372.4-1095.542,372.077-1094.758,372.53Z"/><path class="f" d="M-1097.422,386.794l43.825,25.281a3.138,3.138,0,0,1,1.42,2.459v12.1c0,.906-.636,1.273-1.421.82l-43.824-25.281a3.136,3.136,0,0,1-1.42-2.459v-12.1C-1098.842,386.708-1098.206,386.341-1097.422,386.794Z"/><path class="d" d="M-1096.178,392.127a3.047,3.047,0,0,0,1.42,2.358l38.5,22.2c.784.453,1.42.131,1.42-.718a3.045,3.045,0,0,0-1.42-2.358l-38.5-22.2C-1095.542,390.956-1096.178,391.277-1096.178,392.127Z"/><path class="i" d="M-1096.178,398.279a3.044,3.044,0,0,0,1.42,2.358l38.5,22.205c.784.453,1.42.131,1.42-.719a3.044,3.044,0,0,0-1.42-2.357l-38.5-22.2C-1095.542,397.108-1096.178,397.43-1096.178,398.279Z"/><path class="d" d="M-1094.758,397.561l26.6,15.334v3.076l-26.6-15.334a3.044,3.044,0,0,1-1.42-2.358C-1096.178,397.43-1095.542,397.108-1094.758,397.561Z"/><path class="h" d="M-1116.282,402.969l9.037,5.192a5.663,5.663,0,0,1,2.562,4.438v5.184c0,1.634-1.147,2.3-2.562,1.48l-9.037-5.193a5.664,5.664,0,0,1-2.562-4.438v-5.184C-1118.844,402.814-1117.7,402.152-1116.282,402.969Z"/><path class="d" d="M-1113.846,408.815l1.175-.678h0l.009-.005h0a1.568,1.568,0,0,1,1.565.16,4.925,4.925,0,0,1,2.227,3.857,1.565,1.565,0,0,1-.651,1.44h0l-1.093.626-.2-.33a2.25,2.25,0,0,1-.639-.248,4.925,4.925,0,0,1-2.227-3.857,2.363,2.363,0,0,1,.07-.569Z"/><path class="p" d="M-1113.846,408.815l1.175-.678h0l.009-.005h0a1.568,1.568,0,0,1,1.565.16,4.925,4.925,0,0,1,2.227,3.857,1.565,1.565,0,0,1-.651,1.44h0l-1.093.626-.2-.33a2.25,2.25,0,0,1-.639-.248,4.925,4.925,0,0,1-2.227-3.857,2.363,2.363,0,0,1,.07-.569Z"/><path class="d" d="M-1112.225,408.942A4.922,4.922,0,0,1-1110,412.8c0,1.421-1,2-2.227,1.286a4.922,4.922,0,0,1-2.227-3.857C-1114.452,408.808-1113.455,408.232-1112.225,408.942Z"/><path class="f" d="M-1116.282,402.969l9.037,5.192a5.663,5.663,0,0,1,2.562,4.438v5.184c0,1.634-1.147,2.3-2.562,1.48l-9.037-5.193a5.664,5.664,0,0,1-2.562-4.438v-5.184C-1118.844,402.814-1117.7,402.152-1116.282,402.969Z"/><path class="d" d="M-1113.846,408.815l1.175-.678h0l.009-.005h0a1.568,1.568,0,0,1,1.565.16,4.925,4.925,0,0,1,2.227,3.857,1.565,1.565,0,0,1-.651,1.44h0l-1.093.626-.2-.33a2.25,2.25,0,0,1-.639-.248,4.925,4.925,0,0,1-2.227-3.857,2.363,2.363,0,0,1,.07-.569Z"/><path class="p" d="M-1113.846,408.815l1.175-.678h0l.009-.005h0a1.568,1.568,0,0,1,1.565.16,4.925,4.925,0,0,1,2.227,3.857,1.565,1.565,0,0,1-.651,1.44h0l-1.093.626-.2-.33a2.25,2.25,0,0,1-.639-.248,4.925,4.925,0,0,1-2.227-3.857,2.363,2.363,0,0,1,.07-.569Z"/><path class="d" d="M-1112.225,408.942A4.922,4.922,0,0,1-1110,412.8c0,1.421-1,2-2.227,1.286a4.922,4.922,0,0,1-2.227-3.857C-1114.452,408.808-1113.455,408.232-1112.225,408.942Z"/><path class="f" d="M-1097.422,411.833l43.825,25.281a3.139,3.139,0,0,1,1.42,2.459v12.1c0,.9-.636,1.272-1.421.819l-43.824-25.28a3.14,3.14,0,0,1-1.42-2.46v-12.1C-1098.842,411.748-1098.206,411.38-1097.422,411.833Z"/><path class="d" d="M-1096.178,417.166a3.047,3.047,0,0,0,1.42,2.358l38.5,22.2c.784.453,1.42.131,1.42-.718a3.047,3.047,0,0,0-1.42-2.358l-38.5-22.2C-1095.542,415.995-1096.178,416.317-1096.178,417.166Z"/><path class="i" d="M-1096.178,423.319a3.047,3.047,0,0,0,1.42,2.358l38.5,22.2c.784.453,1.42.131,1.42-.718a3.045,3.045,0,0,0-1.42-2.358l-38.5-22.2C-1095.542,422.147-1096.178,422.469-1096.178,423.319Z"/><path class="d" d="M-1094.758,422.6l21.268,12.258v3.076l-21.268-12.257a3.047,3.047,0,0,1-1.42-2.358C-1096.178,422.469-1095.542,422.147-1094.758,422.6Z"/><path class="j" d="M-983.525,204.4l-58.439,33.74a3.343,3.343,0,0,1-3.024,0l-58.438-33.74a.921.921,0,0,1,0-1.746l58.439-32.575a3.343,3.343,0,0,1,3.024,0l58.438,32.575A.922.922,0,0,1-983.525,204.4Z"/><path class="d" d="M-1042.029,236.288-986.106,204a3.2,3.2,0,0,0,1.447-2.506v-1.882a3.2,3.2,0,0,0-1.447-2.507l-55.922-32.286a3.2,3.2,0,0,0-2.894,0l-55.923,32.287a3.2,3.2,0,0,0-1.447,2.506V201.5a3.2,3.2,0,0,0,1.447,2.506l55.922,32.286A3.194,3.194,0,0,0-1042.029,236.288Z"/><path class="r" d="M-1042.029,236.288-986.106,204a3.2,3.2,0,0,0,1.447-2.506v-1.882a3.2,3.2,0,0,0-1.447-2.507l-55.922-32.286a3.2,3.2,0,0,0-2.894,0l-55.923,32.287a3.2,3.2,0,0,0-1.447,2.506V201.5a3.2,3.2,0,0,0,1.447,2.506l55.922,32.286A3.194,3.194,0,0,0-1042.029,236.288Z"/><path class="k" d="M-1042.029,236.288-986.106,204a3.2,3.2,0,0,0,1.447-2.506v-1.882a3.2,3.2,0,0,0-1.447-2.507l-55.922-32.286a3.2,3.2,0,0,0-2.894,0l-55.923,32.287a3.2,3.2,0,0,0-1.447,2.506V201.5a3.2,3.2,0,0,0,1.447,2.506l55.922,32.286A3.194,3.194,0,0,0-1042.029,236.288Z"/><path class="d" d="M-986.106,198.777l-55.923,32.287a3.194,3.194,0,0,1-2.894,0l-55.922-32.287a.881.881,0,0,1,0-1.67l55.923-31.173a3.2,3.2,0,0,1,2.894,0l55.922,31.172A.882.882,0,0,1-986.106,198.777Z"/><path class="m" d="M-986.106,198.777l-55.923,32.287a3.194,3.194,0,0,1-2.894,0l-55.922-32.287a.881.881,0,0,1,0-1.67l55.923-31.173a3.2,3.2,0,0,1,2.894,0l55.922,31.172A.882.882,0,0,1-986.106,198.777Z"/><path class="d" d="M-1043.478,231.408v5.224a2.942,2.942,0,0,0,1.448-.345L-986.106,204a3.18,3.18,0,0,0,1.448-2.506v-1.882a3.216,3.216,0,0,0-1.181-2.317c.524.457.435,1.081-.267,1.482l-55.924,32.289A2.931,2.931,0,0,1-1043.478,231.408Z"/><path class="s" d="M-1043.478,231.408v5.224a2.942,2.942,0,0,0,1.448-.345L-986.106,204a3.18,3.18,0,0,0,1.448-2.506v-1.882a3.216,3.216,0,0,0-1.181-2.317c.524.457.435,1.081-.267,1.482l-55.924,32.289A2.931,2.931,0,0,1-1043.478,231.408Z"/><path class="i" d="M-1042.029,220.616l37.825-21.839a3.2,3.2,0,0,0,1.447-2.506v-1.883a3.2,3.2,0,0,0-1.447-2.506l-24.251-14a9.593,9.593,0,0,1-2.443-2.177l-11.583-15.6a1.919,1.919,0,0,0-2.442-.507l-37.826,21.838a3.2,3.2,0,0,0-1.447,2.506v12.332a3.2,3.2,0,0,0,1.447,2.506l37.825,21.839A3.2,3.2,0,0,0-1042.029,220.616Z"/><path class="h" d="M-1044.923,215.392l-24.252-14a8.563,8.563,0,0,1-1.265-.94,8.632,8.632,0,0,1-1.177-1.237l-11.583-15.6a1.454,1.454,0,0,1,.451-2.177l37.826-21.838a1.919,1.919,0,0,1,2.442.507l11.583,15.6a9.14,9.14,0,0,0,2.242,2.265l24.452,13.913a.882.882,0,0,1,0,1.671l-37.825,21.839A3.2,3.2,0,0,1-1044.923,215.392Z"/><path class="f" d="M-1082.749,181.433l37.826-21.838a1.919,1.919,0,0,1,2.442.507l11.583,15.6a8.541,8.541,0,0,0,1.184,1.233s-40.711,23.52-40.723,23.509a8.547,8.547,0,0,1-1.18-1.233l-11.583-15.6A1.454,1.454,0,0,1-1082.749,181.433Z"/><path class="d" d="M-1013.381,192.266a3.75,3.75,0,0,0-3.393,0,1.034,1.034,0,0,0,0,1.959,3.75,3.75,0,0,0,3.393,0A1.034,1.034,0,0,0-1013.381,192.266Z"/><path class="d" d="M-1020.167,196.184a3.752,3.752,0,0,0-3.394,0,1.034,1.034,0,0,0,0,1.959,3.752,3.752,0,0,0,3.394,0A1.034,1.034,0,0,0-1020.167,196.184Z"/><path class="i" d="M-1026.954,200.1a3.75,3.75,0,0,0-3.393,0,1.034,1.034,0,0,0,0,1.959,3.75,3.75,0,0,0,3.393,0A1.034,1.034,0,0,0-1026.954,200.1Z"/><path class="i" d="M-1033.74,204.02a3.75,3.75,0,0,0-3.393,0,1.034,1.034,0,0,0,0,1.959,3.75,3.75,0,0,0,3.393,0A1.034,1.034,0,0,0-1033.74,204.02Z"/><path class="d" d="M-1018.471,189.327a3.75,3.75,0,0,0-3.393,0,1.034,1.034,0,0,0,0,1.959,3.75,3.75,0,0,0,3.393,0A1.034,1.034,0,0,0-1018.471,189.327Z"/><path class="i" d="M-1025.257,193.245a3.75,3.75,0,0,0-3.393,0,1.034,1.034,0,0,0,0,1.959,3.75,3.75,0,0,0,3.393,0A1.034,1.034,0,0,0-1025.257,193.245Z"/><ellipse class="d" cx="2.399" cy="1.385" rx="2.399" ry="1.385" transform="translate(-1036.139 196.757)"/><path class="i" d="M-1038.829,201.081a3.752,3.752,0,0,0-3.394,0,1.034,1.034,0,0,0,0,1.959,3.752,3.752,0,0,0,3.394,0A1.034,1.034,0,0,0-1038.829,201.081Z"/><path class="i" d="M-1023.56,186.388a3.75,3.75,0,0,0-3.393,0,1.034,1.034,0,0,0,0,1.959,3.75,3.75,0,0,0,3.393,0A1.034,1.034,0,0,0-1023.56,186.388Z"/><path class="d" d="M-1030.346,190.306a3.752,3.752,0,0,0-3.394,0,1.034,1.034,0,0,0,0,1.959,3.752,3.752,0,0,0,3.394,0A1.034,1.034,0,0,0-1030.346,190.306Z"/><path class="i" d="M-1037.133,194.224a3.749,3.749,0,0,0-3.393,0,1.035,1.035,0,0,0,0,1.96,3.756,3.756,0,0,0,3.393,0A1.035,1.035,0,0,0-1037.133,194.224Z"/><path class="d" d="M-1040.564,207.86a3.752,3.752,0,0,0-3.394,0,1.034,1.034,0,0,0,0,1.959,3.752,3.752,0,0,0,3.394,0A1.034,1.034,0,0,0-1040.564,207.86Z"/><ellipse class="i" cx="2.399" cy="1.385" rx="2.399" ry="1.385" transform="translate(-1049.75 204.515)"/><path class="i" d="M-1043.919,198.146a3.744,3.744,0,0,0-3.393,0,1.034,1.034,0,0,0,0,1.959,3.75,3.75,0,0,0,3.393,0A1.034,1.034,0,0,0-1043.919,198.146Z"/><path class="d" d="M-1028.65,183.453a3.749,3.749,0,0,0-3.393,0,1.034,1.034,0,0,0,0,1.959,3.749,3.749,0,0,0,3.393,0A1.034,1.034,0,0,0-1028.65,183.453Z"/><path class="i" d="M-1035.436,187.371a3.749,3.749,0,0,0-3.393,0,1.034,1.034,0,0,0,0,1.959,3.749,3.749,0,0,0,3.393,0A1.034,1.034,0,0,0-1035.436,187.371Z"/><path class="d" d="M-1042.222,191.289a3.749,3.749,0,0,0-3.393,0,1.034,1.034,0,0,0,0,1.959,3.749,3.749,0,0,0,3.393,0A1.034,1.034,0,0,0-1042.222,191.289Z"/><path class="i" d="M-1049.008,195.207a3.751,3.751,0,0,0-3.394,0,1.034,1.034,0,0,0,0,1.959,3.751,3.751,0,0,0,3.394,0A1.034,1.034,0,0,0-1049.008,195.207Z"/><path class="d" d="M-1050.743,201.985a3.751,3.751,0,0,0-3.394,0,1.034,1.034,0,0,0,0,1.959,3.751,3.751,0,0,0,3.394,0A1.034,1.034,0,0,0-1050.743,201.985Z"/><path class="i" d="M-1055.833,199.047a3.749,3.749,0,0,0-3.393,0,1.034,1.034,0,0,0,0,1.959,3.749,3.749,0,0,0,3.393,0A1.034,1.034,0,0,0-1055.833,199.047Z"/><path class="f" d="M-1043.556,215.737v5.212a2.982,2.982,0,0,0,1.526-.334l37.825-21.841a3.183,3.183,0,0,0,1.448-2.506v-1.883a3.215,3.215,0,0,0-1.181-2.316c.523.456.435,1.08-.267,1.481l-37.825,21.842A3,3,0,0,1-1043.556,215.737Z"/><path class="i" d="M-1035.9,175.052l-.033-.046a1.277,1.277,0,0,0-1.627-.338l-32.916,19.005a.966.966,0,0,0-.3,1.449l.034.046a1.282,1.282,0,0,0,1.631.336l32.908-19A.971.971,0,0,0-1035.9,175.052Z"/><path class="d" d="M-1035.9,175.052l-.033-.046a1.277,1.277,0,0,0-1.627-.338l-24.472,14.128,1.366,1.832L-1036.2,176.5A.971.971,0,0,0-1035.9,175.052Z"/><path class="i" d="M-1038.622,171.4l-.033-.045a1.277,1.277,0,0,0-1.627-.339L-1073.2,190.02a.967.967,0,0,0-.3,1.45l.034.046a1.283,1.283,0,0,0,1.63.336l32.909-19A.972.972,0,0,0-1038.622,171.4Z"/><path class="d" d="M-1038.622,171.4l-.033-.045a1.277,1.277,0,0,0-1.627-.339l-8.182,4.722,1.366,1.832,8.174-4.717A.972.972,0,0,0-1038.622,171.4Z"/><path class="i" d="M-1041.343,167.747l-.033-.045a1.278,1.278,0,0,0-1.627-.339l-32.916,19a.967.967,0,0,0-.3,1.45l.034.046a1.282,1.282,0,0,0,1.63.336l32.908-19A.972.972,0,0,0-1041.343,167.747Z"/><path class="d" d="M-1041.343,167.747l-.033-.045a1.279,1.279,0,0,0-1.628-.34l-17.144,9.868,1.366,1.831,17.136-9.862A.971.971,0,0,0-1041.343,167.747Z"/><path class="i" d="M-1044.064,164.1l-.034-.045a1.275,1.275,0,0,0-1.626-.339l-32.917,19.005a.967.967,0,0,0-.3,1.45l.034.046a1.283,1.283,0,0,0,1.63.336l32.908-19A.973.973,0,0,0-1044.064,164.1Z"/><path class="d" d="M-1044.064,164.1l-.034-.045a1.275,1.275,0,0,0-1.626-.339l-29.88,17.25,1.366,1.832,29.871-17.245A.973.973,0,0,0-1044.064,164.1Z"/><path class="d" d="M-1032.964,484.46l.012,8.3a.614.614,0,0,0,.568.605l4.327.273v6.1h0a.37.37,0,0,0,.212.31l4.561,2.633a1.137,1.137,0,0,0,.578.118v.009a1.094,1.094,0,0,0,.432-.081l4.624-2.143a1.7,1.7,0,0,1,1.057-.063,27.524,27.524,0,0,0,3.591.854.872.872,0,0,1,.668.649l.578,3.047a.688.688,0,0,0,.251.4v0a.693.693,0,0,0,.426.158h6.707a.661.661,0,0,0,.383-.144.637.637,0,0,0,.086-.078.757.757,0,0,0,.094-.084v-.07c.037-.063.1-.111.112-.183l.579-3.047a.871.871,0,0,1,.668-.649,27.552,27.552,0,0,0,3.59-.854,1.7,1.7,0,0,1,1.058.063l4.624,2.143a1.083,1.083,0,0,0,.279.047v.03a1.251,1.251,0,0,0,.162,0c.044,0,.077,0,.121,0a1.08,1.08,0,0,0,.436-.115l.011,0,4.562-2.634a.457.457,0,0,0,.162-.155l.009-.008a.283.283,0,0,0,.035-.121c0-.007.007-.013.007-.019h0v-1.452l0-1.081v-.068h0l0-3.5h0l4.248-.27.079-.005c.043,0,.07-.041.11-.052a.63.63,0,0,0,.289-.139.609.609,0,0,0,.089-.214c.026-.066.079-.119.08-.192V481.624a.614.614,0,0,0-.569-.6l-4.33-.274,0-6.091,0,.009a.365.365,0,0,0-.211-.325l-4.562-2.634a1.226,1.226,0,0,0-1.009-.045L-997.8,473.8a1.7,1.7,0,0,1-1.058.063,27.392,27.392,0,0,0-3.59-.853.873.873,0,0,1-.668-.65l-.579-3.047a.713.713,0,0,0-.675-.559h-6.707a.716.716,0,0,0-.676.559l-.578,3.048a.876.876,0,0,1-.669.649,27.416,27.416,0,0,0-3.589.853,1.7,1.7,0,0,1-1.058-.063l-4.624-2.142a1.23,1.23,0,0,0-1.009.045l-4.562,2.634a.36.36,0,0,0-.21.331h0v6.077l-4.326.274a.614.614,0,0,0-.568.6v2.717A.583.583,0,0,0-1032.964,484.46Zm17.532,2.153a17.03,17.03,0,0,1,15.413,0c.322.186.619.376.895.569a9.339,9.339,0,0,1-.894.587,17.036,17.036,0,0,1-15.413,0,9.28,9.28,0,0,1-.891-.584C-1016.05,486.99-1015.755,486.8-1015.432,486.613Z"/><path class="g" d="M-1032.965,484.46l.012,8.3a.614.614,0,0,0,.57.6l4.326.274v6.1a.376.376,0,0,0,.213.311l4.563,2.631a1.114,1.114,0,0,0,.576.12v.01a1.055,1.055,0,0,0,.431-.084l4.625-2.141a1.409,1.409,0,0,1,.435-.1v0a1.633,1.633,0,0,1,.622.043,27.426,27.426,0,0,0,3.59.854.764.764,0,0,1,.283.117v.034a.814.814,0,0,1,.385.5l.579,3.047a.692.692,0,0,0,.25.4v0a.679.679,0,0,0,.425.157l6.708,0a.7.7,0,0,0,.123-.019.728.728,0,0,0,.441-.289v-.071c.037-.062.1-.111.111-.182l.579-3.047a.806.806,0,0,1,.271-.438v-.009a.825.825,0,0,1,.4-.2,27.451,27.451,0,0,0,3.589-.854,1.726,1.726,0,0,1,.706-.034v.019a1.416,1.416,0,0,1,.351.08l4.625,2.141a.992.992,0,0,0,.28.047v.03h0a1.216,1.216,0,0,0,.721-.12l.006,0,4.561-2.631a.7.7,0,0,0,.1-.074.48.48,0,0,0,.074-.089.325.325,0,0,0,.04-.136v-.006l0-1.451v-1.15l0-3.5.792-.052,3.457-.219.077-.006h0a.617.617,0,0,0,.567-.6v-7.752a.612.612,0,0,1-.567.6l-6.079.385a1.139,1.139,0,0,0-.823.545,9.043,9.043,0,0,1-1.291,1.794.478.478,0,0,0,.068.739l3.614,2.6a.341.341,0,0,1-.03.619l-4.561,2.634a1.228,1.228,0,0,1-1.01.043l-4.622-2.141a1.694,1.694,0,0,0-1.06-.062,27.828,27.828,0,0,1-3.589.854.868.868,0,0,0-.669.647l-.579,3.047a.717.717,0,0,1-.675.561h-6.708a.717.717,0,0,1-.675-.561l-.579-3.047a.869.869,0,0,0-.665-.647,27.366,27.366,0,0,1-3.593-.857,1.708,1.708,0,0,0-1.057.065l-4.625,2.141a1.221,1.221,0,0,1-1.007-.043l-4.563-2.634a.34.34,0,0,1-.031-.616l3.617-2.6a.483.483,0,0,0,.065-.743,9.2,9.2,0,0,1-1.291-1.79,1.125,1.125,0,0,0-.82-.545l-6.079-.382a.617.617,0,0,1-.567-.607v-.678A.55.55,0,0,0-1032.965,484.46Z"/><path class="g" d="M-1028.057,474.668v6.076l1.753-.111a1.106,1.106,0,0,0,.82-.545,9.225,9.225,0,0,1,1.291-1.79.482.482,0,0,0-.065-.743l-3.617-2.6a.4.4,0,0,1-.179-.284Z"/><path class="t" d="M-1016.321,487.187c.126-.089.256-.179.391-.268.016-.009.031-.021.047-.031.145-.092.292-.185.45-.274a17.028,17.028,0,0,1,15.415,0c.138.08.274.16.4.243.17.108.333.216.487.33,3.34-2.471,3.044-6.045-.89-8.316a17.021,17.021,0,0,0-15.412,0C-1019.368,481.142-1019.664,484.719-1016.321,487.187Z"/><path class="g" d="M-991.259,478.3a9.022,9.022,0,0,1,1.291,1.79,1.119,1.119,0,0,0,.823.545l1.747.111.006-6.088a.391.391,0,0,1-.185.3l-3.614,2.6A.485.485,0,0,0-991.259,478.3Z"/><path class="d" d="M-993.177,471.659-997.8,473.8a1.7,1.7,0,0,1-1.058.063,27.392,27.392,0,0,0-3.59-.853.873.873,0,0,1-.668-.65l-.579-3.047a.713.713,0,0,0-.675-.559h-6.707a.716.716,0,0,0-.676.559l-.578,3.048a.876.876,0,0,1-.669.649,27.416,27.416,0,0,0-3.589.853,1.7,1.7,0,0,1-1.058-.063l-4.624-2.142a1.23,1.23,0,0,0-1.009.045l-4.562,2.634a.34.34,0,0,0-.031.617l3.615,2.6a.481.481,0,0,1,.067.742,9.117,9.117,0,0,0-1.291,1.79,1.12,1.12,0,0,1-.821.546l-6.079.385a.614.614,0,0,0-.568.6v3.391a.613.613,0,0,0,.568.6l6.079.385a1.124,1.124,0,0,1,.821.545,9.093,9.093,0,0,0,1.291,1.791.482.482,0,0,1-.067.742l-3.615,2.6a.34.34,0,0,0,.031.617l4.561,2.634a1.232,1.232,0,0,0,1.01.045l4.624-2.142a1.693,1.693,0,0,1,1.057-.063,27.386,27.386,0,0,0,3.59.853.876.876,0,0,1,.669.65l.578,3.047a.714.714,0,0,0,.675.559h6.708a.714.714,0,0,0,.675-.559l.579-3.047a.874.874,0,0,1,.668-.65,27.387,27.387,0,0,0,3.59-.853,1.7,1.7,0,0,1,1.058.063l4.624,2.142a1.23,1.23,0,0,0,1.009-.045l4.562-2.634a.34.34,0,0,0,.031-.617l-3.615-2.6a.482.482,0,0,1-.068-.742,9.075,9.075,0,0,0,1.291-1.79,1.122,1.122,0,0,1,.822-.546l6.078-.385a.614.614,0,0,0,.569-.6v-3.391a.615.615,0,0,0-.569-.6l-6.078-.385a1.125,1.125,0,0,1-.822-.545,9.085,9.085,0,0,0-1.29-1.791.482.482,0,0,1,.067-.742l3.615-2.6a.34.34,0,0,0-.031-.617l-4.562-2.634A1.226,1.226,0,0,0-993.177,471.659Zm-6.841,7.211c4.256,2.457,4.256,6.441,0,8.9a17.036,17.036,0,0,1-15.413,0c-4.256-2.457-4.256-6.442,0-8.9A17.036,17.036,0,0,1-1000.018,478.87Z"/><path class="d" d="M-987.393,491.988a.386.386,0,0,0-.184-.3l-1.819-1.31v-4.308a.868.868,0,0,1,.251-.061l6.079-.385a.612.612,0,0,0,.567-.6v7.752a.617.617,0,0,1-.567.6h0l-.077.006-3.457.219-.792.052S-987.393,492.105-987.393,491.988Z"/><path class="p" d="M-987.393,491.988a.386.386,0,0,0-.184-.3l-1.819-1.31v-4.308a.868.868,0,0,1,.251-.061l6.079-.385a.612.612,0,0,0,.567-.6v7.752a.617.617,0,0,1-.567.6h0l-.077.006-3.457.219-.792.052S-987.393,492.105-987.393,491.988Z"/><path class="d" d="M-998.149,492.745a1.29,1.29,0,0,1,.349.093l4.622,2.141a1.179,1.179,0,0,0,.594.076V502.8a1.349,1.349,0,0,1-.311,0h0v-.03a.992.992,0,0,1-.28-.047l-4.625-2.141a1.386,1.386,0,0,0-.346-.079Z"/><path class="p" d="M-998.149,492.745a1.29,1.29,0,0,1,.349.093l4.622,2.141a1.179,1.179,0,0,0,.594.076V502.8a1.349,1.349,0,0,1-.311,0h0v-.03a.992.992,0,0,1-.28-.047l-4.625-2.141a1.386,1.386,0,0,0-.346-.079Z"/><path class="d" d="M-1003.783,497.542a.661.661,0,0,0,.086-.218l.579-3.047a.7.7,0,0,1,.091-.231V501.8a.653.653,0,0,0-.091.225l-.579,3.047a.357.357,0,0,1-.086.146Z"/><path class="p" d="M-1003.783,497.542a.661.661,0,0,0,.086-.218l.579-3.047a.7.7,0,0,1,.091-.231V501.8a.653.653,0,0,0-.091.225l-.579,3.047a.357.357,0,0,1-.086.146Z"/><path class="e" d="M-1012.423,494.048a.718.718,0,0,1,.089.229l.579,3.047a.656.656,0,0,0,.088.22v7.74a.644.644,0,0,1-.088-.217l-.579-3.047a.564.564,0,0,0-.089-.208Z"/><path class="e" d="M-1022.866,495.054a1.159,1.159,0,0,0,.592-.075l4.625-2.141a1.37,1.37,0,0,1,.348-.093v7.745a1.3,1.3,0,0,0-.348.091l-4.625,2.141a1.055,1.055,0,0,1-.431.084v-.01c-.054,0-.108,0-.161-.005Z"/><path class="e" d="M-1032.383,485.622l6.079.382a.853.853,0,0,1,.251.061v4.309l-1.822,1.312a.379.379,0,0,0-.181.3c0,.116,0,1.646,0,1.646l-4.326-.274a.614.614,0,0,1-.57-.6l-.012-8.3a.55.55,0,0,1,.015-.123v.678A.617.617,0,0,0-1032.383,485.622Z"/><path class="d" d="M-944.01,460.609V460.6l0,0h0a.24.24,0,0,0-.03-.106l0,0c0-1.923.005-5.257,0-5.466,0,0,0-.007,0-.011a.451.451,0,0,0-.095-.261l-1.707-2.381a.816.816,0,0,0-.7-.33l-4.463.749a1.382,1.382,0,0,1-.853-.244c-.277-.192-.575-.38-.884-.557l.005-3.549,0,.005c.005-.142-.134-.279-.354-.332l-4.531-1.083a.848.848,0,0,0-.729.138l-2.167,2.28a1.026,1.026,0,0,1-.711.221,23.807,23.807,0,0,0-2.951.005,1.162,1.162,0,0,1-.8-.346l-1.94-2.04a.89.89,0,0,0-.757-.278l-4.708,1.123a.31.31,0,0,0-.244.311.091.091,0,0,0,0,.017c0,.2,0,1.879,0,3.517a11.654,11.654,0,0,0-1.049.669,1.206,1.206,0,0,1-.776.132l-4.323-.727a.763.763,0,0,0-.687.2l-1.876,2.615a.2.2,0,0,0-.039.116V455c0,.4-.011,6.752-.011,6.792a.242.242,0,0,0,.036.109c0,1.954-.005,5.383-.008,5.465a.473.473,0,0,0,.1.277l1.707,2.38a.814.814,0,0,0,.7.33l4.461-.751a1.39,1.39,0,0,1,.853.244c.279.2.576.38.887.56l0,3.535c-.009.145.132.286.356.34l4.527,1.082a.846.846,0,0,0,.734-.137l2.166-2.28a1.011,1.011,0,0,1,.712-.22,24.394,24.394,0,0,0,2.95-.006,1.165,1.165,0,0,1,.794.344l1.942,2.042a.9.9,0,0,0,.757.279l4.707-1.126a.3.3,0,0,0,.24-.259c.012-.077.007-3.586.007-3.586q.554-.315,1.05-.667a1.186,1.186,0,0,1,.775-.134l4.324.73a.76.76,0,0,0,.685-.2l1.877-2.614a.215.215,0,0,0,.04-.121c0-.124.008-6.56.007-6.8Zm-25.2.138c.205-.146.429-.288.672-.428a12.941,12.941,0,0,1,11.713,0c.235.137.457.279.658.419a6.307,6.307,0,0,1-.711.464,13.059,13.059,0,0,1-8.985,1.012,10.027,10.027,0,0,1-2.655-1.018A6.545,6.545,0,0,1-969.214,460.747Z"/><path class="g" d="M-944.01,460.609V460.6l0,0h0a.24.24,0,0,0-.03-.106l0,0c0-1.923.005-5.257,0-5.466,0,0,0-.007,0-.011a.451.451,0,0,0-.095-.261l-1.707-2.381a.816.816,0,0,0-.7-.33l-4.463.749a1.382,1.382,0,0,1-.853-.244c-.277-.192-.575-.38-.884-.557l.005-3.549,0,.005c.005-.142-.134-.279-.354-.332l-4.531-1.083a.848.848,0,0,0-.729.138l-2.167,2.28a1.026,1.026,0,0,1-.711.221,23.807,23.807,0,0,0-2.951.005,1.162,1.162,0,0,1-.8-.346l-1.94-2.04a.89.89,0,0,0-.757-.278l-4.708,1.123a.31.31,0,0,0-.244.311.091.091,0,0,0,0,.017c0,.2,0,1.879,0,3.517a11.654,11.654,0,0,0-1.049.669,1.206,1.206,0,0,1-.776.132l-4.323-.727a.763.763,0,0,0-.687.2l-1.876,2.615a.2.2,0,0,0-.039.116V455c0,.4-.011,6.752-.011,6.792a.242.242,0,0,0,.036.109c0,1.954-.005,5.383-.008,5.465a.473.473,0,0,0,.1.277l1.707,2.38a.814.814,0,0,0,.7.33l4.461-.751a1.39,1.39,0,0,1,.853.244c.279.2.576.38.887.56l0,3.535c-.009.145.132.286.356.34l4.527,1.082a.846.846,0,0,0,.734-.137l2.166-2.28a1.011,1.011,0,0,1,.712-.22,24.394,24.394,0,0,0,2.95-.006,1.165,1.165,0,0,1,.794.344l1.942,2.042a.9.9,0,0,0,.757.279l4.707-1.126a.3.3,0,0,0,.24-.259c.012-.077.007-3.586.007-3.586q.554-.315,1.05-.667a1.186,1.186,0,0,1,.775-.134l4.324.73a.76.76,0,0,0,.685-.2l1.877-2.614a.215.215,0,0,0,.04-.121c0-.124.008-6.56.007-6.8Zm-25.2.138c.205-.146.429-.288.672-.428a12.941,12.941,0,0,1,11.713,0c.235.137.457.279.658.419a6.307,6.307,0,0,1-.711.464,13.059,13.059,0,0,1-8.985,1.012,10.027,10.027,0,0,1-2.655-1.018A6.545,6.545,0,0,1-969.214,460.747Z"/><path class="d" d="M-981.386,454.984l0,.013v-.016a.252.252,0,0,1,.007-.046A.126.126,0,0,0-981.386,454.984Z"/><path class="g" d="M-971.594,451.447c-.36.167-.708.345-1.041.533,0-1.639,0-3.321,0-3.518a.424.424,0,0,0,.052.181l1.128,2.234A.409.409,0,0,1-971.594,451.447Z"/><path class="e" d="M-976.785,457.036a4.624,4.624,0,0,0-.007,1.476.475.475,0,0,1-.3.521l-4.073,1.288a.263.263,0,0,0-.191.259c0,.083,0,1.325,0,1.325a.245.245,0,0,1-.034-.1c0-2.314.009-6.181.009-6.52V455c.007.123.13.243.327.305l3.848,1.22A.528.528,0,0,1-976.785,457.036Z"/><path class="e" d="M-974.234,462.8V469.6a.68.68,0,0,0-.164,0l-4.461.748a.531.531,0,0,1-.228-.018v-6.8a.586.586,0,0,0,.237.015l4.462-.752A.639.639,0,0,1-974.234,462.8Z"/><path class="u" d="M-972.66,470.409c-.308-.179-.607-.364-.884-.558a1.58,1.58,0,0,0-.69-.247V462.8a1.516,1.516,0,0,1,.7.253,13.587,13.587,0,0,0,1.809,1.038c.265.13.413.361.326.536l-1.226,2.428a.225.225,0,0,0-.025.1C-972.653,467.292-972.66,470.409-972.66,470.409Z"/><path class="e" d="M-964.606,465.99V472.8a.687.687,0,0,0-.274.154l-2.166,2.28a.676.676,0,0,1-.394.157v-6.806a.643.643,0,0,0,.4-.154l2.169-2.284A.7.7,0,0,1-964.606,465.99Z"/><path class="u" d="M-960.933,465.963v6.806a.89.89,0,0,0-.283-.043,25.066,25.066,0,0,1-2.952,0,1.126,1.126,0,0,0-.438.068V465.99a1.161,1.161,0,0,1,.447-.067,24.174,24.174,0,0,0,2.949,0A.77.77,0,0,1-960.933,465.963Z"/><path class="e" d="M-958.049,468.56v6.8a.97.97,0,0,1-.431-.252l-1.941-2.043a1.231,1.231,0,0,0-.512-.3v-6.806a1.237,1.237,0,0,1,.521.3l1.941,2.039A.994.994,0,0,0-958.049,468.56Z"/><path class="d" d="M-952.768,467.207v3.211h0s0,.579,0,1.272v.6c0,.848,0,1.673-.009,1.71a.3.3,0,0,1-.24.259l-4.708,1.125a.626.626,0,0,1-.324-.025v-6.8a.671.671,0,0,0,.333.025l4.708-1.128A.292.292,0,0,0-952.768,467.207Z"/><path class="p" d="M-952.768,467.207v3.211h0s0,.579,0,1.272v.6c0,.848,0,1.673-.009,1.71a.3.3,0,0,1-.24.259l-4.708,1.125a.626.626,0,0,1-.324-.025v-6.8a.671.671,0,0,0,.333.025l4.708-1.128A.292.292,0,0,0-952.768,467.207Z"/><path class="e" d="M-951.249,462.8v6.807a1.009,1.009,0,0,0-.471.141,12.146,12.146,0,0,1-1.051.666s.007-3.12.006-3.269a.448.448,0,0,0-.049-.194l-1.131-2.24a.407.407,0,0,1,.142-.567,13.167,13.167,0,0,0,2.092-1.2A.949.949,0,0,1-951.249,462.8Z"/><path class="d" d="M-944.011,460.611c0,.237-.006,6.673-.006,6.8a.244.244,0,0,1-.043.12l-1.877,2.613a.547.547,0,0,1-.32.185v-6.8a.575.575,0,0,0,.332-.187l1.874-2.616A.176.176,0,0,0-944.011,460.611Z"/><path class="d" d="M-944.011,460.611c0,.237-.006,6.673-.006,6.8a.244.244,0,0,1-.043.12l-1.877,2.613a.547.547,0,0,1-.32.185v-6.8a.575.575,0,0,0,.332-.187l1.874-2.616A.176.176,0,0,0-944.011,460.611Z"/><path class="p" d="M-944.011,460.611c0,.237-.006,6.673-.006,6.8a.244.244,0,0,1-.043.12l-1.877,2.613a.547.547,0,0,1-.32.185v-6.8a.575.575,0,0,0,.332-.187l1.874-2.616A.176.176,0,0,0-944.011,460.611Z"/><path class="d" d="M-972.631,448.446a.091.091,0,0,0,0,.017.432.432,0,0,0,.051.18l1.128,2.236a.4.4,0,0,1-.142.567c-.36.168-.709.346-1.04.534a11.654,11.654,0,0,0-1.049.669,1.206,1.206,0,0,1-.776.132l-4.323-.727a.764.764,0,0,0-.687.2l-1.876,2.615a.2.2,0,0,0-.039.116V455c.007.122.129.242.328.3l3.848,1.221a.528.528,0,0,1,.421.51,4.615,4.615,0,0,0-.005,1.474.477.477,0,0,1-.3.521l-4.073,1.289a.259.259,0,0,0-.191.257.479.479,0,0,0,.1.264l1.709,2.38a.8.8,0,0,0,.7.329l4.46-.751a1.364,1.364,0,0,1,.851.245,13.147,13.147,0,0,0,1.809,1.04c.265.13.412.362.325.535l-1.227,2.43c-.087.173.063.363.332.431l4.529,1.08a.84.84,0,0,0,.731-.135l2.169-2.281a1.031,1.031,0,0,1,.71-.224,24.376,24.376,0,0,0,2.949,0,1.166,1.166,0,0,1,.8.342l1.942,2.042a.91.91,0,0,0,.754.281l4.71-1.128a.329.329,0,0,0,.192-.5l-1.129-2.238a.407.407,0,0,1,.141-.568,13.238,13.238,0,0,0,2.091-1.2,1.18,1.18,0,0,1,.775-.134l4.324.726a.761.761,0,0,0,.687-.2l1.874-2.614a.182.182,0,0,0,.04-.116h0l0-.009a.24.24,0,0,0-.03-.106l0,0a.514.514,0,0,0-.295-.206l-3.849-1.217c-.27-.087-.453-.311-.421-.51a4.733,4.733,0,0,0,.005-1.474.473.473,0,0,1,.3-.521l4.075-1.291a.255.255,0,0,0,.187-.247s0-.007,0-.011a.451.451,0,0,0-.095-.261l-1.707-2.381a.816.816,0,0,0-.7-.33l-4.463.749a1.382,1.382,0,0,1-.853-.244c-.277-.192-.575-.38-.884-.557-.293-.168-.6-.329-.922-.484-.266-.126-.414-.36-.327-.53l1.229-2.434a.2.2,0,0,0,.021-.1c.005-.142-.134-.279-.354-.332l-4.531-1.083a.848.848,0,0,0-.729.138l-2.167,2.28a1.026,1.026,0,0,1-.711.221,23.807,23.807,0,0,0-2.951.005,1.162,1.162,0,0,1-.8-.346l-1.94-2.04a.89.89,0,0,0-.757-.278l-4.708,1.123A.31.31,0,0,0-972.631,448.446Zm17.127,6.989c.04.04.079.078.116.12s.054.058.08.087c.058.066.114.133.167.2s.121.163.176.246c.035.052.068.105.1.158.015.025.03.05.044.076a2.926,2.926,0,0,1-.226,3.3,5.022,5.022,0,0,1-1.123,1.111,6.307,6.307,0,0,1-.711.464,13.059,13.059,0,0,1-8.985,1.012,10.027,10.027,0,0,1-2.655-1.018,6.44,6.44,0,0,1-.692-.449,4.651,4.651,0,0,1-1.414-1.571.084.084,0,0,1-.009-.022c-.017-.03-.032-.061-.047-.092s-.031-.066-.043-.1a.885.885,0,0,1-.044-.1,2.928,2.928,0,0,1,.422-2.891c1.752-2.439,6.6-3.6,10.819-2.587A8.329,8.329,0,0,1-955.5,455.435Z"/><path class="f" d="M-917.932,439.827c-.933.53-2.681.508-3.238,1.147v2.3l10.662-1.558,4.032,2.364-1.533,3.2-10.765-.719v2.3c.227.16.465.313.721.463,4.5,2.64,11.861,2.673,16.435.073,2.307-1.312,3.458-3.04,3.459-4.77h0v-2.288l-.635.1c-.025-.042-.045-.085-.072-.126l40.346-23.294a18.241,18.241,0,0,0,12.145-1.519,6.773,6.773,0,0,0,3.238-3.443v-2.3L-853.8,415.61l-4.032-2.364,1.533-3.2,10.765-1.577v-2.3s-12.583-.84-17.157,1.76a7.48,7.48,0,0,0-2.849,2.634l-.609-.221v2.278l0-.005a4.277,4.277,0,0,0,.7,2.4l-40.346,23.294A18.241,18.241,0,0,0-917.932,439.827Z"/><path class="f" d="M-858.519,419.014v-2.3l-40.345,23.293v2.3Z"/><path class="h" d="M-865.441,412.718l-40.345,23.294a18.249,18.249,0,0,0-12.146,1.519,6.777,6.777,0,0,0-3.238,3.443l10.663-1.558,4.031,2.364-1.532,3.2-10.766,1.576c.227.16.466.313.722.463,4.5,2.641,11.861,2.673,16.434.073,3.352-1.906,4.266-4.691,2.754-7.083l40.345-23.293a18.249,18.249,0,0,0,12.146-1.519,6.777,6.777,0,0,0,3.238-3.443l-10.663,1.557-4.031-2.364,1.532-3.2,10.766-1.577c-.227-.16-.466-.313-.722-.463-4.5-2.64-11.861-2.673-16.434-.073C-866.039,407.541-866.953,410.326-865.441,412.718Z"/><path class="i" d="M-856.972,411.453l-.857-.5,1.532-3.2,10.766-1.577v2.3l-10.766,1.577Z"/><path class="i" d="M-907.334,443.573l.858-1.793-4.031-2.364-10.662,1.557v2.3l10.662-1.558Z"/><path class="d" d="M-893.246,473.722l8.431,14.6,28.447-16.424c1.169-.583,1.9-1.947,1.9-3.937a13.188,13.188,0,0,0-5.967-10.334c-1.649-.952-3.142-1.041-4.222-.415h0Z"/><path class="d" d="M-894.941,476.75l0-.007c-.124,2.225-3.273,2.7-3.273,2.7l5.967,10.334s1.988-2.451,3.977-1.483l0-.006c2.94,1.271,5.217-.306,5.217-3.818a13.191,13.191,0,0,0-5.967-10.334C-892.068,472.385-894.572,473.568-894.941,476.75Z"/><path class="k" d="M-894.941,476.75l0-.007c-.124,2.225-3.273,2.7-3.273,2.7l5.967,10.334s1.988-2.451,3.977-1.483l0-.006c2.94,1.271,5.217-.306,5.217-3.818a13.191,13.191,0,0,0-5.967-10.334C-892.068,472.385-894.572,473.568-894.941,476.75Z"/><path class="k" d="M-896.789,479a6.177,6.177,0,0,1-1.429.444l5.967,10.334a6.155,6.155,0,0,1,1.1-1A13.339,13.339,0,0,0-896.789,479Z"/><path class="d" d="M-904.425,480.177l.5.864a6.263,6.263,0,0,0-.257,1.85,13.187,13.187,0,0,0,5.966,10.334,6.281,6.281,0,0,0,1.732.7l.5.864,1.989-1.149h0c1.08-.623,1.748-1.96,1.748-3.862a13.185,13.185,0,0,0-5.967-10.334c-1.647-.952-3.139-1.042-4.219-.418h0Z"/><path class="d" d="M-894.24,490.929a13.187,13.187,0,0,0-5.966-10.334c-3.3-1.9-5.967-.36-5.967,3.445a13.187,13.187,0,0,0,5.967,10.334C-896.911,496.276-894.24,494.734-894.24,490.929Z"/><path class="e" d="M-894.24,490.929a13.187,13.187,0,0,0-5.966-10.334c-3.3-1.9-5.967-.36-5.967,3.445a13.187,13.187,0,0,0,5.967,10.334C-896.911,496.276-894.24,494.734-894.24,490.929Z"/><path class="e" d="M-902.532,492.488a11.053,11.053,0,0,0,1.481,1.321l1.4-3.982-1.685-1.24Z"/><path class="p" d="M-859.318,463.872h0a1.646,1.646,0,0,1-.6,2.247l-20.32,11.732a1.646,1.646,0,0,1-2.247-.6h0a1.645,1.645,0,0,1,.6-2.247l20.32-11.732A1.646,1.646,0,0,1-859.318,463.872Z"/><path class="p" d="M-862.985,459.5h0a.964.964,0,0,1-.072,1.687l-20.7,11.952a2.253,2.253,0,0,1-2.394-.262h0a.963.963,0,0,1,.072-1.686l20.7-11.953A2.253,2.253,0,0,1-862.985,459.5Z"/><path class="p" d="M-857.367,469.233h0a.963.963,0,0,0-1.5-.781l-20.7,11.952a2.254,2.254,0,0,0-.971,2.205h0a.964.964,0,0,0,1.5.781l20.7-11.953A2.253,2.253,0,0,0-857.367,469.233Z"/><path class="h" d="M-952.527,515.029v3.978l9.944-3.233s1.989-3.656,3.978-4.8l37.787-21.816,1.165-3.3-1.165-.674L-938.6,506.992a3.97,3.97,0,0,1-3.978-.212Z"/><path class="f" d="M-951.362,515.7v3.978l9.944-3.233s1.989-3.656,3.978-4.8l37.787-21.817v-3.978l-37.787,21.817a3.971,3.971,0,0,1-3.978-.211Z"/><path class="i" d="M-951.362,519.681l-1.165-.674v-3.978l1.165.674Z"/><path class="h" d="M-952.527,515.029l1.165.674,9.944-8.249-1.165-.674Z"/></g></g></svg>