<svg xmlns="http://www.w3.org/2000/svg" width="706.672" height="435.353" viewBox="0 0 706.672 435.353"><defs><style>.a{fill:#f2f5fa;}.b{fill:none;stroke:#f2f5ff;stroke-width:7.293px;}.b,.m,.o,.p{stroke-miterlimit:10;}.c,.w{fill:#e1e1ff;}.d{fill:#00dfff;}.e,.r{opacity:0.1;}.f,.r,.s{fill:#000059;}.g,.t,.u{fill:#fff;}.h{fill:#1a2e8e;}.i{fill:#2b45a7;}.j{fill:#375abd;}.k{opacity:0.2;}.l{fill:#e7e7ff;}.m,.n,.p{fill:#fafaff;}.o{fill:#f5f5ff;}.p{stroke:#ececff;stroke-width:1.104px;}.q{fill:#ececff;}.s{opacity:0.15;}.t{opacity:0.4;}.u{opacity:0.7;}.v,.w{stroke:none;}</style></defs><g transform="translate(-607 -124)"><path class="a" d="M1074.459,121.477a69.13,69.13,0,0,0-27.57,6.1c-16.907,8-26.4,26.409-44.829,31.788l4.008-.28c-7.524,2.411-16.666,3.416-27.006,3.427-24.945.026-56.884-5.732-90.065-11.489s-67.6-11.512-97.485-11.481c-53.283.054-92.187,18.5-84.091,88.092C710.4,252,726.132,286.4,712.9,309.168c-9.588,17.048-27.184,27.05-44.183,33.693-44.4,18.106-60.91,52.018-49.61,100.384,16.507,71.168,72.855,94.206,134.593,94.142,51.318-.054,79.779,24.107,128.23,18.636,46.106-5.47,82.011-18.6,120.13-18.636,29.123-.03,60.18-5.732,87.618,4.778,43.473,17.308,78.634,3.318,124.318,3.271a99.839,99.839,0,0,0,20.505-2.216c51.63-10.418,59.371-59.18,44.245-104.549-8.6-28.071-14.76-39.929,2.2-67.049,14.291-26.934,39.473-47.357,41.379-78.894.389-34.157-15.343-68.559-45.73-81.464-24.863-10.558-47.384-6.261-71.974-12.743-46.778-13.094-79.317-77.1-130.166-77.044" transform="translate(-8.664 2.523)"/><g transform="translate(3853.126 1.539)"><path class="b" d="M-3206.126,227.867"/><path class="c" d="M-3006.518,525.206l-78.543-45.672,132.863-76.787Z"/><path class="c" d="M-3119.9,476.766l31.965,18.455a4.751,4.751,0,0,0,4.295,0l44.162-25.76a1.308,1.308,0,0,0,0-2.479l-31.965-18.455a4.743,4.743,0,0,0-4.294,0l-44.163,25.76A1.308,1.308,0,0,0-3119.9,476.766Z"/><path class="d" d="M-3116.431,473.866c-2.219-3.556-9.015-7.463-17.956-9.393s-17.919-4.332-15.864-9.519c2.218-5.6,10.526-5.869,18.656-2.539,8.884,3.639,15.452,12.654,15.579,18.32Z"/><g class="e"><path class="f" d="M-3116.431,473.866c-2.219-3.556-9.015-7.463-17.956-9.393s-17.919-4.332-15.864-9.519c2.218-5.6,10.526-5.869,18.656-2.539,8.884,3.639,15.452,12.654,15.579,18.32Z"/></g><path class="g" d="M-3115.73,472.246a.666.666,0,0,1-.6-.377c-7.1-14.688-23.551-17.054-28.74-16.255a.668.668,0,0,1-.762-.558.668.668,0,0,1,.558-.761c5.446-.845,22.718,1.626,30.146,16.993a.669.669,0,0,1-.31.892A.67.67,0,0,1-3115.73,472.246Z"/><path class="d" d="M-3116.431,473.866s-4.273-16.925-15.093-26.022c-3.215-2.7-6.644-6.083-9.04-8.419-5.143-5.014-3-10.467,4.129-10.367,10.588.149,18.337,9.065,21.691,20.734S-3116.431,473.866-3116.431,473.866Z"/><path class="g" d="M-3114.743,467.3a.669.669,0,0,1-.665-.606c-1.994-21.521-18.412-32.341-22.88-33.484a.668.668,0,0,1-.481-.812.665.665,0,0,1,.812-.481c5.426,1.388,21.837,12.617,23.879,34.654a.668.668,0,0,1-.6.727Z"/><path class="h" d="M-3086.8,492.472l-30.162-17.414V410.377l30.162,17.414Z"/><path class="i" d="M-3086.8,427.791l43.089-24.877V467.6l-43.089,24.877Z"/><path class="j" d="M-3043.713,402.914l-43.089,24.877-30.162-17.414,43.089-24.877Z"/><path class="h" d="M-3068.188,427l5.862-3.385c.761-.44,1.377-.239,1.377.448a2.759,2.759,0,0,1-1.377,2.04l-5.863,3.384c-.761.44-1.378.239-1.378-.448A2.762,2.762,0,0,1-3068.188,427Z"/><path class="h" d="M-3083.286,460.594l34.471-19.9.793.458-.794,23.5.793.458-34.471,19.9-.793-.458Z"/><path class="j" d="M-3082.493,461.052l34.471-19.9v23.958l-34.471,19.9Z"/><path class="h" d="M-3068.981,457.311l5.862-3.385c.761-.439,1.377-.239,1.377.449a2.755,2.755,0,0,1-1.378,2.039l-5.862,3.385c-.761.439-1.378.238-1.378-.449A2.763,2.763,0,0,1-3068.981,457.311Z"/><path class="h" d="M-3083.286,430.794l34.471-19.9.793.458-.794,23.5.793.458-34.471,19.9-.793-.458Z"/><path class="j" d="M-3082.493,431.252l34.471-19.9v23.958l-34.471,19.9Z"/><path class="h" d="M-3068.981,427.511l5.862-3.384c.761-.44,1.377-.239,1.377.448a2.755,2.755,0,0,1-1.378,2.039l-5.862,3.385c-.761.439-1.378.238-1.378-.448A2.764,2.764,0,0,1-3068.981,427.511Z"/><path class="h" d="M-3086.8,425.041l-30.162-17.414V342.945l30.162,17.414Z"/><path class="i" d="M-3086.8,360.359l43.089-24.877v64.681l-43.089,24.877Z"/><path class="j" d="M-3043.713,335.482l-43.089,24.877-30.162-17.414,43.089-24.877Z"/><path class="h" d="M-3082.493,362.847l34.471-19.9.793.458v23.958l-34.471,19.9-.793-.458Z"/><path class="h" d="M-3068.188,359.564l5.862-3.385c.761-.439,1.377-.238,1.377.449a2.756,2.756,0,0,1-1.377,2.039l-5.863,3.385c-.761.439-1.378.238-1.378-.449A2.763,2.763,0,0,1-3068.188,359.564Z"/><path class="h" d="M-3083.286,393.162l34.471-19.9v23.958l.793.458-34.471,19.9-.793-.458Z"/><path class="j" d="M-3082.493,393.62l34.471-19.9v23.958l-34.471,19.9Z"/><path class="h" d="M-3068.981,389.879l5.862-3.384c.761-.44,1.377-.239,1.377.448a2.758,2.758,0,0,1-1.378,2.04l-5.862,3.384c-.761.439-1.378.239-1.378-.448A2.766,2.766,0,0,1-3068.981,389.879Z"/><path class="h" d="M-3082.493,362.846l34.471-19.9V366.9l-34.471,19.9Z"/><path class="h" d="M-3030.786,354.781l-18.869-10.891V365l18.869,10.891Z"/><path class="d" d="M-3069.566,390.211V360.359l7.4-4.285,1.221,1.8,21.544-12.439V372.8Z"/><g class="k"><path class="f" d="M-3069.566,390.211V360.359l7.4-4.285,1.221,1.8,21.544-12.439V372.8Z"/></g><path class="d" d="M-3069.566,390.211l2.154-26.121,30.163-17.414L-3039.4,372.8Z"/><path class="i" d="M-3065.258,374.683l-16.445-9.494v21.107l16.445,9.495Z"/><path class="j" d="M-3065.258,372.8l34.471-19.9v23.958l-34.471,19.9Z"/><path class="h" d="M-3051.746,369.056l5.862-3.384c.761-.44,1.378-.239,1.378.448a2.761,2.761,0,0,1-1.378,2.04l-5.863,3.384c-.761.439-1.378.239-1.377-.448A2.761,2.761,0,0,1-3051.746,369.056Z"/><path class="h" d="M-3065.258,372.8l-1.149-.663v23.957l1.149.663Z"/><path class="i" d="M-3066.406,372.134l34.471-19.9,1.149.663-34.471,19.9Z"/><path class="l" d="M-2777.356,200.04l-4.481-2.607L-3010.479,329.44V520.622a3.361,3.361,0,0,0,1.394,3.09h0l.006,0h0l4.479,2.606h0a3.359,3.359,0,0,0,3.381-.334l219.085-126.49a10.562,10.562,0,0,0,4.779-8.277Z"/><g class="m"><path class="v" d="M -3003.353271484375 526.0888671875 C -3003.353271484375 526.0888671875 -3003.353271484375 526.0888671875 -3003.353271484375 526.0888671875 C -3004.663818359375 526.0887451171875 -3005.4462890625 525.0196533203125 -3005.4462890625 523.22900390625 L -3005.4462890625 332.3656311035156 L -2777.90771484375 200.9958190917969 L -2777.90673828125 391.2210083007813 C -2777.90673828125 392.5994873046875 -2778.37744140625 394.174072265625 -2779.232421875 395.6547241210938 C -2780.08740234375 397.1355895996094 -2781.2158203125 398.3307495117188 -2782.409912109375 399.0200805664063 L -3001.494873046875 525.5100708007813 C -3002.15087890625 525.8887329101563 -3002.79345703125 526.0888671875 -3003.353271484375 526.0888671875 Z"/><path class="w" d="M -3003.35302734375 525.5369873046875 C -3002.889892578125 525.5369873046875 -3002.3427734375 525.3624267578125 -3001.770751953125 525.0321655273438 L -2782.685791015625 398.5421447753906 C -2780.39453125 397.2195129394531 -2778.458740234375 393.8668212890625 -2778.458740234375 391.2210083007813 L -2778.459716796875 201.9516143798828 L -3004.894287109375 332.6842041015625 L -3004.894287109375 523.22900390625 C -3004.894287109375 523.9229125976563 -3004.744140625 525.536865234375 -3003.353271484375 525.5369873046875 L -3003.35302734375 525.5369873046875 M -3003.353515625 526.6406860351563 C -3004.92138671875 526.6405639648438 -3005.998046875 525.390380859375 -3005.998046875 523.22900390625 L -3005.998046875 332.0469970703125 L -2777.35595703125 200.0400085449219 L -2777.35498046875 391.2210083007813 C -2777.35498046875 394.2680053710938 -2779.493896484375 397.9739990234375 -2782.134033203125 399.4979858398438 L -3001.218994140625 525.9879760742188 C -3001.986328125 526.4309692382813 -3002.7109375 526.6407470703125 -3003.353515625 526.6406860351563 Z"/></g><path class="d" d="M-3006,332.047v20.693l228.641-132.006,0-20.694Z"/><path class="n" d="M-2862.535,257.333v4.454c0,.911.646,1.283,1.434.828l70.3-40.585v-7.766l-70.3,40.586A3.179,3.179,0,0,0-2862.535,257.333Z"/><path class="j" d="M-2783.271,209.915c.791-.457,1.433-.087,1.433.828V215.2a3.17,3.17,0,0,1-1.433,2.483l-7.533,4.35v-7.766Z"/><path class="n" d="M-2783.829,216.022l-.84-.262a4.643,4.643,0,0,0,.135-1.082,1.981,1.981,0,0,0-.766-1.795,1.188,1.188,0,0,0-1.225.06,4.3,4.3,0,0,0-1.679,3.494,1.978,1.978,0,0,0,.766,1.794,1.057,1.057,0,0,0,.533.143,1.4,1.4,0,0,0,.692-.2,3.539,3.539,0,0,0,1.357-1.817l.842.263a.333.333,0,0,0,.093.014.313.313,0,0,0,.3-.219A.312.312,0,0,0-2783.829,216.022Zm-2.7,1.61a.576.576,0,0,1-.6.059,1.457,1.457,0,0,1-.455-1.254,3.745,3.745,0,0,1,1.368-2.955.779.779,0,0,1,.377-.119.444.444,0,0,1,.224.06,1.459,1.459,0,0,1,.454,1.255A3.745,3.745,0,0,1-2786.525,217.632Z"/><path class="h" d="M-2783.192,184.359a3.316,3.316,0,0,0-3.424.3L-3005.7,311.15a10.562,10.562,0,0,0-4.779,8.278V329.44l4.481,2.607,228.642-132.007V190.028a3.36,3.36,0,0,0-1.384-3.08C-2779.544,186.477-2782.415,184.836-2783.192,184.359Z"/><path class="i" d="M-3006,322.035a10.563,10.563,0,0,1,4.779-8.278l219.084-126.488c2.639-1.524,4.779-.289,4.779,2.759V200.04L-3006,332.047Z"/><path class="j" d="M-2778.693,186.975a3.314,3.314,0,0,0-3.443.3l-219.08,126.482a9.748,9.748,0,0,0-3.378,3.565l-4.492-2.594a9.81,9.81,0,0,1,3.389-3.576l219.08-126.492a3.319,3.319,0,0,1,3.421-.3c.784.474,3.654,2.119,4.459,2.582C-2778.726,186.953-2778.7,186.964-2778.693,186.975Z"/><path class="d" d="M-2804.254,205.2a4.955,4.955,0,0,0-2.241,3.883c0,1.43,1,2.01,2.241,1.295a4.956,4.956,0,0,0,2.242-3.883C-2802.012,205.068-2803.016,204.488-2804.254,205.2Z"/><path class="d" d="M-2796.409,200.685a4.955,4.955,0,0,0-2.242,3.883c0,1.43,1,2.01,2.242,1.3a4.955,4.955,0,0,0,2.242-3.883C-2794.167,200.55-2795.171,199.97-2796.409,200.685Z"/><path class="d" d="M-2788.564,196.167a4.955,4.955,0,0,0-2.242,3.883c0,1.43,1,2.009,2.242,1.295a4.956,4.956,0,0,0,2.241-3.883C-2786.323,196.032-2787.326,195.452-2788.564,196.167Z"/><g class="o"><path class="v" d="M -3003.353271484375 526.0888671875 C -3003.353271484375 526.0888671875 -3003.353271484375 526.0888671875 -3003.353271484375 526.0888671875 C -3004.663818359375 526.0887451171875 -3005.4462890625 525.0196533203125 -3005.4462890625 523.22900390625 L -3005.4462890625 353.0576171875 L -2961.71484375 327.809814453125 L -2961.71484375 502.5434265136719 L -3001.494873046875 525.5100708007813 C -3002.150634765625 525.888671875 -3002.79345703125 526.0888671875 -3003.353271484375 526.0888671875 Z"/><path class="w" d="M -3003.353271484375 525.5369873046875 C -3002.89013671875 525.5369873046875 -3002.343017578125 525.3624267578125 -3001.770751953125 525.0321655273438 L -2962.266845703125 502.2247924804688 L -2962.266845703125 328.7655944824219 L -3004.894287109375 353.376220703125 L -3004.894287109375 523.22900390625 C -3004.894287109375 523.9229125976563 -3004.744140625 525.536865234375 -3003.353271484375 525.5369873046875 L -3003.353271484375 525.5369873046875 M -3003.353515625 526.6406860351563 C -3004.92138671875 526.6405639648438 -3005.998046875 525.390380859375 -3005.998046875 523.22900390625 L -3005.998046875 352.739013671875 L -2961.1630859375 326.85400390625 L -2961.1630859375 502.8619995117188 L -3001.218994140625 525.9879760742188 C -3001.986328125 526.4309692382813 -3002.7109375 526.6407470703125 -3003.353515625 526.6406860351563 Z"/></g><path class="c" d="M-2991.113,354.5l21.448-12.4c.792-.458,1.433-.088,1.433.827V344.8a3.169,3.169,0,0,1-1.434,2.484l-21.449,12.4c-.791.457-1.433.087-1.432-.827v-1.866A3.17,3.17,0,0,1-2991.113,354.5Z"/><path class="d" d="M-2997.031,359.573v1.866a3.168,3.168,0,0,1-1.433,2.483l-1.616.933c-.791.457-1.433.086-1.433-.828v-1.866a3.165,3.165,0,0,1,1.433-2.483l1.616-.933C-2997.673,358.288-2997.031,358.659-2997.031,359.573Z"/><path class="c" d="M-2991.113,364.816l21.448-12.4c.792-.458,1.433-.088,1.433.827v1.865a3.169,3.169,0,0,1-1.434,2.484l-21.449,12.4c-.791.457-1.433.087-1.432-.827V367.3A3.172,3.172,0,0,1-2991.113,364.816Z"/><path class="d" d="M-2997.031,369.888v1.866a3.168,3.168,0,0,1-1.433,2.483l-1.616.933c-.791.457-1.433.086-1.433-.828v-1.866a3.165,3.165,0,0,1,1.433-2.483l1.616-.933C-2997.673,368.6-2997.031,368.974-2997.031,369.888Z"/><path class="c" d="M-2991.113,375.131l21.448-12.4c.792-.458,1.433-.087,1.433.827v1.866a3.172,3.172,0,0,1-1.434,2.484l-21.449,12.4c-.791.458-1.433.087-1.432-.827v-1.866A3.172,3.172,0,0,1-2991.113,375.131Z"/><path class="d" d="M-2997.031,380.2v1.866a3.168,3.168,0,0,1-1.433,2.483l-1.616.933c-.791.457-1.433.087-1.433-.828v-1.866a3.165,3.165,0,0,1,1.433-2.483l1.616-.932C-2997.673,378.918-2997.031,379.289-2997.031,380.2Z"/><path class="c" d="M-2991.113,409.336l21.448-12.4c.792-.458,1.433-.087,1.433.827v1.866a3.172,3.172,0,0,1-1.434,2.484l-21.449,12.4c-.791.458-1.433.087-1.432-.827V411.82A3.172,3.172,0,0,1-2991.113,409.336Z"/><path class="d" d="M-2997.031,414.408v1.866a3.169,3.169,0,0,1-1.433,2.484l-1.616.932c-.791.457-1.433.087-1.433-.828V417a3.165,3.165,0,0,1,1.433-2.484l1.616-.932C-2997.673,413.123-2997.031,413.494-2997.031,414.408Z"/><path class="c" d="M-2991.113,418.472l21.448-12.4c.792-.458,1.433-.087,1.433.827v1.866a3.172,3.172,0,0,1-1.434,2.484l-21.449,12.4c-.791.458-1.433.087-1.432-.827v-1.866A3.172,3.172,0,0,1-2991.113,418.472Z"/><path class="d" d="M-2997.031,423.544v1.866a3.168,3.168,0,0,1-1.433,2.483l-1.616.933c-.791.457-1.433.087-1.433-.828v-1.866a3.165,3.165,0,0,1,1.433-2.483l1.616-.932C-2997.673,422.259-2997.031,422.63-2997.031,423.544Z"/><path class="c" d="M-2991.113,427.608l21.448-12.4c.792-.458,1.433-.087,1.433.827V417.9a3.172,3.172,0,0,1-1.434,2.484l-21.449,12.4c-.791.458-1.433.087-1.432-.827v-1.866A3.172,3.172,0,0,1-2991.113,427.608Z"/><path class="d" d="M-2997.031,432.68v1.866a3.169,3.169,0,0,1-1.433,2.484l-1.616.932c-.791.457-1.433.087-1.433-.828v-1.866a3.165,3.165,0,0,1,1.433-2.483l1.616-.932C-2997.673,431.395-2997.031,431.766-2997.031,432.68Z"/><path class="d" d="M-2992.547,386.39v3.218l2.787-3.218Z"/><path class="c" d="M-2988.063,385.727c0,.6.428.834.956.53l17.919-10.318a2.1,2.1,0,0,0,.956-1.647c0-.606-.428-.849-.956-.545l-17.92,10.346A2.093,2.093,0,0,0-2988.063,385.727Z"/><path class="d" d="M-2992.547,391.565v3.218l2.787-3.218Z"/><path class="c" d="M-2988.063,390.9c0,.6.428.835.956.53l17.919-10.318a2.1,2.1,0,0,0,.956-1.647c0-.605-.428-.849-.956-.544l-17.92,10.346A2.09,2.09,0,0,0-2988.063,390.9Z"/><path class="d" d="M-2992.547,396.74v3.218l2.787-3.218Z"/><path class="c" d="M-2988.063,396.077c0,.6.428.835.956.53l17.919-10.318a2.1,2.1,0,0,0,.956-1.647c0-.605-.428-.849-.956-.544l-17.92,10.346A2.093,2.093,0,0,0-2988.063,396.077Z"/><path class="d" d="M-2992.547,401.915v3.218l2.787-3.218Z"/><path class="c" d="M-2988.063,401.252c0,.6.428.835.956.531l17.919-10.318a2.1,2.1,0,0,0,.956-1.648c0-.6-.428-.849-.956-.544l-17.92,10.346A2.093,2.093,0,0,0-2988.063,401.252Z"/><path class="d" d="M-2947.714,333.023V360c0,1.129.792,1.586,1.769,1.022l29.66-17.125a3.912,3.912,0,0,0,1.77-3.065V318.646c0-1.128-.793-1.586-1.77-1.022l-17.211,9.937c-.977.564-1.77.107-1.769-1.022v-.7c0-1.128-.793-1.585-1.77-1.021l-8.91,5.145A3.91,3.91,0,0,0-2947.714,333.023Z"/><path class="c" d="M-2941.885,365.085v1.727c0,.847.594,1.19,1.327.767l22.249-12.846a2.932,2.932,0,0,0,1.327-2.3v-1.727c0-.847-.594-1.19-1.328-.767l-22.248,12.845A2.934,2.934,0,0,0-2941.885,365.085Z"/><path class="d" d="M-2906.478,309.344v26.973c0,1.129.792,1.586,1.77,1.022l29.66-17.125a3.912,3.912,0,0,0,1.769-3.065V294.967c0-1.129-.792-1.586-1.769-1.022l-17.212,9.937c-.977.564-1.769.107-1.769-1.022v-.7c0-1.128-.792-1.586-1.769-1.021l-8.911,5.145A3.91,3.91,0,0,0-2906.478,309.344Z"/><path class="c" d="M-2900.648,341.406v1.727c0,.847.594,1.19,1.327.767l22.248-12.846a2.932,2.932,0,0,0,1.327-2.3v-1.728c0-.846-.594-1.189-1.327-.766l-22.248,12.845A2.933,2.933,0,0,0-2900.648,341.406Z"/><path class="d" d="M-2947.714,387.212v26.973c0,1.129.792,1.586,1.769,1.022l29.66-17.125a3.914,3.914,0,0,0,1.77-3.065V372.835c0-1.129-.793-1.586-1.77-1.022l-17.211,9.937c-.977.564-1.77.107-1.769-1.022v-.7c0-1.128-.793-1.586-1.77-1.021l-8.91,5.145A3.91,3.91,0,0,0-2947.714,387.212Z"/><path class="c" d="M-2941.885,419.274V421c0,.847.594,1.19,1.327.767l22.249-12.846a2.932,2.932,0,0,0,1.327-2.3V404.9c0-.847-.594-1.19-1.328-.767l-22.248,12.845A2.933,2.933,0,0,0-2941.885,419.274Z"/><path class="d" d="M-2906.478,363.533v26.973c0,1.129.792,1.586,1.77,1.022l29.66-17.125a3.912,3.912,0,0,0,1.769-3.065V349.156c0-1.129-.792-1.586-1.769-1.022l-17.212,9.937c-.977.564-1.769.107-1.769-1.022v-.705c0-1.128-.792-1.586-1.769-1.021l-8.911,5.144A3.914,3.914,0,0,0-2906.478,363.533Z"/><path class="c" d="M-2900.648,395.6v1.727c0,.847.594,1.19,1.327.766l22.248-12.845a2.933,2.933,0,0,0,1.327-2.3v-1.727c0-.846-.594-1.189-1.327-.766l-22.248,12.845A2.933,2.933,0,0,0-2900.648,395.6Z"/><path class="d" d="M-2864.759,284.363v26.974c0,1.128.793,1.585,1.77,1.021l29.66-17.125a3.911,3.911,0,0,0,1.77-3.065V269.986c0-1.128-.793-1.586-1.77-1.021l-17.211,9.936c-.978.565-1.77.107-1.77-1.021v-.705c0-1.129-.792-1.586-1.769-1.022l-8.91,5.145A3.913,3.913,0,0,0-2864.759,284.363Z"/><path class="c" d="M-2859.412,317.727v1.727c0,.846.594,1.189,1.327.766l22.249-12.845a2.933,2.933,0,0,0,1.327-2.3v-1.727c0-.846-.594-1.189-1.327-.766l-22.249,12.845A2.932,2.932,0,0,0-2859.412,317.727Z"/><path class="d" d="M-2824,261.985v26.974c0,1.128.792,1.586,1.77,1.021l29.66-17.124a3.914,3.914,0,0,0,1.769-3.066V247.608c0-1.128-.792-1.586-1.769-1.021l-17.212,9.937c-.977.564-1.769.106-1.769-1.022V254.8c0-1.129-.792-1.586-1.769-1.022l-8.91,5.145A3.911,3.911,0,0,0-2824,261.985Z"/><path class="c" d="M-2818.175,294.047v1.728c0,.846.594,1.189,1.327.766L-2794.6,283.7a2.934,2.934,0,0,0,1.327-2.3V279.67c0-.846-.594-1.189-1.327-.766l-22.248,12.845A2.932,2.932,0,0,0-2818.175,294.047Z"/><path class="c" d="M-2859.412,371.895v1.727c0,.847.594,1.19,1.327.766l22.249-12.845a2.933,2.933,0,0,0,1.327-2.3v-1.727c0-.846-.594-1.189-1.327-.766l-22.249,12.845A2.932,2.932,0,0,0-2859.412,371.895Z"/><path class="p" d="M-2858.854,333.985l23.076-13.322c1.055-.61,1.911-.116,1.911,1.1v26.642a4.227,4.227,0,0,1-1.911,3.311l-23.076,13.323c-1.056.609-1.912.115-1.912-1.1V337.3A4.225,4.225,0,0,1-2858.854,333.985Z"/><path class="d" d="M-2833.064,324.26l-5.143,2.97a4.225,4.225,0,0,0-1.911,3.311v5.939c0,1.219.855,1.713,1.911,1.1l5.143-2.97a4.226,4.226,0,0,0,1.912-3.311v-5.939C-2831.152,324.145-2832.008,323.651-2833.064,324.26Z"/><path class="q" d="M-2857.095,336.862l11.559-6.651c.529-.3.957-.056.957.554v.368a2.11,2.11,0,0,1-.956,1.654l-11.56,6.663c-.529.3-.957.057-.956-.552v-.382A2.109,2.109,0,0,1-2857.095,336.862Z"/><path class="q" d="M-2857.095,342.032l11.559-6.651c.529-.3.957-.056.957.554v.368a2.113,2.113,0,0,1-.956,1.655l-11.56,6.662c-.529.3-.957.058-.956-.552v-.381A2.11,2.11,0,0,1-2857.095,342.032Z"/><path class="q" d="M-2857.095,347.2l11.559-6.651c.529-.3.957-.057.957.553v.368a2.113,2.113,0,0,1-.956,1.655l-11.56,6.663c-.529.3-.957.057-.956-.553v-.381A2.108,2.108,0,0,1-2857.095,347.2Z"/><path class="q" d="M-2857.095,352.373l19.205-11.071c.528-.3.956-.057.956.553v.368a2.111,2.111,0,0,1-.956,1.655l-19.205,11.083c-.529.3-.957.057-.956-.553v-.381A2.108,2.108,0,0,1-2857.095,352.373Z"/><path class="q" d="M-2857.095,357.543l19.205-11.071c.528-.3.956-.057.956.553v.368a2.112,2.112,0,0,1-.956,1.655l-19.205,11.083c-.529.3-.957.057-.956-.553V359.2A2.108,2.108,0,0,1-2857.095,357.543Z"/><path class="c" d="M-2819.063,348.6v1.727c0,.847.594,1.19,1.327.767l22.248-12.846a2.932,2.932,0,0,0,1.327-2.3v-1.727c0-.847-.594-1.19-1.327-.767l-22.248,12.845A2.933,2.933,0,0,0-2819.063,348.6Z"/><path class="p" d="M-2818.506,310.691l23.076-13.322c1.056-.61,1.912-.116,1.912,1.1v26.642a4.226,4.226,0,0,1-1.912,3.311l-23.076,13.323c-1.055.609-1.911.115-1.911-1.1V314A4.228,4.228,0,0,1-2818.506,310.691Z"/><path class="d" d="M-2792.715,300.967l-5.143,2.969a4.226,4.226,0,0,0-1.912,3.311v5.939c0,1.219.856,1.713,1.912,1.1l5.143-2.97a4.225,4.225,0,0,0,1.911-3.311V302.07C-2790.8,300.851-2791.659,300.357-2792.715,300.967Z"/><path class="q" d="M-2816.746,313.568l11.559-6.651c.528-.3.956-.056.956.554v.368a2.113,2.113,0,0,1-.956,1.655l-11.56,6.662c-.528.3-.956.058-.956-.552v-.381A2.111,2.111,0,0,1-2816.746,313.568Z"/><path class="q" d="M-2816.746,318.739l11.559-6.651c.528-.3.956-.057.956.553v.368a2.113,2.113,0,0,1-.956,1.655l-11.56,6.663c-.528.3-.956.057-.956-.553v-.381A2.109,2.109,0,0,1-2816.746,318.739Z"/><path class="q" d="M-2816.746,323.909l11.559-6.651c.528-.3.956-.057.956.553v.368a2.111,2.111,0,0,1-.956,1.655l-11.56,6.663c-.528.3-.956.057-.956-.553v-.381A2.109,2.109,0,0,1-2816.746,323.909Z"/><path class="q" d="M-2816.746,329.079l19.2-11.071c.528-.3.957-.057.957.553v.368a2.11,2.11,0,0,1-.957,1.655l-19.205,11.083c-.528.3-.956.057-.956-.553v-.381A2.109,2.109,0,0,1-2816.746,329.079Z"/><path class="q" d="M-2816.746,334.249l19.2-11.071c.528-.3.957-.056.957.553v.368a2.108,2.108,0,0,1-.957,1.655l-19.205,11.083c-.528.3-.956.057-.956-.553V335.9A2.111,2.111,0,0,1-2816.746,334.249Z"/><path class="c" d="M-2859.412,426.879v1.727c0,.847.594,1.19,1.327.767l22.249-12.846a2.932,2.932,0,0,0,1.327-2.3V412.5c0-.846-.594-1.189-1.327-.766l-22.249,12.845A2.932,2.932,0,0,0-2859.412,426.879Z"/><path class="p" d="M-2858.854,388.969l23.076-13.322c1.055-.61,1.911-.116,1.911,1.1v26.642a4.227,4.227,0,0,1-1.911,3.311l-23.076,13.323c-1.056.609-1.912.115-1.912-1.1V392.28A4.225,4.225,0,0,1-2858.854,388.969Z"/><path class="d" d="M-2833.064,379.244l-5.143,2.97a4.225,4.225,0,0,0-1.911,3.311v5.939c0,1.219.855,1.713,1.911,1.1l5.143-2.969a4.226,4.226,0,0,0,1.912-3.311v-5.939C-2831.152,379.129-2832.008,378.635-2833.064,379.244Z"/><path class="q" d="M-2857.095,391.846l11.559-6.651c.529-.3.957-.056.957.554v.368a2.11,2.11,0,0,1-.956,1.654l-11.56,6.663c-.529.305-.957.057-.956-.552V393.5A2.109,2.109,0,0,1-2857.095,391.846Z"/><path class="q" d="M-2857.095,397.016l11.559-6.651c.529-.3.957-.056.957.554v.368a2.113,2.113,0,0,1-.956,1.655l-11.56,6.663c-.529.3-.957.056-.956-.553v-.381A2.11,2.11,0,0,1-2857.095,397.016Z"/><path class="q" d="M-2857.095,402.187l11.559-6.651c.529-.3.957-.057.957.553v.368a2.113,2.113,0,0,1-.956,1.655l-11.56,6.663c-.529.3-.957.057-.956-.553v-.381A2.108,2.108,0,0,1-2857.095,402.187Z"/><path class="q" d="M-2857.095,407.357l19.205-11.071c.528-.3.956-.057.956.553v.368a2.112,2.112,0,0,1-.956,1.655l-19.205,11.083c-.529.3-.957.057-.956-.553v-.381A2.108,2.108,0,0,1-2857.095,407.357Z"/><path class="q" d="M-2857.095,412.527l19.205-11.071c.528-.3.956-.057.956.553v.368a2.11,2.11,0,0,1-.956,1.655l-19.205,11.083c-.529.3-.957.057-.956-.553v-.381A2.108,2.108,0,0,1-2857.095,412.527Z"/><path class="c" d="M-2819.063,403.585v1.727c0,.847.594,1.19,1.327.767l22.248-12.846a2.932,2.932,0,0,0,1.327-2.3v-1.727c0-.847-.594-1.19-1.327-.767l-22.248,12.845A2.933,2.933,0,0,0-2819.063,403.585Z"/><path class="p" d="M-2818.506,365.675l23.076-13.322c1.056-.61,1.912-.116,1.912,1.1V380.1a4.226,4.226,0,0,1-1.912,3.311l-23.076,13.323c-1.055.61-1.911.115-1.911-1.1V368.986A4.228,4.228,0,0,1-2818.506,365.675Z"/><path class="d" d="M-2792.715,355.951l-5.143,2.969a4.226,4.226,0,0,0-1.912,3.311v5.939c0,1.219.856,1.713,1.912,1.1l5.143-2.97a4.225,4.225,0,0,0,1.911-3.311v-5.939C-2790.8,355.835-2791.659,355.341-2792.715,355.951Z"/><path class="q" d="M-2816.746,368.552l11.559-6.651c.528-.3.956-.056.956.554v.368a2.113,2.113,0,0,1-.956,1.655l-11.56,6.663c-.528.3-.956.056-.956-.553v-.381A2.111,2.111,0,0,1-2816.746,368.552Z"/><path class="q" d="M-2816.746,373.723l11.559-6.651c.528-.3.956-.057.956.553v.368a2.111,2.111,0,0,1-.956,1.655l-11.56,6.663c-.528.3-.956.057-.956-.553v-.381A2.109,2.109,0,0,1-2816.746,373.723Z"/><path class="q" d="M-2816.746,378.893l11.559-6.651c.528-.3.956-.057.956.553v.368a2.11,2.11,0,0,1-.956,1.655l-11.56,6.663c-.528.3-.956.057-.956-.553v-.381A2.109,2.109,0,0,1-2816.746,378.893Z"/><path class="q" d="M-2816.746,384.063l19.2-11.071c.528-.3.957-.057.957.553v.368a2.108,2.108,0,0,1-.957,1.655l-19.205,11.083c-.528.3-.956.057-.956-.553v-.381A2.109,2.109,0,0,1-2816.746,384.063Z"/><path class="q" d="M-2816.746,389.233l19.2-11.071c.528-.3.957-.056.957.553v.368a2.108,2.108,0,0,1-.957,1.655l-19.205,11.083c-.528.3-.956.057-.956-.553v-.381A2.111,2.111,0,0,1-2816.746,389.233Z"/><path class="c" d="M-2941.878,474.522v1.727c0,.847.594,1.19,1.327.766l22.248-12.845a2.933,2.933,0,0,0,1.327-2.3v-1.727c0-.846-.594-1.189-1.327-.766l-22.248,12.845A2.933,2.933,0,0,0-2941.878,474.522Z"/><path class="p" d="M-2941.32,436.612l23.075-13.322c1.056-.61,1.912-.116,1.912,1.1v26.642a4.226,4.226,0,0,1-1.912,3.311l-23.076,13.323c-1.055.609-1.911.115-1.911-1.1V439.923A4.224,4.224,0,0,1-2941.32,436.612Z"/><path class="d" d="M-2915.53,426.887l-5.143,2.97a4.226,4.226,0,0,0-1.912,3.311v5.939c0,1.219.856,1.713,1.912,1.1l5.143-2.97a4.226,4.226,0,0,0,1.912-3.311v-5.939C-2913.618,426.772-2914.474,426.278-2915.53,426.887Z"/><path class="q" d="M-2939.561,439.489l11.559-6.651c.528-.3.956-.056.956.554v.368a2.11,2.11,0,0,1-.956,1.654l-11.56,6.663c-.528.3-.956.057-.956-.552v-.382A2.11,2.11,0,0,1-2939.561,439.489Z"/><path class="q" d="M-2939.561,444.659l11.559-6.651c.528-.3.956-.056.956.554v.368a2.113,2.113,0,0,1-.956,1.655l-11.56,6.662c-.528.3-.956.057-.956-.552v-.381A2.111,2.111,0,0,1-2939.561,444.659Z"/><path class="q" d="M-2939.561,449.83l11.559-6.651c.528-.3.956-.057.956.553v.368a2.113,2.113,0,0,1-.956,1.655l-11.56,6.663c-.528.3-.956.057-.956-.553v-.381A2.109,2.109,0,0,1-2939.561,449.83Z"/><path class="q" d="M-2939.561,455l19.2-11.071c.529-.3.957-.057.957.553v.368a2.111,2.111,0,0,1-.956,1.655l-19.206,11.083c-.528.3-.956.057-.956-.553v-.381A2.109,2.109,0,0,1-2939.561,455Z"/><path class="q" d="M-2939.561,460.17l19.2-11.071c.529-.3.957-.057.957.553v.368a2.111,2.111,0,0,1-.956,1.655l-19.206,11.083c-.528.3-.956.057-.956-.553v-.381A2.109,2.109,0,0,1-2939.561,460.17Z"/><path class="c" d="M-2901.53,451.228v1.727c0,.847.594,1.19,1.327.767l22.249-12.846a2.935,2.935,0,0,0,1.327-2.3V436.85c0-.846-.595-1.189-1.327-.766l-22.249,12.845A2.932,2.932,0,0,0-2901.53,451.228Z"/><path class="p" d="M-2900.972,413.318-2877.9,400c1.055-.61,1.911-.116,1.911,1.1v26.642a4.228,4.228,0,0,1-1.911,3.311l-23.076,13.323c-1.056.609-1.912.115-1.912-1.1V416.629A4.226,4.226,0,0,1-2900.972,413.318Z"/><path class="d" d="M-2875.182,403.594l-5.143,2.969a4.226,4.226,0,0,0-1.912,3.311v5.939c0,1.219.856,1.713,1.912,1.1l5.143-2.97a4.226,4.226,0,0,0,1.912-3.311V404.7C-2873.27,403.478-2874.126,402.984-2875.182,403.594Z"/><path class="q" d="M-2899.213,416.2l11.559-6.651c.528-.3.957-.056.957.554v.368a2.113,2.113,0,0,1-.956,1.655l-11.56,6.662c-.529.305-.957.057-.956-.552v-.381A2.11,2.11,0,0,1-2899.213,416.2Z"/><path class="q" d="M-2899.213,421.366l11.559-6.651c.528-.3.957-.057.957.553v.368a2.113,2.113,0,0,1-.956,1.655l-11.56,6.663c-.529.3-.957.057-.956-.553v-.381A2.108,2.108,0,0,1-2899.213,421.366Z"/><path class="q" d="M-2899.213,426.536l11.559-6.651c.528-.3.957-.057.957.553v.368a2.111,2.111,0,0,1-.956,1.655l-11.56,6.663c-.529.3-.957.057-.956-.553v-.381A2.108,2.108,0,0,1-2899.213,426.536Z"/><path class="q" d="M-2899.213,431.706l19.2-11.071c.528-.3.956-.057.956.553v.368a2.11,2.11,0,0,1-.956,1.655l-19.2,11.083c-.529.3-.957.057-.956-.553v-.381A2.108,2.108,0,0,1-2899.213,431.706Z"/><path class="q" d="M-2899.213,436.876l19.2-11.071c.528-.3.956-.056.956.553v.368a2.11,2.11,0,0,1-.956,1.655l-19.2,11.083c-.529.3-.957.057-.956-.553v-.381A2.109,2.109,0,0,1-2899.213,436.876Z"/><path class="d" d="M-3006,332.047l-4.481-2.607v20.712l4.481,2.588Z"/><path class="r" d="M-3006,332.047l-4.481-2.607v20.712l4.481,2.588Z"/><path class="d" d="M-2741.2,417.656h0a3.154,3.154,0,0,0-3.175.307,9.922,9.922,0,0,0-4.507,7.766,3.155,3.155,0,0,0,1.308,2.91h0l55.866,35.333,0-.006c1.144.767,2.777.727,4.6-.319a13.872,13.872,0,0,0,6.3-10.856c0-2.1-.77-3.537-2-4.15l.008-.014Z"/><path class="s" d="M-2748.883,425.73c-.007,2.863,2,4.028,4.484,2.6a9.924,9.924,0,0,0,4.507-7.767c.006-2.863-2-4.028-4.484-2.6A9.922,9.922,0,0,0-2748.883,425.73Z"/><path class="h" d="M-2761.246,410.225a6,6,0,0,0-2.725,4.7,1.907,1.907,0,0,0,.791,1.759v0l16.865,9.788v0a1.907,1.907,0,0,0,1.92-.186,6,6,0,0,0,2.726-4.7,1.908,1.908,0,0,0-.792-1.759l-16.864-9.788h0A1.91,1.91,0,0,0-2761.246,410.225Z"/><path class="r" d="M-2742.288,426.507l57.475,35.313a10.9,10.9,0,0,1-2.3,1.827c-1.818,1.043-3.452,1.089-4.6.314l0,.009-55.86-35.327a3.153,3.153,0,0,0,3.175-.31A8.268,8.268,0,0,0-2742.288,426.507Z"/><path class="d" d="M-2732.645,376.224c-.012-.474-.035-.936-.069-1.4s-.058-.913-.1-1.364c-.023-.3-.058-.6-.093-.9-.081-.786-.2-1.56-.323-2.3-.058-.335-.116-.682-.185-1.017s-.127-.635-.2-.947c-.2-.855-.4-1.687-.646-2.484-.128-.381-.243-.763-.37-1.133a1.035,1.035,0,0,1-.058-.173c-.139-.37-.266-.728-.405-1.074-.161-.4-.323-.809-.508-1.19-.127-.289-.254-.566-.4-.844a4.18,4.18,0,0,0-.3-.6c-.116-.243-.243-.486-.382-.717-.034-.058-.058-.115-.092-.162-.116-.208-.243-.416-.37-.623-.081-.139-.173-.266-.254-.393a21.1,21.1,0,0,0-1.987-2.646c-.127-.139-.255-.277-.37-.416-.1-.116-.208-.22-.312-.324-.127-.138-.266-.265-.4-.4a12.846,12.846,0,0,0-1.2-1.074c-.2-.174-.4-.335-.612-.486s-.416-.312-.636-.462a10.91,10.91,0,0,0-1.028-.67l-.277-.173-.058-.046h-.012l-12.171-7.051h-.024l-.092-.058a20.537,20.537,0,0,0-10.283-2.6c-5.361,0-11.415,1.756-17.827,5.453-22.021,12.721-39.883,43.65-39.883,69.091,0,12.686,4.436,21.6,11.611,25.788l.069.034v.012l12.184,7.039c0,.011,0,.011.011.011l.07.047v-.012c.069.035.127.069.2.1a10.565,10.565,0,0,0,.947.5c.393.2.8.37,1.2.531.358.151.728.289,1.1.4a5.633,5.633,0,0,0,.589.173,3.982,3.982,0,0,0,.635.185c.22.069.428.115.647.162a3.649,3.649,0,0,0,.474.1c.277.057.578.115.866.15a.6.6,0,0,0,.2.034c.346.058.693.105,1.04.139,5.939.624,12.848-1.051,20.242-5.315,22.033-12.72,39.895-43.661,39.895-69.09C-2732.61,377.425-2732.622,376.824-2732.645,376.224Zm-26.724-17.989a35.511,35.511,0,0,1,1.26,9.705c0,22.437-16.418,50.87-35.851,62.089a34.664,34.664,0,0,1-9.093,3.778,36.012,36.012,0,0,1-1.259-9.717c0-22.437,16.417-50.87,35.851-62.089A34.563,34.563,0,0,1-2759.369,358.235Z"/><path class="r" d="M-2801.273,449.6l-11.7-6.777c-7.175-4.194-11.612-13.114-11.612-25.776,0-11.346,3.559-23.778,9.44-35.193l12.181,7.047c-5.892,11.415-9.439,23.846-9.439,35.192C-2812.4,436.5-2808.182,445.3-2801.273,449.6Z"/><path class="t" d="M-2732.645,376.224c-.012-.474-.035-.936-.069-1.4s-.058-.913-.1-1.364c-.023-.3-.058-.6-.093-.9-.081-.786-.2-1.56-.323-2.3-.058-.335-.116-.682-.185-1.017s-.127-.635-.2-.947c-.2-.855-.4-1.687-.646-2.484-.128-.381-.243-.763-.37-1.133a1.035,1.035,0,0,1-.058-.173c-.139-.37-.266-.728-.405-1.074-.161-.4-.323-.809-.508-1.19-.127-.289-.254-.566-.4-.844a4.18,4.18,0,0,0-.3-.6c-.116-.243-.243-.486-.382-.717-.034-.058-.058-.115-.092-.162-.116-.208-.243-.416-.37-.623-.081-.139-.173-.266-.254-.393a21.1,21.1,0,0,0-1.987-2.646c-.127-.139-.255-.277-.37-.416-.1-.116-.208-.22-.312-.324-.127-.138-.266-.265-.4-.4a12.846,12.846,0,0,0-1.2-1.074c-.2-.174-.4-.335-.612-.486s-.416-.312-.636-.462a10.91,10.91,0,0,0-1.028-.67c-7.244-4.4-17.622-4.308-28.549,2.577-21.859,13.772-39.787,44.3-39.9,69.09-.056,12.883,4.575,21.883,11.958,25.973a10.565,10.565,0,0,0,.947.5c.393.2.8.37,1.2.531.358.151.728.289,1.1.4a5.633,5.633,0,0,0,.589.173,3.982,3.982,0,0,0,.635.185c.22.069.428.115.647.162a3.649,3.649,0,0,0,.474.1c.277.057.578.115.866.15a.6.6,0,0,0,.2.034c.346.058.693.105,1.04.139,5.939.624,12.848-1.051,20.242-5.315,22.033-12.72,39.895-43.661,39.895-69.09C-2732.61,377.425-2732.622,376.824-2732.645,376.224Zm-43.9,63.9c-4.945,2.854-9.7,4.356-13.772,4.356-7.637,0-11.149-5.211-12.732-10.676a36.012,36.012,0,0,1-1.259-9.717c0-22.437,16.417-50.87,35.851-62.089a34.563,34.563,0,0,1,9.092-3.766,20.111,20.111,0,0,1,4.68-.59c12.628,0,13.98,14.258,13.98,20.393C-2740.709,400.475-2757.116,428.908-2776.549,440.127Z"/><path class="r" d="M-2740.713,378.038c0,22.434-16.4,50.872-35.839,62.084-4.945,2.855-9.7,4.359-13.765,4.359a11.705,11.705,0,0,1-9.385-4.111l-.013,0c-.2-.236-.387-.473-.576-.718s-.36-.5-.52-.766c-.123-.18-.237-.369-.341-.558-.075-.123-.151-.246-.217-.369-.085-.151-.161-.3-.246-.463-.076-.142-.142-.284-.208-.425s-.142-.293-.208-.445c-.113-.264-.227-.52-.331-.794-.132-.331-.255-.662-.368-1s-.227-.681-.322-1.021a34.646,34.646,0,0,0,9.095-3.782c19.428-11.212,35.849-39.649,35.849-62.084a35.635,35.635,0,0,0-1.257-9.709,20.345,20.345,0,0,1,4.68-.586,14.334,14.334,0,0,1,1.843.114c.2.018.388.056.577.085l.006.007C-2741.9,359.569-2740.713,372.321-2740.713,378.038Z"/><path class="u" d="M-2747.69,374.124c0,22.434-16.4,50.872-35.839,62.084-4.945,2.855-9.7,4.359-13.775,4.359a14.026,14.026,0,0,1-2.411-.2c-.2-.236-.387-.473-.576-.718s-.36-.5-.52-.766c-.123-.18-.237-.369-.341-.558-.075-.123-.151-.246-.217-.369-.085-.151-.161-.3-.246-.463-.076-.142-.142-.284-.208-.425s-.142-.293-.208-.445c-.113-.264-.227-.52-.331-.794-.132-.331-.255-.662-.368-1s-.227-.681-.322-1.021a34.646,34.646,0,0,0,9.095-3.782c19.428-11.212,35.849-39.649,35.849-62.084a35.635,35.635,0,0,0-1.257-9.709,20.345,20.345,0,0,1,4.68-.586,14.334,14.334,0,0,1,1.843.114c.2.018.388.056.577.085C-2748.276,362.543-2747.69,370.087-2747.69,374.124Z"/></g></g></svg>