<svg xmlns="http://www.w3.org/2000/svg" width="706.672" height="435.353" viewBox="0 0 706.672 435.353"><defs><style>.a{fill:#f2f5fa;}.b{fill:#27deff;}.c,.d,.e,.f,.h,.m{fill:#00004c;}.c{opacity:0.4;}.c,.d,.e,.f,.l,.m,.q{isolation:isolate;}.d{opacity:0.2;}.e{opacity:0.3;}.f,.l{opacity:0.1;}.g,.q{opacity:0.5;}.i{fill:#455ab0;}.j{fill:#263284;}.k{fill:#37479b;}.l,.n,.q{fill:#fff;}.m{opacity:0.15;}.o{opacity:0.35;}.p{fill:#fafaff;}.r{fill:#f5f5ff;}</style></defs><g transform="translate(-607 -124)"><path class="a" d="M1074.459,121.477a69.13,69.13,0,0,0-27.57,6.1c-16.907,8-26.4,26.409-44.829,31.788l4.008-.28c-7.524,2.411-16.666,3.416-27.006,3.427-24.945.026-56.884-5.732-90.065-11.489s-67.6-11.512-97.485-11.481c-53.283.054-92.187,18.5-84.091,88.092C710.4,252,726.132,286.4,712.9,309.168c-9.588,17.048-27.184,27.05-44.183,33.693-44.4,18.106-60.91,52.018-49.61,100.384,16.507,71.168,72.855,94.206,134.593,94.142,51.318-.054,79.779,24.107,128.23,18.636,46.106-5.47,82.011-18.6,120.13-18.636,29.123-.03,60.18-5.732,87.618,4.778,43.473,17.308,78.634,3.318,124.318,3.271a99.839,99.839,0,0,0,20.505-2.216c51.63-10.418,59.371-59.18,44.245-104.549-8.6-28.071-14.76-39.929,2.2-67.049,14.291-26.934,39.473-47.357,41.379-78.894.389-34.157-15.343-68.559-45.73-81.464-24.863-10.558-47.384-6.261-71.974-12.743-46.778-13.094-79.317-77.1-130.166-77.044" transform="translate(-8.664 2.523)"/><g transform="translate(0.126 -8.461)"><path class="b" d="M914.862,250.309v-4.016h0V215.63l-3.539-1.97v34.68L814.36,304.414v4.091l96.963-56.146v77.9l3.539,1.968V250.31Z"/><path class="c" d="M914.862,250.309v-4.016h0V215.63l-3.539-1.97v34.68L814.36,304.414v4.091l96.963-56.146v77.9l3.539,1.968V250.31Z"/><path class="b" d="M810.817,271.854v4.017h0v116.6l3.545-2.11v-77.91l100.5-58.189v77.967l3.542-1.968V209.642Zm104.041-21.546-100.5,58.19v-27.29l100.5-57.883Z"/><path class="d" d="M810.817,271.854v4.017h0v116.6l3.545-2.11v-77.91l100.5-58.189v77.967l3.542-1.968V209.642Zm104.041-21.546-100.5,58.19v-27.29l100.5-57.883Z"/><path class="b" d="M1113.345,365.152v-4.016h0V330.471l-3.539-1.97v34.68l-96.965,56.071v4.091L1109.8,367.2v77.9l3.539,1.968V365.152Z"/><path class="c" d="M1113.345,365.152v-4.016h0V330.471l-3.539-1.97v34.68l-96.965,56.071v4.091L1109.8,367.2v77.9l3.539,1.968V365.152Z"/><path class="b" d="M810.817,272.14v-.286l-.252.14-3.288-1.9v120.33l3.54,2.044V284.312L1005.76,396.53V505.265l3.54,2.044V386.681Z"/><path class="e" d="M810.817,272.14v-.286l-.252.14-3.288-1.9v120.33l3.54,2.044V284.312L1005.76,396.53V505.265l3.54,2.044V386.681Z"/><path class="b" d="M1009.3,386.694V507.309l3.545-2.109V427.294l100.5-58.189v77.967l3.542-1.968V324.482Zm3.545,36.643V396.046l100.5-57.882v26.984Z"/><path class="d" d="M1009.3,386.694V507.309l3.545-2.109V427.294l100.5-58.189v77.967l3.542-1.968V324.482Zm3.545,36.643V396.046l100.5-57.882v26.984Z"/><path class="b" d="M1009.3,386.7l107.584-62.212L914.859,207.889,807.277,270.1Z"/><path class="f" d="M1009.3,386.7l107.584-62.212L914.859,207.889,807.277,270.1Z"/><path class="d" d="M858.244,260.546l41.908-23.9a3.553,3.553,0,0,1,3.2.009l42.2,24.365a.974.974,0,0,1,0,1.845L903.816,287a3.517,3.517,0,0,1-3.19,0l-42.39-24.6a.97.97,0,0,1,.008-1.851Z"/><path class="d" d="M835.658,276.255l30.5,17.609a7.533,7.533,0,0,0,6.82,0l7.961-4.622c1.884-1.088,1.884-2.85,0-3.937l-30.5-17.611a7.539,7.539,0,0,0-6.82,0l-7.961,4.623C833.771,273.406,833.771,275.168,835.658,276.255Z"/><path class="b" d="M896.642,230.624c-.275-1.615-1.419-2.39-2.825-3.025-.129-.058-.294-.048-.392-.1s-.09-.134-.155-.2a6.4,6.4,0,0,0-3.646-1.67,7.848,7.848,0,0,0-.894-.047,8.137,8.137,0,0,0-4.758-1.291,4.733,4.733,0,0,0-1.885.581,2.3,2.3,0,0,0-.256-.145,4.614,4.614,0,0,0-4.68.431,2.79,2.79,0,0,0-.754-.277,4.274,4.274,0,0,0-2.112.3,6.762,6.762,0,0,0-1.865,1.118,6.264,6.264,0,0,0-.884,1.045,4,4,0,0,0-.477-.007,5.011,5.011,0,0,0-3.3,2.1c-.084.108-.128.223-.207.333a4.638,4.638,0,0,0-3.025,1.022,4.936,4.936,0,0,0-1.483,2.567c0,.011-.02.009-.031.014a4.886,4.886,0,0,0-2.548,3.354,5.374,5.374,0,0,0,.136,2.171,4.847,4.847,0,0,0-2.164,2.882,2.77,2.77,0,0,0,.225,1.668,6.316,6.316,0,0,0-1.228.841,3.534,3.534,0,0,0-.745,1.066,5.929,5.929,0,0,0-1.512.27,4.051,4.051,0,0,0-.631.3,5.226,5.226,0,0,0-4.634.2,5.558,5.558,0,0,0-3.939-.089,6.023,6.023,0,0,0-3.509-.794,5.607,5.607,0,0,0-1.982.727,4.841,4.841,0,0,0-2.422-.207,5.089,5.089,0,0,0-3.017,2.339,3.49,3.49,0,0,0-.248.616,3.376,3.376,0,0,0-1.213.771,4.206,4.206,0,0,0-.962,2.334,4.594,4.594,0,0,0-.032.751,3.785,3.785,0,0,0,.46,1.609c0,.007-.009.013-.012.021a3.642,3.642,0,0,0,.794,4.036,4.249,4.249,0,0,0,.874.6,2.233,2.233,0,0,0-.017.258,2.523,2.523,0,0,0,.981,1.878,3.048,3.048,0,0,0,2.782.452c.324-.092-.043-.467-.214-.5a8.652,8.652,0,0,1-1.012-.156,2.339,2.339,0,0,1-.811-.426,1.753,1.753,0,0,1-.634-1.093v-.009a8.056,8.056,0,0,0,1.391.2,3.085,3.085,0,0,0,2.473-.717.974.974,0,0,0,.006-1.309,2.007,2.007,0,0,0-1.572-.652,3.634,3.634,0,0,0-3.112,1.284,1.206,1.206,0,0,1-.206-.118,2.8,2.8,0,0,1-1.048-2.814.258.258,0,0,1,.033-.076,4.121,4.121,0,0,0,3.28,1.021,1.241,1.241,0,0,0,1.165-1.3,1.882,1.882,0,0,0-1.2-1.567,3.608,3.608,0,0,0-2.474-.136,4.553,4.553,0,0,0-.835.417,2.329,2.329,0,0,1-.179-.847,5.8,5.8,0,0,1,.091-1.184,2.178,2.178,0,0,1,.076-.319,3.246,3.246,0,0,1,1.031-1.491,3,3,0,0,0,1.155,1.973c.924.628,2.212.893,3-.134a1.453,1.453,0,0,0-.16-1.715A3.171,3.171,0,0,0,837,248.7a5.033,5.033,0,0,0-1.158-.166,4.455,4.455,0,0,1,1.709-1.759,3.581,3.581,0,0,1,2.25-.267,4.369,4.369,0,0,0-.932,1.452,1.841,1.841,0,0,0,.218,1.788,1.647,1.647,0,0,0,1.81.572,2.076,2.076,0,0,0,1.3-1.391,2.128,2.128,0,0,0-.267-1.874,3.1,3.1,0,0,0-.654-.66,4.293,4.293,0,0,1,.933-.378,4.687,4.687,0,0,1,2.992.4c-.941.749-2,1.635-1.8,2.948.221,1.43,1.641,1.475,2.7.845a2.429,2.429,0,0,0,1.081-1.694,2.487,2.487,0,0,0-.548-1.9c-.006-.01-.021-.019-.026-.027a4.642,4.642,0,0,1,2.594-.02,5.117,5.117,0,0,0-.761.71,2.539,2.539,0,0,0-.7,1.954,1.632,1.632,0,0,0,1.424,1.337,1.729,1.729,0,0,0,1.739-.735c.782-1.14.455-2.14-.295-3.195a4.731,4.731,0,0,1,.659-.272,4.179,4.179,0,0,1,2.661.029,3.131,3.131,0,0,0-.846,1.86,2.334,2.334,0,0,0,.628,1.806,1.22,1.22,0,0,0,1.575.24c1.385-1.044.878-2.415.074-3.689a1.883,1.883,0,0,0-.134-.148,4.544,4.544,0,0,1,.978-.317,2.57,2.57,0,0,1,.316-.037,2.753,2.753,0,0,0,.427,1.483,3.014,3.014,0,0,0,1.645,1.227,1.373,1.373,0,0,0,1.715-.564c.614-1.187-.517-1.92-1.437-2.412a5.1,5.1,0,0,0-1.222-.428,4.027,4.027,0,0,1,1.189-1.155,3.3,3.3,0,0,1,.3-.159,5.733,5.733,0,0,0,1.6,1.1,3.715,3.715,0,0,0,2.565.2c.593-.183,1.116-.621.872-1.281-.491-1.325-1.788-1.407-3.049-1.35a8.141,8.141,0,0,0-1.6.318,2.674,2.674,0,0,1,.264-2.357,4.346,4.346,0,0,1,1.114-1.1,5.31,5.31,0,0,0,.644.943,3.439,3.439,0,0,0,3.536,1.127,1.35,1.35,0,0,0,1.079-1.315,1.69,1.69,0,0,0-.975-1.488,5.516,5.516,0,0,0-3.727-.392,4.616,4.616,0,0,1,.206-2.666,4.275,4.275,0,0,1,1.136-1.467c.048-.045.11-.069.159-.109a2.961,2.961,0,0,0,.028.388c.44,1.542,1.17,2.6,2.907,2.575a1.654,1.654,0,0,0,1.442-1.1,1.71,1.71,0,0,0-.314-1.9,4.207,4.207,0,0,0-3.015-1.081,1.007,1.007,0,0,1,.045-.188,4.037,4.037,0,0,1,1.989-2.2,3.117,3.117,0,0,1,1.171-.238,2.966,2.966,0,0,0,.364,2.73c.717.873,2.344,1.654,2.891.136s-.769-2.739-2.062-3.4a4.715,4.715,0,0,1,1.09-1.248,3.1,3.1,0,0,1,1.623-.615,4.411,4.411,0,0,0-.241,2.206,2.562,2.562,0,0,0,1.042,1.722,2.09,2.09,0,0,0,3.114-1.51,2.3,2.3,0,0,0-.625-1.689,5,5,0,0,0-1.99-1.339,5.651,5.651,0,0,1,1.538-1.331,3.325,3.325,0,0,1,2.665-.474,5.141,5.141,0,0,0-.962,1.713,2.151,2.151,0,0,0,.524,2.111,1.4,1.4,0,0,0,1.743.329,2.007,2.007,0,0,0,.968-1.813,3.684,3.684,0,0,0-1.115-2.44,3.687,3.687,0,0,1,1.378-.638,3.93,3.93,0,0,1,2.314.35,6.743,6.743,0,0,0-.5.474c-.71.9-1.345,1.777-.8,2.931a1.855,1.855,0,0,0,1.749.986,1.916,1.916,0,0,0,1.714-1.133c.526-1.274.028-2.183-.807-3.165a.3.3,0,0,1,.076-.05,4.77,4.77,0,0,1,2.334-.347,7.3,7.3,0,0,1,2.426.678,3.655,3.655,0,0,0-1.924,1.15,2.407,2.407,0,0,0-.536,2,1.43,1.43,0,0,0,1.4,1.158,2.773,2.773,0,0,0,2.982-2.479c.106-.464-.107-.749-.212-1.165a9.145,9.145,0,0,1,1.458.276,4.655,4.655,0,0,1,1.5.778,3.1,3.1,0,0,0-1.93.852,2.138,2.138,0,0,0,.1,3.021l.063.056a1.794,1.794,0,0,0,2.529-.185,1.888,1.888,0,0,0,.139-.184,3.255,3.255,0,0,0,.564-2.587,3.184,3.184,0,0,1,.642.266,3.034,3.034,0,0,1,1.491,2.469,4.1,4.1,0,0,1-1.189,2.941c-.294.331.125.808.428.52A4.234,4.234,0,0,0,896.642,230.624Zm-60.47,27.561a2.858,2.858,0,0,1,1.381-.475,1.93,1.93,0,0,1,1.223.173.223.223,0,0,1,.094.277c-.031.12,0,.127-.163.216a1.837,1.837,0,0,1-.68.193,7.524,7.524,0,0,1-.926.02l-.191-.013a.2.2,0,0,1-.07-.006,7.207,7.207,0,0,1-.724-.128c-.041-.011-.139.023-.12-.042A.443.443,0,0,1,836.172,258.185Zm-.072-4.2a1.263,1.263,0,0,1,1.015.7c.157.413-.178.577-.562.571a3.538,3.538,0,0,1-2.29-.926,1.826,1.826,0,0,1,.587-.28,3.174,3.174,0,0,1,1.25-.07Zm1.982-3.544a.645.645,0,0,1-.225.885l0,0a1.028,1.028,0,0,1-.975,0,2.125,2.125,0,0,1-1.252-2,.52.52,0,0,1,.111-.014,2.444,2.444,0,0,1,2.345,1.125Zm3.382-2.5a1.7,1.7,0,0,1-.381,1.341.8.8,0,0,1-1.094.289.838.838,0,0,1-.079-.053,1.036,1.036,0,0,1-.239-1.193,3.544,3.544,0,0,1,.965-1.456,1.81,1.81,0,0,1,.827,1.073Zm4.4,1.452a1.345,1.345,0,0,1-1.216.521c-.355-.035-.491-.284-.458-.625a3.058,3.058,0,0,1,1.35-2.136,3.133,3.133,0,0,1,.348-.219,1.81,1.81,0,0,1,.493,1,2.087,2.087,0,0,1-.517,1.455Zm4.48-.168a1.086,1.086,0,0,1-1.151.649.848.848,0,0,1-.6-1.122,3.467,3.467,0,0,1,1.343-1.719,1.788,1.788,0,0,1,.408,2.194Zm5.007-.2a.791.791,0,0,1-.719.707c-.389.013-.548-.35-.622-.683a2.508,2.508,0,0,1,.1-1.447,2.409,2.409,0,0,1,.511-.717,2.8,2.8,0,0,1,.306.381,2.546,2.546,0,0,1,.425,1.762Zm3.294-2.389c.467.278,1.479.963.591,1.466-.41.233-.943-.129-1.264-.45a2.043,2.043,0,0,1-.566-1.2c-.012-.092.019-.2.014-.3a4.334,4.334,0,0,1,1.224.487Zm3.12-3.1a2.251,2.251,0,0,1,1.295.366c.215.147.439.474.146.691a1.887,1.887,0,0,1-1.675.052,4.971,4.971,0,0,1-1.478-.889,6.956,6.956,0,0,1,1.711-.219Zm.827-4.437a5.225,5.225,0,0,1,1.407.193c.447.128,1.015.311,1.173.751.322.9-.7,1.19-1.368,1.018a3.51,3.51,0,0,1-2.059-1.808,3.123,3.123,0,0,1,.846-.153Zm1.783-5.183c.992.089,2.152.427,2.19,1.561a1.013,1.013,0,0,1-1.651.81,2.611,2.611,0,0,1-1.007-2.342,1.976,1.976,0,0,1,.467-.028Zm4.477-2.736a2.567,2.567,0,0,1,.964,1.485c.066.384-.032.893-.511.779a1.883,1.883,0,0,1-1.4-2,3.179,3.179,0,0,1,.15-.735A3.613,3.613,0,0,1,868.852,231.18Zm5.232-1.265a1.086,1.086,0,0,1-.234,1.233c-.318.334-.772.666-1.231.368-1.022-.663-1-1.782-.763-2.881a2.362,2.362,0,0,1,.154-.4,3.241,3.241,0,0,1,2.074,1.683Zm3.776-1.206c-.108.364-.426.766-.845.538a1.4,1.4,0,0,1-.62-1.517,3.925,3.925,0,0,1,.861-1.577,2.6,2.6,0,0,1,.6,2.559Zm5.057-.743a1.474,1.474,0,0,1-1.077,1.041.926.926,0,0,1-.985-.6,1.246,1.246,0,0,1,.113-1.048,5.041,5.041,0,0,1,1.237-1.521,2.926,2.926,0,0,1,.406.434,1.9,1.9,0,0,1,.3,1.7Zm5.617.006a2.28,2.28,0,0,1-1.264,1.262c-.335.137-.9.194-1.09-.22a1.586,1.586,0,0,1,.261-1.494,2.458,2.458,0,0,1,1.142-.916,3.827,3.827,0,0,1,.863-.215,1.813,1.813,0,0,1,.087,1.591Zm3.571,2.89c-.132.06-.28.185-.4.19a.766.766,0,0,1-.346-.029c-.277-.154-.47-.271-.533-.6a1.729,1.729,0,0,1,.962-2.012,2.272,2.272,0,0,1,1.09-.166s-.031-.282.04.222-.023,2.042-.814,2.4Z"/><path class="b" d="M839.387,257.308"/><path class="b" d="M839.388,257.312"/><path class="b" d="M839.388,257.313Z"/><path class="b" d="M839.388,257.317"/><g class="g"><path class="h" d="M896.642,230.624c-.275-1.615-1.419-2.39-2.825-3.025-.129-.058-.294-.048-.392-.1s-.09-.134-.155-.2a6.4,6.4,0,0,0-3.646-1.67,7.848,7.848,0,0,0-.894-.047,8.137,8.137,0,0,0-4.758-1.291,4.733,4.733,0,0,0-1.885.581,2.3,2.3,0,0,0-.256-.145,4.614,4.614,0,0,0-4.68.431,2.79,2.79,0,0,0-.754-.277,4.274,4.274,0,0,0-2.112.3,6.762,6.762,0,0,0-1.865,1.118,6.264,6.264,0,0,0-.884,1.045,4,4,0,0,0-.477-.007,5.011,5.011,0,0,0-3.3,2.1c-.084.108-.128.223-.207.333a4.638,4.638,0,0,0-3.025,1.022,4.936,4.936,0,0,0-1.483,2.567c0,.011-.02.009-.031.014a4.886,4.886,0,0,0-2.548,3.354,5.374,5.374,0,0,0,.136,2.171,4.847,4.847,0,0,0-2.164,2.882,2.77,2.77,0,0,0,.225,1.668,6.316,6.316,0,0,0-1.228.841,3.534,3.534,0,0,0-.745,1.066,5.929,5.929,0,0,0-1.512.27,4.051,4.051,0,0,0-.631.3,5.226,5.226,0,0,0-4.634.2,5.558,5.558,0,0,0-3.939-.089,6.023,6.023,0,0,0-3.509-.794,5.607,5.607,0,0,0-1.982.727,4.841,4.841,0,0,0-2.422-.207,5.089,5.089,0,0,0-3.017,2.339,3.49,3.49,0,0,0-.248.616,3.376,3.376,0,0,0-1.213.771,4.206,4.206,0,0,0-.962,2.334,4.594,4.594,0,0,0-.032.751,3.785,3.785,0,0,0,.46,1.609c0,.007-.009.013-.012.021a3.642,3.642,0,0,0,.794,4.036,4.249,4.249,0,0,0,.874.6,2.233,2.233,0,0,0-.017.258,2.523,2.523,0,0,0,.981,1.878,3.048,3.048,0,0,0,2.782.452c.324-.092-.043-.467-.214-.5a8.652,8.652,0,0,1-1.012-.156,2.339,2.339,0,0,1-.811-.426,1.753,1.753,0,0,1-.634-1.093v-.009a8.056,8.056,0,0,0,1.391.2,3.085,3.085,0,0,0,2.473-.717.974.974,0,0,0,.006-1.309,2.007,2.007,0,0,0-1.572-.652,3.634,3.634,0,0,0-3.112,1.284,1.206,1.206,0,0,1-.206-.118,2.8,2.8,0,0,1-1.048-2.814.258.258,0,0,1,.033-.076,4.121,4.121,0,0,0,3.28,1.021,1.241,1.241,0,0,0,1.165-1.3,1.882,1.882,0,0,0-1.2-1.567,3.608,3.608,0,0,0-2.474-.136,4.553,4.553,0,0,0-.835.417,2.329,2.329,0,0,1-.179-.847,5.8,5.8,0,0,1,.091-1.184,2.178,2.178,0,0,1,.076-.319,3.246,3.246,0,0,1,1.031-1.491,3,3,0,0,0,1.155,1.973c.924.628,2.212.893,3-.134a1.453,1.453,0,0,0-.16-1.715A3.171,3.171,0,0,0,837,248.7a5.033,5.033,0,0,0-1.158-.166,4.455,4.455,0,0,1,1.709-1.759,3.581,3.581,0,0,1,2.25-.267,4.369,4.369,0,0,0-.932,1.452,1.841,1.841,0,0,0,.218,1.788,1.647,1.647,0,0,0,1.81.572,2.076,2.076,0,0,0,1.3-1.391,2.128,2.128,0,0,0-.267-1.874,3.1,3.1,0,0,0-.654-.66,4.293,4.293,0,0,1,.933-.378,4.687,4.687,0,0,1,2.992.4c-.941.749-2,1.635-1.8,2.948.221,1.43,1.641,1.475,2.7.845a2.429,2.429,0,0,0,1.081-1.694,2.487,2.487,0,0,0-.548-1.9c-.006-.01-.021-.019-.026-.027a4.642,4.642,0,0,1,2.594-.02,5.117,5.117,0,0,0-.761.71,2.539,2.539,0,0,0-.7,1.954,1.632,1.632,0,0,0,1.424,1.337,1.729,1.729,0,0,0,1.739-.735c.782-1.14.455-2.14-.295-3.195a4.731,4.731,0,0,1,.659-.272,4.179,4.179,0,0,1,2.661.029,3.131,3.131,0,0,0-.846,1.86,2.334,2.334,0,0,0,.628,1.806,1.22,1.22,0,0,0,1.575.24c1.385-1.044.878-2.415.074-3.689a1.883,1.883,0,0,0-.134-.148,4.544,4.544,0,0,1,.978-.317,2.57,2.57,0,0,1,.316-.037,2.753,2.753,0,0,0,.427,1.483,3.014,3.014,0,0,0,1.645,1.227,1.373,1.373,0,0,0,1.715-.564c.614-1.187-.517-1.92-1.437-2.412a5.1,5.1,0,0,0-1.222-.428,4.027,4.027,0,0,1,1.189-1.155,3.3,3.3,0,0,1,.3-.159,5.733,5.733,0,0,0,1.6,1.1,3.715,3.715,0,0,0,2.565.2c.593-.183,1.116-.621.872-1.281-.491-1.325-1.788-1.407-3.049-1.35a8.141,8.141,0,0,0-1.6.318,2.674,2.674,0,0,1,.264-2.357,4.346,4.346,0,0,1,1.114-1.1,5.31,5.31,0,0,0,.644.943,3.439,3.439,0,0,0,3.536,1.127,1.35,1.35,0,0,0,1.079-1.315,1.69,1.69,0,0,0-.975-1.488,5.516,5.516,0,0,0-3.727-.392,4.616,4.616,0,0,1,.206-2.666,4.275,4.275,0,0,1,1.136-1.467c.048-.045.11-.069.159-.109a2.961,2.961,0,0,0,.028.388c.44,1.542,1.17,2.6,2.907,2.575a1.654,1.654,0,0,0,1.442-1.1,1.71,1.71,0,0,0-.314-1.9,4.207,4.207,0,0,0-3.015-1.081,1.007,1.007,0,0,1,.045-.188,4.037,4.037,0,0,1,1.989-2.2,3.117,3.117,0,0,1,1.171-.238,2.966,2.966,0,0,0,.364,2.73c.717.873,2.344,1.654,2.891.136s-.769-2.739-2.062-3.4a4.715,4.715,0,0,1,1.09-1.248,3.1,3.1,0,0,1,1.623-.615,4.411,4.411,0,0,0-.241,2.206,2.562,2.562,0,0,0,1.042,1.722,2.09,2.09,0,0,0,3.114-1.51,2.3,2.3,0,0,0-.625-1.689,5,5,0,0,0-1.99-1.339,5.651,5.651,0,0,1,1.538-1.331,3.325,3.325,0,0,1,2.665-.474,5.141,5.141,0,0,0-.962,1.713,2.151,2.151,0,0,0,.524,2.111,1.4,1.4,0,0,0,1.743.329,2.007,2.007,0,0,0,.968-1.813,3.684,3.684,0,0,0-1.115-2.44,3.687,3.687,0,0,1,1.378-.638,3.93,3.93,0,0,1,2.314.35,6.743,6.743,0,0,0-.5.474c-.71.9-1.345,1.777-.8,2.931a1.855,1.855,0,0,0,1.749.986,1.916,1.916,0,0,0,1.714-1.133c.526-1.274.028-2.183-.807-3.165a.3.3,0,0,1,.076-.05,4.77,4.77,0,0,1,2.334-.347,7.3,7.3,0,0,1,2.426.678,3.655,3.655,0,0,0-1.924,1.15,2.407,2.407,0,0,0-.536,2,1.43,1.43,0,0,0,1.4,1.158,2.773,2.773,0,0,0,2.982-2.479c.106-.464-.107-.749-.212-1.165a9.145,9.145,0,0,1,1.458.276,4.655,4.655,0,0,1,1.5.778,3.1,3.1,0,0,0-1.93.852,2.138,2.138,0,0,0,.1,3.021l.063.056a1.794,1.794,0,0,0,2.529-.185,1.888,1.888,0,0,0,.139-.184,3.255,3.255,0,0,0,.564-2.587,3.184,3.184,0,0,1,.642.266,3.034,3.034,0,0,1,1.491,2.469,4.1,4.1,0,0,1-1.189,2.941c-.294.331.125.808.428.52A4.234,4.234,0,0,0,896.642,230.624Zm-60.47,27.561a2.858,2.858,0,0,1,1.381-.475,1.93,1.93,0,0,1,1.223.173.223.223,0,0,1,.094.277c-.031.12,0,.127-.163.216a1.837,1.837,0,0,1-.68.193,7.524,7.524,0,0,1-.926.02l-.191-.013a.2.2,0,0,1-.07-.006,7.207,7.207,0,0,1-.724-.128c-.041-.011-.139.023-.12-.042A.443.443,0,0,1,836.172,258.185Zm-.072-4.2a1.263,1.263,0,0,1,1.015.7c.157.413-.178.577-.562.571a3.538,3.538,0,0,1-2.29-.926,1.826,1.826,0,0,1,.587-.28,3.174,3.174,0,0,1,1.25-.07Zm1.982-3.544a.645.645,0,0,1-.225.885l0,0a1.028,1.028,0,0,1-.975,0,2.125,2.125,0,0,1-1.252-2,.52.52,0,0,1,.111-.014,2.444,2.444,0,0,1,2.345,1.125Zm3.382-2.5a1.7,1.7,0,0,1-.381,1.341.8.8,0,0,1-1.094.289.838.838,0,0,1-.079-.053,1.036,1.036,0,0,1-.239-1.193,3.544,3.544,0,0,1,.965-1.456,1.81,1.81,0,0,1,.827,1.073Zm4.4,1.452a1.345,1.345,0,0,1-1.216.521c-.355-.035-.491-.284-.458-.625a3.058,3.058,0,0,1,1.35-2.136,3.133,3.133,0,0,1,.348-.219,1.81,1.81,0,0,1,.493,1,2.087,2.087,0,0,1-.517,1.455Zm4.48-.168a1.086,1.086,0,0,1-1.151.649.848.848,0,0,1-.6-1.122,3.467,3.467,0,0,1,1.343-1.719,1.788,1.788,0,0,1,.408,2.194Zm5.007-.2a.791.791,0,0,1-.719.707c-.389.013-.548-.35-.622-.683a2.508,2.508,0,0,1,.1-1.447,2.409,2.409,0,0,1,.511-.717,2.8,2.8,0,0,1,.306.381,2.546,2.546,0,0,1,.425,1.762Zm3.294-2.389c.467.278,1.479.963.591,1.466-.41.233-.943-.129-1.264-.45a2.043,2.043,0,0,1-.566-1.2c-.012-.092.019-.2.014-.3a4.334,4.334,0,0,1,1.224.487Zm3.12-3.1a2.251,2.251,0,0,1,1.295.366c.215.147.439.474.146.691a1.887,1.887,0,0,1-1.675.052,4.971,4.971,0,0,1-1.478-.889,6.956,6.956,0,0,1,1.711-.219Zm.827-4.437a5.225,5.225,0,0,1,1.407.193c.447.128,1.015.311,1.173.751.322.9-.7,1.19-1.368,1.018a3.51,3.51,0,0,1-2.059-1.808,3.123,3.123,0,0,1,.846-.153Zm1.783-5.183c.992.089,2.152.427,2.19,1.561a1.013,1.013,0,0,1-1.651.81,2.611,2.611,0,0,1-1.007-2.342,1.976,1.976,0,0,1,.467-.028Zm4.477-2.736a2.567,2.567,0,0,1,.964,1.485c.066.384-.032.893-.511.779a1.883,1.883,0,0,1-1.4-2,3.179,3.179,0,0,1,.15-.735A3.613,3.613,0,0,1,868.852,231.18Zm5.232-1.265a1.086,1.086,0,0,1-.234,1.233c-.318.334-.772.666-1.231.368-1.022-.663-1-1.782-.763-2.881a2.362,2.362,0,0,1,.154-.4,3.241,3.241,0,0,1,2.074,1.683Zm3.776-1.206c-.108.364-.426.766-.845.538a1.4,1.4,0,0,1-.62-1.517,3.925,3.925,0,0,1,.861-1.577,2.6,2.6,0,0,1,.6,2.559Zm5.057-.743a1.474,1.474,0,0,1-1.077,1.041.926.926,0,0,1-.985-.6,1.246,1.246,0,0,1,.113-1.048,5.041,5.041,0,0,1,1.237-1.521,2.926,2.926,0,0,1,.406.434,1.9,1.9,0,0,1,.3,1.7Zm5.617.006a2.28,2.28,0,0,1-1.264,1.262c-.335.137-.9.194-1.09-.22a1.586,1.586,0,0,1,.261-1.494,2.458,2.458,0,0,1,1.142-.916,3.827,3.827,0,0,1,.863-.215,1.813,1.813,0,0,1,.087,1.591Zm3.571,2.89c-.132.06-.28.185-.4.19a.766.766,0,0,1-.346-.029c-.277-.154-.47-.271-.533-.6a1.729,1.729,0,0,1,.962-2.012,2.272,2.272,0,0,1,1.09-.166s-.031-.282.04.222-.023,2.042-.814,2.4Z"/><path class="h" d="M839.387,257.308"/><path class="h" d="M839.388,257.312"/><path class="h" d="M839.388,257.313Z"/><path class="h" d="M839.388,257.317"/></g><path class="i" d="M859.112,252.457l41.278-23.832,14.862,8.581-41.286,23.838Z"/><path class="j" d="M871.6,257.838l-7.916-4.57a.654.654,0,0,1,0-1.238l7.971-4.6a2.355,2.355,0,0,1,2.142.005l7.867,4.592a.658.658,0,0,1,0,1.244l-7.916,4.57A2.371,2.371,0,0,1,871.6,257.838Z"/><path class="k" d="M871.652,248.979l-7.7,4.446,7.643,4.413a2.371,2.371,0,0,0,2.145,0l7.651-4.418-7.6-4.435A2.355,2.355,0,0,0,871.652,248.979Z"/><path class="j" d="M899.766,241.575,891.85,237a.653.653,0,0,1,0-1.238l7.97-4.6a2.355,2.355,0,0,1,2.142.005l7.867,4.591a.657.657,0,0,1,0,1.244l-7.916,4.571A2.372,2.372,0,0,1,899.766,241.575Z"/><path class="k" d="M901.911,241.574l7.652-4.418-7.6-4.436a2.358,2.358,0,0,0-2.142,0l-7.7,4.445,7.644,4.414A2.369,2.369,0,0,0,901.911,241.574Z"/><path class="j" d="M860.756,257.228v2.734a1.872,1.872,0,0,0,.937,1.622l39.392,22.758a1.876,1.876,0,0,0,1.873,0l37.764-21.8a1.875,1.875,0,0,0,.937-1.623v-2.73l-38.7,22.341a1.878,1.878,0,0,1-1.874,0Z"/><path class="i" d="M943.307,245.789v7.629l-41.285,23.837-28.076-16.209h0l26.421-15.256,14.864-16.209Z"/><path class="k" d="M928.451,262l-26.43,15.259-42.909-24.8v2.731a1.873,1.873,0,0,0,.937,1.623l41.035,23.716a1.878,1.878,0,0,0,1.874,0l39.412-22.754a1.876,1.876,0,0,0,.936-1.623v-10.36Z"/><path class="j" d="M901.845,277.152l-42.733-24.7v2.731a1.873,1.873,0,0,0,.937,1.623l41.035,23.716a1.86,1.86,0,0,0,.761.24Z"/><path class="h" d="M901.084,280.527l-40.33-23.3v2.734a1.872,1.872,0,0,0,.937,1.622l39.392,22.758a1.853,1.853,0,0,0,.763.239v-3.814A1.868,1.868,0,0,1,901.084,280.527Z"/><path class="l" d="M943.307,245.789l-28.055-15.062-14.885,15.062,14.864-16.209Z"/><path class="l" d="M928.447,262l-21.9-12.642,22.463,12.029Z"/><path class="j" d="M900.368,245.789l-26.4,15.253-.528-.307Z"/><path class="b" d="M932.03,250.906l-20.125-11.617,4.868-5.322h0l20.064,11.584Z"/><path class="m" d="M936.385,246.053l.451-.5-20.064-11.584-4.867,5.322.6.349,4.411-4.822Z"/><path class="m" d="M916.92,234.815l-.148-.848-4.867,5.322.6.349Z"/><path class="n" d="M914.2,250.494l-6.914-4.017,1.176-1.276,6.889,4a.388.388,0,0,1,.17.522.393.393,0,0,1-.07.1l-.493.551A.634.634,0,0,1,914.2,250.494Z"/><path class="b" d="M908.945,244.952a.252.252,0,0,0-.127-.163l-1.187-.675a.413.413,0,0,0-.483.076l-1.03,1.124a.245.245,0,0,0-.067.219c.014.065.088.386.1.459a.254.254,0,0,0,.127.161l1.187.675a.41.41,0,0,0,.483-.076l1.03-1.123a.245.245,0,0,0,.066-.223C909.034,245.346,908.962,245.025,908.945,244.952Z"/><path class="m" d="M907.76,246.858a.382.382,0,0,0,.191-.106l1.03-1.123a.245.245,0,0,0,.066-.223c-.014-.064-.087-.38-.1-.454a.252.252,0,0,0-.127-.163l-1.187-.675a.406.406,0,0,0-.265-.037Z"/><path class="e" d="M907.366,244.075a.391.391,0,0,0-.218.113l-1.03,1.124a.24.24,0,0,0-.067.219c.014.065.088.386.1.459a.254.254,0,0,0,.127.161l1.187.675a.4.4,0,0,0,.292.03Z"/><path class="b" d="M907.847,246.3l1.03-1.124a.238.238,0,0,0,.006-.337.244.244,0,0,0-.066-.048l-1.187-.675a.413.413,0,0,0-.483.076l-1.03,1.124a.238.238,0,0,0-.006.337.248.248,0,0,0,.067.048l1.187.674A.41.41,0,0,0,907.847,246.3Z"/><path class="n" d="M916.937,247.5l-6.914-4.016,1.177-1.277,6.889,4a.387.387,0,0,1,.171.52.4.4,0,0,1-.071.1l-.493.551A.632.632,0,0,1,916.937,247.5Z"/><path class="b" d="M911.685,241.954a.247.247,0,0,0-.127-.162l-1.187-.675a.41.41,0,0,0-.483.076l-1.03,1.123a.243.243,0,0,0-.067.22c.014.065.088.385.1.458a.259.259,0,0,0,.127.162l1.187.675a.413.413,0,0,0,.483-.076l1.03-1.124a.245.245,0,0,0,.066-.223C911.774,242.349,911.7,242.031,911.685,241.954Z"/><path class="m" d="M910.5,243.865a.4.4,0,0,0,.192-.106l1.03-1.124a.245.245,0,0,0,.066-.223c-.014-.063-.088-.38-.1-.454a.247.247,0,0,0-.127-.162l-1.187-.675a.4.4,0,0,0-.265-.038Z"/><path class="e" d="M910.106,241.082a.4.4,0,0,0-.218.114l-1.03,1.123a.243.243,0,0,0-.067.22c.014.065.088.385.1.458a.259.259,0,0,0,.127.162l1.187.675a.4.4,0,0,0,.291.03Z"/><path class="b" d="M910.587,243.3l1.03-1.123a.238.238,0,0,0,.006-.337.244.244,0,0,0-.066-.048l-1.187-.675a.41.41,0,0,0-.483.076l-1.03,1.123a.238.238,0,0,0-.006.337.264.264,0,0,0,.067.048l1.187.675A.408.408,0,0,0,910.587,243.3Z"/><path class="n" d="M925.707,257.132l-6.914-4.017,1.179-1.272,6.889,4a.387.387,0,0,1,.172.52.413.413,0,0,1-.072.1l-.491.551A.635.635,0,0,1,925.707,257.132Z"/><path class="b" d="M920.455,251.59a.256.256,0,0,0-.128-.163l-1.187-.675a.412.412,0,0,0-.482.076l-1.031,1.124a.252.252,0,0,0-.067.219c.014.065.089.386.1.459a.254.254,0,0,0,.127.161l1.188.675a.408.408,0,0,0,.482-.076l1.03-1.123a.248.248,0,0,0,.067-.223C920.543,251.98,920.471,251.663,920.455,251.59Z"/><path class="m" d="M919.269,253.5a.382.382,0,0,0,.191-.106l1.03-1.123a.248.248,0,0,0,.067-.223c-.015-.064-.088-.38-.1-.454a.256.256,0,0,0-.128-.163l-1.187-.675a.406.406,0,0,0-.265-.037Z"/><path class="e" d="M918.875,250.713a.385.385,0,0,0-.217.113l-1.031,1.124a.249.249,0,0,0-.067.219c.014.065.089.386.1.459a.254.254,0,0,0,.127.161l1.188.675a.4.4,0,0,0,.291.03Z"/><path class="b" d="M919.356,252.934l1.03-1.123a.239.239,0,0,0,.006-.337.266.266,0,0,0-.067-.048l-1.187-.675a.412.412,0,0,0-.482.076l-1.031,1.124a.238.238,0,0,0-.006.337.248.248,0,0,0,.067.048l1.187.674A.41.41,0,0,0,919.356,252.934Z"/><path class="n" d="M928.448,254.139l-6.914-4.016,1.176-1.277,6.889,4a.385.385,0,0,1,.172.518.374.374,0,0,1-.072.1l-.493.551A.631.631,0,0,1,928.448,254.139Z"/><path class="b" d="M923.2,248.6a.251.251,0,0,0-.128-.163l-1.187-.675a.41.41,0,0,0-.483.076l-1.03,1.123a.248.248,0,0,0-.067.22c.014.065.089.385.1.458a.258.258,0,0,0,.127.162l1.187.675a.413.413,0,0,0,.483-.076l1.03-1.124a.249.249,0,0,0,.067-.223C923.283,248.987,923.211,248.669,923.2,248.6Z"/><path class="m" d="M922.01,250.5a.38.38,0,0,0,.191-.1l1.03-1.124a.248.248,0,0,0,.067-.223c-.015-.063-.088-.38-.1-.453a.251.251,0,0,0-.128-.163l-1.187-.675a.4.4,0,0,0-.265-.038Z"/><path class="e" d="M921.615,247.72a.4.4,0,0,0-.218.114l-1.03,1.123a.248.248,0,0,0-.067.22c.014.065.089.385.1.458a.258.258,0,0,0,.127.162l1.187.675a.4.4,0,0,0,.292.029Z"/><path class="b" d="M922.1,249.941l1.03-1.123a.239.239,0,0,0,.006-.337.265.265,0,0,0-.067-.048l-1.187-.675a.41.41,0,0,0-.483.076l-1.03,1.123a.238.238,0,0,0-.006.337.248.248,0,0,0,.067.048l1.187.675A.41.41,0,0,0,922.1,249.941Z"/><path class="b" d="M900.856,248.942l-2.453,1.416a.626.626,0,0,0,0,1.186l1.084.626a2.271,2.271,0,0,0,2.056,0L904,250.757a.625.625,0,0,0,0-1.185l-1.092-.629A2.271,2.271,0,0,0,900.856,248.942Z"/><path class="b" d="M904.239,250.571a.962.962,0,0,1-.237.184l-2.463,1.411a2.269,2.269,0,0,1-2.052,0l-1.086-.628a1.289,1.289,0,0,1-.237-.178.621.621,0,0,1-.189-.386v.795a.72.72,0,0,0,.426.594l1.086.623a2.26,2.26,0,0,0,2.052.005l2.456-1.418a.73.73,0,0,0,.427-.593v-.818A.584.584,0,0,1,904.239,250.571Z"/><path class="b" d="M907.847,252.96l-2.453,1.416a.626.626,0,0,0,0,1.186l1.084.626a2.277,2.277,0,0,0,2.056,0l2.458-1.413a.625.625,0,0,0,0-1.185l-1.092-.629A2.271,2.271,0,0,0,907.847,252.96Z"/><path class="b" d="M911.228,254.593a.988.988,0,0,1-.237.184l-2.456,1.411a2.269,2.269,0,0,1-2.052,0l-1.085-.628a1.288,1.288,0,0,1-.237-.178.627.627,0,0,1-.19-.386v.795a.718.718,0,0,0,.427.593l1.085.623a2.256,2.256,0,0,0,2.052.006l2.452-1.42a.727.727,0,0,0,.426-.593v-.818A.589.589,0,0,1,911.228,254.593Z"/><path class="b" d="M913.291,256.114l-2.453,1.416a.626.626,0,0,0,0,1.186l1.084.626a2.277,2.277,0,0,0,2.056,0l2.457-1.413a.625.625,0,0,0,0-1.185l-1.092-.63A2.269,2.269,0,0,0,913.291,256.114Z"/><path class="b" d="M916.672,257.745a.964.964,0,0,1-.237.185l-2.456,1.411a2.275,2.275,0,0,1-2.052,0l-1.086-.629a1.242,1.242,0,0,1-.237-.177.621.621,0,0,1-.189-.386v.8a.722.722,0,0,0,.426.593l1.086.623a2.256,2.256,0,0,0,2.052.006l2.456-1.418a.73.73,0,0,0,.427-.593v-.819A.582.582,0,0,1,916.672,257.745Z"/><path class="b" d="M918.67,259.259l-2.454,1.416a.626.626,0,0,0,0,1.186l1.084.625a2.279,2.279,0,0,0,2.057,0l2.457-1.413a.625.625,0,0,0,0-1.185l-1.091-.63A2.268,2.268,0,0,0,918.67,259.259Z"/><path class="b" d="M922.051,260.89a.992.992,0,0,1-.238.184l-2.455,1.412a2.275,2.275,0,0,1-2.052,0l-1.085-.629a1.318,1.318,0,0,1-.237-.177.627.627,0,0,1-.19-.386v.795a.718.718,0,0,0,.427.593l1.085.623a2.253,2.253,0,0,0,2.052.005l2.455-1.418a.724.724,0,0,0,.427-.593v-.818A.587.587,0,0,1,922.051,260.89Z"/><path class="b" d="M895.052,252.29l-2.454,1.416a.626.626,0,0,0,0,1.186l1.083.626a2.279,2.279,0,0,0,2.057,0L898.2,254.1a.625.625,0,0,0,0-1.185l-1.091-.63A2.269,2.269,0,0,0,895.052,252.29Z"/><path class="b" d="M898.433,253.921a.994.994,0,0,1-.238.185l-2.455,1.411a2.275,2.275,0,0,1-2.052,0l-1.085-.629a1.315,1.315,0,0,1-.237-.177.626.626,0,0,1-.19-.386v.795a.716.716,0,0,0,.427.593l1.085.623a2.257,2.257,0,0,0,2.052.006l2.455-1.418a.728.728,0,0,0,.427-.593v-.819A.587.587,0,0,1,898.433,253.921Z"/><path class="b" d="M902.042,256.314l-2.453,1.416a.626.626,0,0,0,0,1.186l1.084.626a2.279,2.279,0,0,0,2.057,0l2.457-1.414a.625.625,0,0,0,0-1.185l-1.091-.63A2.27,2.27,0,0,0,902.042,256.314Z"/><path class="b" d="M905.423,257.942a.96.96,0,0,1-.237.184l-2.455,1.412a2.275,2.275,0,0,1-2.052,0l-1.087-.63a1.373,1.373,0,0,1-.238-.177.62.62,0,0,1-.189-.386v.8a.718.718,0,0,0,.427.593l1.086.623a2.256,2.256,0,0,0,2.052.006l2.455-1.418a.727.727,0,0,0,.427-.594v-.818A.579.579,0,0,1,905.423,257.942Z"/><path class="b" d="M907.486,259.464l-2.453,1.416a.626.626,0,0,0,0,1.186l1.084.625a2.273,2.273,0,0,0,2.057,0l2.457-1.415a.624.624,0,0,0,0-1.184l-1.091-.63A2.27,2.27,0,0,0,907.486,259.464Z"/><path class="b" d="M910.863,261.1a.99.99,0,0,1-.238.184l-2.455,1.412a2.275,2.275,0,0,1-2.052,0l-1.086-.629a1.321,1.321,0,0,1-.237-.177.627.627,0,0,1-.19-.386v.8a.718.718,0,0,0,.427.593l1.086.623a2.254,2.254,0,0,0,2.052.005l2.455-1.418a.725.725,0,0,0,.427-.593v-.818A.586.586,0,0,1,910.863,261.1Z"/><path class="b" d="M912.866,262.608l-2.453,1.416a.626.626,0,0,0,0,1.186l1.084.626a2.277,2.277,0,0,0,2.056,0l2.458-1.413a.625.625,0,0,0,0-1.185l-1.092-.629A2.271,2.271,0,0,0,912.866,262.608Z"/><path class="b" d="M916.247,264.24a.987.987,0,0,1-.237.184l-2.456,1.411a2.269,2.269,0,0,1-2.052,0l-1.086-.629a1.282,1.282,0,0,1-.237-.177.62.62,0,0,1-.189-.386v.795a.722.722,0,0,0,.426.593l1.086.623a2.257,2.257,0,0,0,2.052.006l2.456-1.418a.725.725,0,0,0,.427-.593v-.818A.586.586,0,0,1,916.247,264.24Z"/><path class="b" d="M889.248,255.639l-2.453,1.417a.626.626,0,0,0,0,1.186l1.084.625a2.277,2.277,0,0,0,2.056,0l2.458-1.413a.624.624,0,0,0,0-1.184l-1.092-.63A2.271,2.271,0,0,0,889.248,255.639Z"/><path class="b" d="M892.629,257.271a.987.987,0,0,1-.237.184l-2.457,1.41a2.269,2.269,0,0,1-2.052,0l-1.086-.628a1.288,1.288,0,0,1-.237-.178.62.62,0,0,1-.189-.386v.795a.72.72,0,0,0,.426.594l1.086.623a2.259,2.259,0,0,0,2.052.005l2.456-1.418a.724.724,0,0,0,.427-.593v-.814A.588.588,0,0,1,892.629,257.271Z"/><path class="b" d="M896.243,259.66l-2.454,1.416a.626.626,0,0,0,0,1.186l1.085.626a2.271,2.271,0,0,0,2.056,0l2.458-1.413a.625.625,0,0,0,0-1.185l-1.092-.629A2.271,2.271,0,0,0,896.243,259.66Z"/><path class="b" d="M899.619,261.292a.988.988,0,0,1-.237.184l-2.456,1.411a2.269,2.269,0,0,1-2.052,0l-1.085-.628a1.289,1.289,0,0,1-.237-.178.627.627,0,0,1-.19-.386v.795a.716.716,0,0,0,.427.593l1.085.623a2.257,2.257,0,0,0,2.052.006l2.456-1.418a.727.727,0,0,0,.426-.593v-.818A.587.587,0,0,1,899.619,261.292Z"/><path class="b" d="M901.683,262.814l-2.453,1.417a.626.626,0,0,0,0,1.186l1.084.626a2.277,2.277,0,0,0,2.056,0l2.458-1.413a.625.625,0,0,0,0-1.185l-1.092-.63A2.274,2.274,0,0,0,901.683,262.814Z"/><path class="b" d="M905.064,264.445a.963.963,0,0,1-.237.184l-2.456,1.411a2.275,2.275,0,0,1-2.052,0l-1.086-.628a1.289,1.289,0,0,1-.237-.178.621.621,0,0,1-.189-.386v.8a.718.718,0,0,0,.426.593l1.086.623a2.257,2.257,0,0,0,2.052.006l2.456-1.418a.73.73,0,0,0,.427-.593v-.819A.585.585,0,0,1,905.064,264.445Z"/><path class="b" d="M907.062,265.959l-2.454,1.416a.626.626,0,0,0,0,1.186l1.084.626a2.279,2.279,0,0,0,2.057,0l2.457-1.415a.624.624,0,0,0,0-1.184l-1.091-.63A2.268,2.268,0,0,0,907.062,265.959Z"/><path class="b" d="M910.443,267.59a.99.99,0,0,1-.238.184l-2.455,1.412a2.275,2.275,0,0,1-2.052,0l-1.085-.629a1.291,1.291,0,0,1-.237-.178.625.625,0,0,1-.19-.385v.8a.718.718,0,0,0,.427.593l1.085.623a2.256,2.256,0,0,0,2.052.006l2.455-1.419a.725.725,0,0,0,.427-.593v-.818A.587.587,0,0,1,910.443,267.59Z"/><path class="b" d="M883.443,258.985,880.99,260.4a.626.626,0,0,0,0,1.186l1.083.626a2.279,2.279,0,0,0,2.057,0l2.458-1.413a.625.625,0,0,0,0-1.185l-1.091-.63A2.279,2.279,0,0,0,883.443,258.985Z"/><path class="b" d="M886.824,260.621a.99.99,0,0,1-.238.184l-2.455,1.411a2.275,2.275,0,0,1-2.052,0l-1.085-.629a1.317,1.317,0,0,1-.237-.177.627.627,0,0,1-.19-.386v.8a.718.718,0,0,0,.427.593l1.085.623a2.256,2.256,0,0,0,2.052.006l2.455-1.418a.725.725,0,0,0,.427-.593v-.819A.589.589,0,0,1,886.824,260.621Z"/><path class="b" d="M890.433,263.011l-2.453,1.416a.626.626,0,0,0,0,1.186l1.084.626a2.279,2.279,0,0,0,2.057,0l2.457-1.413a.625.625,0,0,0,0-1.185l-1.091-.63A2.273,2.273,0,0,0,890.433,263.011Z"/><path class="b" d="M893.814,264.642a.962.962,0,0,1-.237.184l-2.456,1.411a2.275,2.275,0,0,1-2.052,0l-1.086-.629a1.374,1.374,0,0,1-.238-.177.62.62,0,0,1-.189-.386v.795a.718.718,0,0,0,.427.593l1.086.623a2.253,2.253,0,0,0,2.052.005l2.455-1.417a.727.727,0,0,0,.427-.594v-.813A.584.584,0,0,1,893.814,264.642Z"/><path class="b" d="M895.878,266.164l-2.453,1.416a.626.626,0,0,0,0,1.186l1.084.625a2.279,2.279,0,0,0,2.057,0l2.458-1.414a.625.625,0,0,0,0-1.185l-1.091-.63A2.272,2.272,0,0,0,895.878,266.164Z"/><path class="b" d="M899.26,267.8a.992.992,0,0,1-.238.184l-2.455,1.412a2.275,2.275,0,0,1-2.052,0l-1.086-.629a1.287,1.287,0,0,1-.237-.178.624.624,0,0,1-.19-.385v.795a.718.718,0,0,0,.427.593l1.086.623a2.253,2.253,0,0,0,2.052.005l2.455-1.418a.724.724,0,0,0,.427-.593v-.818A.587.587,0,0,1,899.26,267.8Z"/><path class="b" d="M901.257,269.308l-2.453,1.416a.626.626,0,0,0,0,1.186l1.084.626a2.271,2.271,0,0,0,2.056,0l2.458-1.413a.625.625,0,0,0,0-1.185l-1.092-.63A2.271,2.271,0,0,0,901.257,269.308Z"/><path class="b" d="M904.638,270.941a.962.962,0,0,1-.237.184l-2.455,1.411a2.277,2.277,0,0,1-2.053,0l-1.086-.628a1.289,1.289,0,0,1-.237-.178.621.621,0,0,1-.189-.386v.8a.715.715,0,0,0,.426.593l1.086.623a2.259,2.259,0,0,0,2.053.006l2.455-1.418a.725.725,0,0,0,.427-.593v-.818A.586.586,0,0,1,904.638,270.941Z"/><g class="o"><path class="h" d="M904.239,250.571a.962.962,0,0,1-.237.184l-2.463,1.411a2.269,2.269,0,0,1-2.052,0l-1.086-.628a1.289,1.289,0,0,1-.237-.178.621.621,0,0,1-.189-.386v.795a.72.72,0,0,0,.426.594l1.086.623a2.26,2.26,0,0,0,2.052.005l2.456-1.418a.73.73,0,0,0,.427-.593v-.818A.584.584,0,0,1,904.239,250.571Z"/><path class="h" d="M911.227,254.593a.985.985,0,0,1-.237.184l-2.456,1.411a2.269,2.269,0,0,1-2.052,0l-1.085-.628a1.29,1.29,0,0,1-.237-.178.627.627,0,0,1-.19-.386v.795a.718.718,0,0,0,.427.593l1.085.623a2.256,2.256,0,0,0,2.052.006l2.452-1.42a.727.727,0,0,0,.426-.593v-.818A.589.589,0,0,1,911.227,254.593Z"/><path class="h" d="M916.672,257.744a.964.964,0,0,1-.237.185l-2.456,1.411a2.275,2.275,0,0,1-2.052,0l-1.086-.629a1.242,1.242,0,0,1-.237-.177.62.62,0,0,1-.189-.386v.795a.722.722,0,0,0,.426.593l1.086.623a2.257,2.257,0,0,0,2.052.006l2.456-1.418a.73.73,0,0,0,.427-.593v-.819A.582.582,0,0,1,916.672,257.744Z"/><path class="h" d="M922.051,260.89a.992.992,0,0,1-.238.184l-2.455,1.412a2.275,2.275,0,0,1-2.052,0l-1.085-.629a1.318,1.318,0,0,1-.237-.177.627.627,0,0,1-.19-.386v.795a.718.718,0,0,0,.427.593l1.085.623a2.253,2.253,0,0,0,2.052.005l2.455-1.418a.724.724,0,0,0,.427-.593v-.818A.587.587,0,0,1,922.051,260.89Z"/><path class="h" d="M898.433,253.92a.969.969,0,0,1-.238.185l-2.455,1.411a2.275,2.275,0,0,1-2.052,0l-1.085-.629a1.315,1.315,0,0,1-.237-.177.627.627,0,0,1-.19-.386v.795a.718.718,0,0,0,.427.593l1.085.623a2.257,2.257,0,0,0,2.052.006l2.455-1.418a.726.726,0,0,0,.427-.593v-.819A.587.587,0,0,1,898.433,253.92Z"/><path class="h" d="M905.423,257.942a.96.96,0,0,1-.237.184l-2.455,1.412a2.275,2.275,0,0,1-2.052,0l-1.087-.63a1.373,1.373,0,0,1-.238-.177.62.62,0,0,1-.189-.386v.8a.718.718,0,0,0,.427.593l1.086.623a2.256,2.256,0,0,0,2.052.006l2.455-1.418a.727.727,0,0,0,.427-.594v-.818A.579.579,0,0,1,905.423,257.942Z"/><path class="h" d="M910.863,261.1a.99.99,0,0,1-.238.184l-2.455,1.412a2.275,2.275,0,0,1-2.052,0l-1.086-.629a1.321,1.321,0,0,1-.237-.177.627.627,0,0,1-.19-.386v.8a.718.718,0,0,0,.427.593l1.086.623a2.254,2.254,0,0,0,2.052.005l2.455-1.418a.725.725,0,0,0,.427-.593v-.818A.586.586,0,0,1,910.863,261.1Z"/><path class="h" d="M916.247,264.24a.987.987,0,0,1-.237.184l-2.456,1.411a2.269,2.269,0,0,1-2.052,0l-1.086-.629a1.239,1.239,0,0,1-.237-.177.62.62,0,0,1-.189-.386v.795a.722.722,0,0,0,.426.593l1.086.623a2.257,2.257,0,0,0,2.052.006l2.456-1.418a.725.725,0,0,0,.427-.593v-.818A.586.586,0,0,1,916.247,264.24Z"/><path class="h" d="M892.629,257.271a.987.987,0,0,1-.237.184l-2.457,1.41a2.269,2.269,0,0,1-2.052,0l-1.086-.628a1.288,1.288,0,0,1-.237-.178.62.62,0,0,1-.189-.386v.795a.72.72,0,0,0,.426.594l1.086.623a2.259,2.259,0,0,0,2.052.005l2.456-1.418a.724.724,0,0,0,.427-.593v-.814A.588.588,0,0,1,892.629,257.271Z"/><path class="h" d="M899.619,261.292a.988.988,0,0,1-.237.184l-2.456,1.411a2.269,2.269,0,0,1-2.052,0l-1.085-.628a1.289,1.289,0,0,1-.237-.178.627.627,0,0,1-.19-.386v.795a.716.716,0,0,0,.427.593l1.085.623a2.257,2.257,0,0,0,2.052.006l2.456-1.418a.727.727,0,0,0,.426-.593v-.818A.587.587,0,0,1,899.619,261.292Z"/><path class="h" d="M905.064,264.445a.963.963,0,0,1-.237.184l-2.456,1.411a2.275,2.275,0,0,1-2.052,0l-1.086-.628a1.289,1.289,0,0,1-.237-.178.621.621,0,0,1-.189-.386v.8a.718.718,0,0,0,.426.593l1.086.623a2.257,2.257,0,0,0,2.052.006l2.456-1.418a.73.73,0,0,0,.427-.593v-.819A.585.585,0,0,1,905.064,264.445Z"/><path class="h" d="M910.443,267.59a.99.99,0,0,1-.238.184l-2.455,1.412a2.275,2.275,0,0,1-2.052,0l-1.085-.629a1.291,1.291,0,0,1-.237-.178.625.625,0,0,1-.19-.385v.8a.718.718,0,0,0,.427.593l1.085.623a2.256,2.256,0,0,0,2.052.006l2.455-1.419a.725.725,0,0,0,.427-.593v-.818A.587.587,0,0,1,910.443,267.59Z"/><path class="h" d="M886.824,260.621a.99.99,0,0,1-.238.184l-2.455,1.411a2.275,2.275,0,0,1-2.052,0l-1.085-.629a1.317,1.317,0,0,1-.237-.177.627.627,0,0,1-.19-.386v.8a.718.718,0,0,0,.427.593l1.085.623a2.256,2.256,0,0,0,2.052.006l2.455-1.418a.725.725,0,0,0,.427-.593v-.819A.589.589,0,0,1,886.824,260.621Z"/><path class="h" d="M893.815,264.642a.961.961,0,0,1-.237.184l-2.456,1.411a2.275,2.275,0,0,1-2.052,0l-1.086-.629a1.375,1.375,0,0,1-.238-.177.62.62,0,0,1-.189-.386v.795a.718.718,0,0,0,.427.593l1.086.623a2.253,2.253,0,0,0,2.052.005l2.455-1.417a.728.728,0,0,0,.427-.594v-.813A.584.584,0,0,1,893.815,264.642Z"/><path class="h" d="M899.26,267.8a.992.992,0,0,1-.238.184l-2.455,1.412a2.275,2.275,0,0,1-2.052,0l-1.086-.629a1.287,1.287,0,0,1-.237-.178.624.624,0,0,1-.19-.385v.795a.718.718,0,0,0,.427.593l1.086.623a2.253,2.253,0,0,0,2.052.005l2.455-1.418a.724.724,0,0,0,.427-.593v-.818A.587.587,0,0,1,899.26,267.8Z"/><path class="h" d="M904.639,270.94a.961.961,0,0,1-.237.184l-2.455,1.411a2.277,2.277,0,0,1-2.053,0l-1.086-.628a1.291,1.291,0,0,1-.237-.178.62.62,0,0,1-.189-.386v.8a.715.715,0,0,0,.426.593l1.086.623a2.259,2.259,0,0,0,2.053.006l2.455-1.418a.724.724,0,0,0,.427-.593v-.818A.586.586,0,0,1,904.639,270.94Z"/></g><path class="i" d="M914.973,239.208a.177.177,0,0,1,.057-.127L917,236.7a.237.237,0,0,1,.123-.09.192.192,0,0,1,.136.031l1.236.7a.084.084,0,0,1,.051.088.314.314,0,0,1-.077.139l-.082.1a.377.377,0,0,1-.127.108.121.121,0,0,1-.119-.007l-.815-.464-.548.662.728.412a.085.085,0,0,1,.051.089.323.323,0,0,1-.078.138l-.082.1a.38.38,0,0,1-.127.109.124.124,0,0,1-.117-.007l-.728-.413-.6.723.819.467a.08.08,0,0,1,.048.083.306.306,0,0,1-.078.139l-.082.1a.376.376,0,0,1-.129.112.126.126,0,0,1-.112-.009l-1.239-.7C915,239.269,914.977,239.242,914.973,239.208Z"/><path class="i" d="M916.921,240.211l2-2.42a.22.22,0,0,1,.124-.085.2.2,0,0,1,.14.029l.682.387q.849.485.252,1.207a1.064,1.064,0,0,1-.931.417l-.013.015a.718.718,0,0,1-.056.58l-.354.878a.15.15,0,0,1-.013.029.1.1,0,0,1-.016.028c-.049.058-.15.044-.3-.043l-.124-.069c-.131-.075-.182-.146-.146-.213l.372-.863a.438.438,0,0,0,.032-.245.3.3,0,0,0-.16-.165l-.156-.089-.779.94c-.06.075-.167.068-.315-.016l-.114-.065C916.9,240.363,916.86,240.285,916.921,240.211Zm2.022-.916a.331.331,0,0,0,.28.009.7.7,0,0,0,.306-.229.483.483,0,0,0,.144-.313.248.248,0,0,0-.143-.207l-.286-.163-.606.731Z"/><path class="i" d="M919.09,241.446l2-2.421a.226.226,0,0,1,.123-.087.2.2,0,0,1,.14.03l.682.388q.851.481.253,1.205a1.06,1.06,0,0,1-.932.418l-.013.015a.726.726,0,0,1-.053.58l-.356.877a.181.181,0,0,1-.011.03l-.018.028q-.074.087-.3-.042l-.123-.072c-.133-.075-.183-.146-.147-.212l.373-.864a.435.435,0,0,0,.032-.244.307.307,0,0,0-.16-.163l-.157-.089-.778.939c-.061.074-.168.067-.315-.017l-.115-.065C919.074,241.6,919.031,241.518,919.09,241.446Zm2.021-.917a.331.331,0,0,0,.28.009.7.7,0,0,0,.307-.23.491.491,0,0,0,.144-.312.248.248,0,0,0-.143-.207l-.287-.162-.6.73Z"/><path class="i" d="M922.2,241.4q1.124-1.356,2.215-.735t-.035,1.973q-1.128,1.362-2.216.744T922.2,241.4Zm.885,1.563a2.362,2.362,0,0,0,.724-.651,2.028,2.028,0,0,0,.47-.787.385.385,0,0,0-.214-.432.6.6,0,0,0-.568-.013,2.365,2.365,0,0,0-.72.645,2.029,2.029,0,0,0-.471.795.389.389,0,0,0,.216.438.587.587,0,0,0,.562.005Z"/><path class="i" d="M923.8,244.12l2-2.42a.218.218,0,0,1,.125-.087.2.2,0,0,1,.14.029l.681.388q.851.481.253,1.206a1.063,1.063,0,0,1-.932.417l-.013.016a.72.72,0,0,1-.055.579l-.356.878a.319.319,0,0,1-.027.057c-.049.058-.15.045-.3-.042l-.123-.07c-.132-.075-.182-.146-.145-.213l.371-.863a.438.438,0,0,0,.032-.245.3.3,0,0,0-.16-.165l-.156-.088-.778.939c-.061.075-.168.068-.316-.016l-.114-.065C923.778,244.272,923.736,244.2,923.8,244.12Zm2.02-.916a.336.336,0,0,0,.281.007.712.712,0,0,0,.307-.229.489.489,0,0,0,.144-.313.252.252,0,0,0-.143-.206l-.288-.165-.6.731Z"/><path class="i" d="M926.673,245.891a.748.748,0,0,1-.183-.245.169.169,0,0,1,.011-.183.511.511,0,0,1,.205-.116c.107-.041.178-.05.215-.029a.394.394,0,0,1,.062.094,1.04,1.04,0,0,0,.129.173.876.876,0,0,0,.207.16.547.547,0,0,0,.4.053.738.738,0,0,0,.392-.262.432.432,0,0,0,.069-.607.437.437,0,0,0-.2-.14l-.372-.21c-.054-.03-.081-.063-.085-.1a.185.185,0,0,1,.057-.127l1.009-1.073a.193.193,0,0,1,.267-.057l.01.007,1.1.628a.085.085,0,0,1,.052.088.32.32,0,0,1-.077.138l-.069.084a.279.279,0,0,1-.113.091.136.136,0,0,1-.111-.016l-.775-.44-.565.6.106.06a.791.791,0,0,1,.241,1.37,1.2,1.2,0,0,1-.809.483,1.376,1.376,0,0,1-.837-.182A1.716,1.716,0,0,1,926.673,245.891Z"/><path class="i" d="M928.742,246.614a2.524,2.524,0,0,1,.62-1.138,3.1,3.1,0,0,1,1.058-.889.967.967,0,0,1,.918.014.646.646,0,0,1,.348.707,2.5,2.5,0,0,1-.619,1.137,3.086,3.086,0,0,1-1.058.888.986.986,0,0,1-.922-.014A.642.642,0,0,1,928.742,246.614Zm.9.33a1.148,1.148,0,0,0,.345-.239,5.975,5.975,0,0,0,.527-.575,5.157,5.157,0,0,0,.456-.614.878.878,0,0,0,.146-.353.178.178,0,0,0-.1-.177.271.271,0,0,0-.234-.011,1.187,1.187,0,0,0-.346.24,5.715,5.715,0,0,0-.526.573,5.474,5.474,0,0,0-.457.615.877.877,0,0,0-.145.353.175.175,0,0,0,.1.177.273.273,0,0,0,.232.011Z"/><path class="i" d="M930.461,247.99c-.135-.15-.167-.267-.1-.355a.527.527,0,0,1,.2-.121c.1-.04.166-.049.2-.028a.245.245,0,0,1,.065.094,1.53,1.53,0,0,0,.14.2.676.676,0,0,0,.192.152.614.614,0,0,0,.811-.167.467.467,0,0,0,.14-.4.555.555,0,0,0-.3-.321l-.155-.089a.1.1,0,0,1-.057-.088.3.3,0,0,1,.077-.142l.048-.057a.318.318,0,0,1,.131-.11.135.135,0,0,1,.119.011l.122.071a.6.6,0,0,0,.768-.123.381.381,0,0,0,.1-.288.34.34,0,0,0-.2-.249.708.708,0,0,0-.221-.089,1.143,1.143,0,0,0-.193-.023.372.372,0,0,1-.11-.013c-.033-.019-.048-.073-.041-.16a.34.34,0,0,1,.064-.2c.064-.077.188-.1.372-.059a1.86,1.86,0,0,1,.553.213.824.824,0,0,1,.44.512.685.685,0,0,1-.183.6.908.908,0,0,1-.391.278,1.021,1.021,0,0,1-.475.047l-.012.015a.631.631,0,0,1,.157.462.876.876,0,0,1-.223.513,1.267,1.267,0,0,1-.469.364,1.131,1.131,0,0,1-.544.1,1.231,1.231,0,0,1-.538-.166A1.99,1.99,0,0,1,930.461,247.99Z"/><path class="i" d="M872.976,279.674l-3.955,2.283-5.476,3.16-19.02-10.979,5.757-3.322,5-2.884a9.564,9.564,0,0,0,3.274,3.414l9.661,5.583a4.719,4.719,0,0,0,1.934.65Z"/><path class="f" d="M872.976,279.674l-3.955,2.283-5.476,3.16-19.02-10.979,5.757-3.322,5-2.884a9.564,9.564,0,0,0,3.274,3.414l9.661,5.583a4.719,4.719,0,0,0,1.934.65Z"/><path class="j" d="M882.883,279.943v3.267a3.036,3.036,0,0,1-1.444,2.541l-.007.005-.837.485-9.154,5.317a3.352,3.352,0,0,0,2.011-2.9v-3.269a2.191,2.191,0,0,0,1.073-.254l7.916-4.57A.755.755,0,0,0,882.883,279.943Z"/><path class="j" d="M855.28,267.938l-5,2.884-4.436,2.559a5.923,5.923,0,0,1-.635-1.563l-.686-3.1V268.7a2.18,2.18,0,0,0,1.082-.255l7.916-4.57a.784.784,0,0,0,.438-.56h.005l.678,3.059A5.815,5.815,0,0,0,855.28,267.938Z"/><path class="k" d="M872.383,285.135l-8.391-4.845a.852.852,0,0,1-.432-.514l-.011-.1s-.346,1.02-.771,2.279-2.212,1.446-3.988.42l-9.664-5.578a9.014,9.014,0,0,1-3.909-4.979l-.687-3.1v-.02h0a2.176,2.176,0,0,1-1.058-.255l-8.391-4.844a.755.755,0,0,1-.447-.612v4.166a8.947,8.947,0,0,0,1.6,4.213,24.427,24.427,0,0,0,7.331,6.775s17.63,10.2,20.965,12.1,5.913,1.9,6.918,1.319a3.352,3.352,0,0,0,2.011-2.9v-3.269A2.191,2.191,0,0,1,872.383,285.135Z"/><path class="i" d="M845.607,268.443l7.916-4.571a.654.654,0,0,0,0-1.238l-8.392-4.844a2.368,2.368,0,0,0-2.144,0l-7.916,4.571a.653.653,0,0,0,0,1.238l8.391,4.845A2.374,2.374,0,0,0,845.607,268.443Z"/><path class="k" d="M840.564,265.27c-2.066-1.187-2.066-3.117,0-4.31a8.238,8.238,0,0,1,7.466-.005c2.056,1.189,2.056,3.12,0,4.31A8.262,8.262,0,0,1,840.564,265.27Z"/><ellipse class="j" cx="0.554" cy="0.32" rx="0.554" ry="0.32" transform="translate(841.416 261.474)"/><path class="j" d="M841.155,262.52c.3.028.509.191.46.365s-.331.293-.634.266-.509-.192-.46-.366S840.854,262.492,841.155,262.52Z"/><path class="j" d="M841.148,263.7a.787.787,0,0,1,.745.14c.139.157.031.349-.241.429a.787.787,0,0,1-.745-.139C840.768,263.972,840.876,263.779,841.148,263.7Z"/><path class="j" d="M842.345,264.653a.787.787,0,0,1,.745-.14c.272.08.38.272.243.429a.784.784,0,0,1-.745.14C842.315,265.007,842.206,264.814,842.345,264.653Z"/><path class="j" d="M844.287,265.025c-.048-.174.158-.338.459-.365s.587.092.634.266-.158.338-.459.365S844.334,265.2,844.287,265.025Z"/><path class="j" d="M846.232,264.663a.239.239,0,0,1,0-.452.864.864,0,0,1,.783,0,.239.239,0,0,1,0,.452A.864.864,0,0,1,846.232,264.663Z"/><path class="j" d="M847.439,263.712c-.3-.028-.508-.191-.459-.366s.331-.293.633-.265.509.191.46.365S847.741,263.739,847.439,263.712Z"/><path class="j" d="M847.446,262.531a.782.782,0,0,1-.745-.14c-.139-.157-.03-.349.243-.429a.782.782,0,0,1,.745.14C847.827,262.258,847.718,262.451,847.446,262.531Z"/><path class="j" d="M846.25,261.575a.786.786,0,0,1-.745.139c-.274-.08-.381-.272-.243-.429a.787.787,0,0,1,.745-.14C846.28,261.224,846.388,261.417,846.25,261.575Z"/><path class="j" d="M844.307,261.206c.048.174-.158.338-.46.365s-.585-.091-.634-.265.158-.339.46-.366S844.259,261.032,844.307,261.206Z"/><path class="i" d="M874.523,285.134l7.916-4.57a.653.653,0,0,0,0-1.238l-8.391-4.845a2.371,2.371,0,0,0-2.145,0l-7.916,4.571a.654.654,0,0,0,0,1.238l8.392,4.844A2.368,2.368,0,0,0,874.523,285.134Z"/><path class="k" d="M869.485,281.967c-2.066-1.188-2.066-3.118,0-4.311a8.242,8.242,0,0,1,7.465-.005c2.057,1.19,2.057,3.12,0,4.31A8.26,8.26,0,0,1,869.485,281.967Z"/><path class="j" d="M871.278,278.26a.238.238,0,0,1,0,.452.864.864,0,0,1-.783,0,.239.239,0,0,1,0-.452A.864.864,0,0,1,871.278,278.26Z"/><path class="j" d="M870.072,279.212c.3.028.507.191.46.366s-.331.293-.634.265-.509-.191-.46-.365S869.77,279.184,870.072,279.212Z"/><path class="j" d="M870.065,280.392a.782.782,0,0,1,.745.14c.139.157.031.349-.241.43a.789.789,0,0,1-.746-.14C869.685,280.669,869.793,280.469,870.065,280.392Z"/><path class="j" d="M871.262,281.349a.786.786,0,0,1,.745-.139c.272.08.38.272.241.43a.787.787,0,0,1-.745.14C871.231,281.7,871.125,281.507,871.262,281.349Z"/><path class="j" d="M873.2,281.718c-.047-.174.158-.339.46-.365s.585.091.634.265-.158.339-.46.366S873.253,281.892,873.2,281.718Z"/><path class="j" d="M875.149,281.356a.238.238,0,0,1,0-.452.864.864,0,0,1,.783,0,.239.239,0,0,1,0,.452A.864.864,0,0,1,875.149,281.356Z"/><path class="j" d="M876.356,280.4c-.3-.028-.509-.191-.46-.365s.331-.294.634-.266.509.191.46.366S876.658,280.432,876.356,280.4Z"/><path class="j" d="M876.363,279.224a.787.787,0,0,1-.745-.14c-.139-.157-.031-.349.241-.43a.787.787,0,0,1,.745.139C876.743,278.951,876.635,279.144,876.363,279.224Z"/><path class="j" d="M875.166,278.267a.787.787,0,0,1-.745.14c-.272-.08-.38-.272-.241-.43a.782.782,0,0,1,.745-.14C875.2,277.917,875.3,278.106,875.166,278.267Z"/><path class="j" d="M873.223,277.895c.048.174-.158.338-.459.365s-.585-.092-.634-.266.158-.338.46-.365S873.176,277.724,873.223,277.895Z"/><path class="d" d="M1015.794,335.658l-29.421,17.135a3.466,3.466,0,0,1-3.139,0l-82.757-47.715a.957.957,0,0,1,0-1.813L929.9,286.13a3.472,3.472,0,0,1,3.139,0l82.757,47.715a.957.957,0,0,1,0,1.813Z"/><path class="j" d="M902.737,299.755a1.1,1.1,0,0,1,.647-.9l26.19-15.117a3.445,3.445,0,0,1,3.123,0l79.914,46.213a1.1,1.1,0,0,1,.646.9V333.6a1.1,1.1,0,0,1-.649.9l-26.175,15.119a3.463,3.463,0,0,1-3.126,0l-79.922-46.14a1.1,1.1,0,0,1-.647-.9C902.736,302.247,902.743,300.08,902.737,299.755Z"/><path class="k" d="M986.433,346.8l26.176-15.047a.951.951,0,0,0,0-1.8L932.7,283.739a3.445,3.445,0,0,0-3.123,0l-26.19,15.117a.953.953,0,0,0,0,1.8L983.3,346.8A3.463,3.463,0,0,0,986.433,346.8Z"/><path class="j" d="M984.97,347.17v2.808a3.245,3.245,0,0,0,1.467-.36l26.171-15.116a1.1,1.1,0,0,0,.65-.9v-2.753a1.108,1.108,0,0,1-.65.9L986.437,346.8A3.233,3.233,0,0,1,984.97,347.17Z"/><path class="b" d="M907.587,299.955a.041.041,0,0,1,.018-.032l2.592-1.5,3.517,2.03L911.106,302l-3.513-2.028Zm4.058-2.342a.044.044,0,0,1,.018-.033l2.592-1.5,2.762,1.594-2.609,1.547-2.759-1.593Zm.855,5.179a.041.041,0,0,1,.018-.032l2.594-1.5,2.76,1.594-2.61,1.547-2.755-1.592Zm3.2-7.52a.043.043,0,0,1,.018-.035l2.591-1.5,4.461,2.576-2.607,1.548-4.46-2.574Zm.1,4.743a.04.04,0,0,1,.018-.033l2.592-1.5,2.194,1.267-2.61,1.548-2.19-1.265Zm.854,5.179a.037.037,0,0,1,.019-.033l2.591-1.5,2.762,1.594-2.609,1.547-2.756-1.592Zm2.734-3.106a.045.045,0,0,1,.02-.035l2.592-1.5,2.192,1.267-2.608,1.547-2.19-1.265Zm.371-9.158a.042.042,0,0,1,.018-.034l2.591-1.5,3.517,2.03-2.61,1.548-3.513-2.029Zm1.053,14.664a.04.04,0,0,1,.018-.033l2.591-1.5,19.957,11.521-2.612,1.547-19.949-11.52Zm.747-8.939a.042.042,0,0,1,.018-.034l2.591-1.5,2.192,1.266-2.607,1.547-2.191-1.264Zm1.421,5.507a.048.048,0,0,1,.018-.035l2.592-1.5,2.192,1.268-2.607,1.546-2.191-1.265Zm.837-13.573a.044.044,0,0,1,.018-.035l2.591-1.5,2.193,1.267-2.608,1.548-2.19-1.266Zm.854,5.179a.04.04,0,0,1,.019-.033l2.591-1.5,2.194,1.268-2.61,1.547-2.19-1.266Zm.479,4.961a.042.042,0,0,1,.018-.034l2.591-1.5,2.193,1.266-2.61,1.548-2.188-1.265Zm1.421,5.507a.048.048,0,0,1,.019-.035l2.591-1.495,2.192,1.266-2.609,1.548-2.189-1.265Zm.837-13.573a.043.043,0,0,1,.018-.035l2.591-1.5,2.193,1.267-2.606,1.549-2.19-1.265Zm.855,5.179a.04.04,0,0,1,.018-.033l2.591-1.5,2.2,1.266-2.609,1.548-2.191-1.266Zm.475,4.962a.044.044,0,0,1,.02-.034l2.592-1.5,2.192,1.266-2.61,1.548-2.188-1.265Zm0-15.056a.04.04,0,0,1,.018-.034l2.591-1.5,2.761,1.594-2.61,1.548-2.755-1.593Zm1.42,20.561a.044.044,0,0,1,.018-.035l2.591-1.5,2.193,1.267-2.608,1.547-2.19-1.265Zm.835-13.573a.048.048,0,0,1,.018-.035l2.592-1.5,2.192,1.267-2.608,1.547L931,294.75Zm.855,5.179a.043.043,0,0,1,.018-.034l2.591-1.5,2.2,1.263-2.609,1.548-2.19-1.266Zm.478,4.961a.04.04,0,0,1,.018-.033l2.592-1.5,2.192,1.267-2.61,1.547-2.188-1.265Zm1.422,5.507a.048.048,0,0,1,.018-.035l2.591-1.495,2.193,1.266-2.608,1.547-2.19-1.264Zm.707-19.333a.046.046,0,0,1,.019-.034l2.593-1.5,2.192,1.267-2.609,1.548-2.191-1.266Zm.126,5.76a.047.047,0,0,1,.021-.035l2.591-1.5,2.192,1.267-2.609,1.547-2.189-1.265Zm.857,5.179a.04.04,0,0,1,.018-.033l2.592-1.5,2.2,1.268-2.61,1.547-2.19-1.266Zm.475,4.962a.047.047,0,0,1,.021-.035l2.591-1.5,2.192,1.267-2.609,1.547-2.189-1.265Zm1.422,5.505a.05.05,0,0,1,.02-.033l2.592-1.5,2.192,1.267-2.61,1.548-2.188-1.266Zm.71-19.333a.044.044,0,0,1,.018-.035l2.591-1.5,2.194,1.266-2.609,1.547-2.19-1.265Zm.126,5.759a.04.04,0,0,1,.018-.033l2.593-1.5,2.193,1.267-2.61,1.547-2.189-1.265Zm.856,5.18a.046.046,0,0,1,.018-.034l2.592-1.5,2.194,1.266-2.61,1.548-2.19-1.265Zm.477,4.961a.04.04,0,0,1,.018-.033l2.593-1.5,2.193,1.267L941.7,310.3l-2.189-1.265Zm1.424,5.507a.04.04,0,0,1,.018-.033l2.591-1.5,2.192,1.268-2.607,1.546-2.191-1.264Zm.707-19.333a.044.044,0,0,1,.018-.035l2.6-1.5,2.2,1.266-2.61,1.548-2.19-1.266Zm.128,5.76a.044.044,0,0,1,.018-.035l2.592-1.5,2.192,1.267-2.61,1.547-2.188-1.265Zm.4,18.971a.042.042,0,0,1,.018-.034l2.592-1.5,2.76,1.594-2.609,1.548-2.757-1.593Zm.458-13.792a.04.04,0,0,1,.018-.033l2.591-1.5,2.194,1.267-2.609,1.548-2.191-1.266Zm.475,4.96a.038.038,0,0,1,.018-.032l2.593-1.5,2.193,1.267-2.61,1.547-2.188-1.265Zm1.424,5.508a.043.043,0,0,1,.018-.035l2.591-1.5,2.193,1.267-2.61,1.548-2.189-1.266Zm.707-19.333a.046.046,0,0,1,.018-.034l2.592-1.5L950.031,297l-2.61,1.547-2.19-1.265Zm.126,5.76a.052.052,0,0,1,.02-.035l2.592-1.5,2.192,1.267-2.61,1.547-2.183-1.266Zm.857,5.179a.043.043,0,0,1,.018-.034l2.591-1.5,2.2,1.267-2.61,1.548-2.191-1.266Zm.108,14.119a.049.049,0,0,1,.02-.035l2.591-1.5,2.761,1.594-2.608,1.548-2.759-1.593Zm.368-9.157a.046.046,0,0,1,.02-.035l2.592-1.5,2.192,1.267-2.609,1.547-2.189-1.265Zm1.422,5.505a.046.046,0,0,1,.02-.035l2.592-1.5,2.192,1.268-2.608,1.546-2.19-1.265Zm.835-13.574a.045.045,0,0,1,.019-.033l2.593-1.5,2.192,1.267-2.609,1.547-2.189-1.265Zm.857,5.18a.04.04,0,0,1,.018-.033l2.592-1.5,2.192,1.267-2.608,1.547L949.8,310.3Zm.475,4.961a.04.04,0,0,1,.019-.033l2.593-1.5,2.192,1.267-2.609,1.547-2.189-1.265Zm.1-15a.046.046,0,0,1,.018-.034l2.591-1.5,2.194,1.267-2.609,1.548-2.191-1.266Zm.1,24.482a.042.042,0,0,1,.018-.034l2.592-1.5,2.762,1.594-2.61,1.547-2.758-1.592Zm1.222-3.98a.038.038,0,0,1,.018-.032l2.594-1.5,2.192,1.267-2.61,1.548-2.188-1.266Zm.837-13.573a.052.052,0,0,1,.02-.035l2.589-1.494,2.2,1.265-2.61,1.548-2.189-1.265Zm.856,5.18a.044.044,0,0,1,.018-.033l2.592-1.5,2.2,1.267-2.61,1.548-2.19-1.266Zm.477,4.961a.04.04,0,0,1,.018-.033l2.593-1.5,2.192,1.267-2.609,1.547-2.189-1.265Zm.1-15a.044.044,0,0,1,.018-.033l2.591-1.5,2.2,1.266-2.61,1.547-2.19-1.265Zm.663,24.812a.042.042,0,0,1,.018-.034l2.591-1.5,3.517,2.03-2.61,1.547-3.513-2.028Zm.654-4.307a.045.045,0,0,1,.021-.034l2.591-1.5,6.918,3.995-2.61,1.547-6.914-3.993Zm.837-13.574a.046.046,0,0,1,.018-.034l2.594-1.5,2.192,1.267-2.61,1.547-2.188-1.265Zm.856,5.18a.046.046,0,0,1,.019-.034l2.591-1.5,2.194,1.266-2.61,1.547-2.19-1.265Zm.477,4.96a.038.038,0,0,1,.018-.032l2.593-1.5,2.193,1.267-2.61,1.547L957.46,319.4Zm.1-15a.042.042,0,0,1,.018-.034l2.592-1.5,2.194,1.267-2.61,1.547-2.19-1.265Zm2.154,6.93a.046.046,0,0,1,.018-.034l2.594-1.5,2.192,1.267L961.9,312.6l-2.188-1.265Zm.585,19.08a.042.042,0,0,1,.019-.032l2.593-1.5,2.192,1.267-2.609,1.547-2.189-1.265Zm.271-13.9a.04.04,0,0,1,.018-.033l2.591-1.5,2.193,1.267-2.608,1.547-2.19-1.265Zm.475,4.961a.041.041,0,0,1,.018-.032l2.594-1.5,2,1.158a1.371,1.371,0,0,0,.633.129,1.405,1.405,0,0,0,.663-.138l3.4-1.966,2.571,1.486-6.664,3.89-5.215-3.011Zm.1-15a.044.044,0,0,1,.018-.033l2.592-1.5,2.195,1.267-2.6,1.554-2.19-1.266Zm2.154,6.931a.044.044,0,0,1,.019-.033l2.591-1.5,2.2,1.266-2.609,1.547L963.3,313.4Zm.589,19.081a.04.04,0,0,1,.018-.034l2.591-1.5,2.192,1.267-2.594,1.543-2.189-1.265Zm.268-13.9a.042.042,0,0,1,.018-.034l2.591-1.5,2.193,1.267-2.6,1.543-2.188-1.264Zm2.141-9.135a.046.046,0,0,1,.019-.034l2.591-1.5,2.2,1.266-2.61,1.547-2.19-1.265Zm.593,6.028a.042.042,0,0,1,.018-.034l2.591-1.495,2.194,1.266-2.594,1.546-2.189-1.265Zm.585,19.081a.04.04,0,0,1,.02-.035l2.591-1.5,2.193,1.267-2.61,1.547-2.188-1.265Zm.468-4.416a.043.043,0,0,1,.018-.035l2.593-1.5,2.193,1.267-2.61,1.548-2.177-1.262Zm1.945-18.62a.042.042,0,0,1,.018-.034l2.591-1.5,2.193,1.267-2.608,1.547-2.19-1.264Zm.592,6.028a.042.042,0,0,1,.018-.034l2.591-1.495,3.9,2.248-2.609,1.547-3.889-2.247Zm1.342,19.517a.044.044,0,0,1,.018-.033l2.592-1.5,5.784,3.341-2.609,1.547-5.781-3.338Zm.647-13.682a.043.043,0,0,1,.018-.035l2.591-1.5,2.2,1.267-2.6,1.543-2.192-1.266Zm1.009-9.79a.042.042,0,0,1,.018-.034l2.592-1.5,2.192,1.267-2.608,1.547-2.19-1.264Zm2.4,21.129a.042.042,0,0,1,.018-.034l2.591-1.5,2.194,1.267-2.607,1.547-2.193-1.265Zm.178-9.266a.044.044,0,0,1,.018-.035l2.592-1.5,2.194,1.266-2.61,1.547-2.19-1.265Zm.468-4.416a.042.042,0,0,1,.018-.034l2.592-1.5,2.2,1.267-2.61,1.547-2.19-1.264Zm.541-5.374a.046.046,0,0,1,.018-.034l2.592-1.5,2.192,1.267-2.608,1.547-2.19-1.264Zm1.935,25.544a.043.043,0,0,1,.018-.035l2.591-1.5,2.2,1.266-2.61,1.548L979,341.215Zm.468-4.416a.042.042,0,0,1,.018-.034l2.591-1.5,2.2,1.266-2.61,1.548-2.19-1.265Zm.178-9.266a.045.045,0,0,1,.019-.035l2.591-1.5,2.2,1.267-2.591,1.548-2.191-1.266Zm.29,4.852a.04.04,0,0,1,.018-.034l2.591-1.5,2.193,1.267-2.608,1.547-2.191-1.264Zm.178-9.267a.04.04,0,0,1,.018-.034l2.592-1.5,2.194,1.266-2.61,1.547-2.19-1.264Zm1.334-4.916a.042.042,0,0,1,.018-.034l2.591-1.5,2.2,1.267-2.61,1.547-2.19-1.264Zm1.141,25.086a.048.048,0,0,1,.018-.035l6.65-3.838,2.194,1.267-6.666,3.89-2.192-1.265Zm.468-4.416a.042.042,0,0,1,.018-.034l2.592-1.5,2.2,1.266-2.61,1.548-2.19-1.265Zm.468-4.415a.04.04,0,0,1,.018-.034l2.591-1.5,2.193,1.267-2.608,1.547-2.19-1.264Zm.178-9.267a.042.042,0,0,1,.018-.034l2.592-1.5,2.2,1.266-2.61,1.547-2.19-1.264Zm.287,4.852a.038.038,0,0,1,.018-.032l2.593-1.5,2.193,1.267-2.61,1.548-2.189-1.265Zm1.047-9.767a.046.046,0,0,1,.018-.034l2.592-1.5,2.2,1.267-2.61,1.547-2.19-1.264Zm2.077,16.256a.042.042,0,0,1,.018-.034l2.591-1.5,2.193,1.267-2.608,1.548-2.19-1.266Zm.466-4.416a.038.038,0,0,1,.018-.032l2.593-1.5,2.193,1.267-2.61,1.548-2.188-1.265Zm.468-4.416a.04.04,0,0,1,.018-.033l2.592-1.5,2.2,1.267-2.593,1.546-2.188-1.265Zm.58-5.352a.042.042,0,0,1,.018-.034l2.591-1.5,2.194,1.267-2.609,1.547-2.172-1.264Zm2.076,16.256a.048.048,0,0,1,.018-.035l6.65-3.839,2.192,1.267-6.664,3.891L990.7,338.6Zm.466-4.416a.037.037,0,0,1,.019-.032l2.593-1.5,2.192,1.267-2.61,1.547-2.188-1.265Zm.49-4.424a.038.038,0,0,1,.018-.032l2.592-1.5,2.194,1.267-2.61,1.547-2.188-1.265Zm2.378-5.517a.042.042,0,0,1,.018-.034l1.1-.649,2.195,1.266-1.127.694-2.183-1.259Zm1.212,7.59a.044.044,0,0,1,.018-.033l2.592-1.5,2.2,1.267L997.44,333.1l-2.189-1.265Zm2.378-5.517a.042.042,0,0,1,.018-.034l1.1-.649,2.194,1.266-1.126.694-2.183-1.259Zm1.213,7.59a.04.04,0,0,1,.018-.033l2.591-1.5,2.194,1.267-2.609,1.547-2.189-1.265Zm2.377-5.517a.042.042,0,0,1,.018-.034l1.1-.65,2.2,1.267-1.127.7-2.183-1.26Zm3.588,2.074a.047.047,0,0,1,.021-.035l1.1-.65,2.194,1.267-1.127.7-2.183-1.26Z"/><path class="d" d="M1083.946,336.733l17-9.818c2.556-1.475,2.556-3.868,0-5.342L978.917,251.118a10.225,10.225,0,0,0-9.252,0l-17.006,9.818c-2.556,1.474-2.556,3.867,0,5.342l122.033,70.456A10.23,10.23,0,0,0,1083.946,336.733Z"/><path class="k" d="M1004.977,314.722l-18.745-10.839c-1.932-1.115-2.9-2.577-2.9-4.04s-.009-2.607-.009-2.607l17.639-10.012a4.122,4.122,0,0,0,1.865-3.232V260.885l32.742,18.92v23.111a4.123,4.123,0,0,1-1.867,3.232l-14.73,8.574A15.468,15.468,0,0,1,1004.977,314.722Z"/><path class="j" d="M1027.712,307.009v2.6l6-3.458a4.131,4.131,0,0,0,1.864-3.232V279.8l-6.238-3.6c-.129,1.583-.269,3.221-.4,4.815l4.374,2.532v18.056a4.1,4.1,0,0,1-1.864,3.232Z"/><path class="i" d="M1033.315,301.616a4.123,4.123,0,0,1-1.866,3.232l-12.474,7.272a15.466,15.466,0,0,1-14,0L986.22,301.282c-3.866-2.23-3.866-5.847,0-8.078l12.482-7.278a4.123,4.123,0,0,0,1.866-3.232V264.636l32.742,18.92Z"/><path class="k" d="M994.905,288.124h0l3.8-2.2a4.123,4.123,0,0,0,1.866-3.232V264.636l32.742,18.92v18.059a4.124,4.124,0,0,1-1.866,3.232L1027.713,307Z"/><path class="k" d="M1085.886,326.549a5,5,0,0,1-4.52-.083l-126.623-73.1a5.153,5.153,0,0,1-2.331-4.04V138.49a4.382,4.382,0,0,1,6.712-3.873l126.621,73.1a5.157,5.157,0,0,1,2.332,4.04V322.593A5,5,0,0,1,1085.886,326.549Z"/><path class="i" d="M1081.364,326.462l-126.622-73.1a5.153,5.153,0,0,1-2.332-4.04V138.487c0-1.487,1.044-2.09,2.332-1.346l126.621,73.1a5.157,5.157,0,0,1,2.332,4.041V325.113C1083.7,326.6,1082.653,327.2,1081.364,326.462Z"/><path class="p" d="M1079.323,311.456V215.738a3.1,3.1,0,0,0-1.4-2.424l-119.734-69.13c-.773-.446-1.4-.084-1.4.809v95.721a3.091,3.091,0,0,0,1.4,2.424l119.738,69.126C1078.695,312.71,1079.323,312.348,1079.323,311.456Z"/><path class="b" d="M1015.446,279.765a4.837,4.837,0,0,1,2.189,3.791c0,1.4-.981,1.962-2.189,1.263a4.835,4.835,0,0,1-2.188-3.79C1013.258,279.633,1014.238,279.067,1015.446,279.765Z"/><path class="j" d="M1087.386,209.456l-4.374,2.521a4.954,4.954,0,0,1,.689,2.306V325.407c0,1.357-.862,1.971-1.993,1.518a4.359,4.359,0,0,0,6.367-4.05V211.762A4.843,4.843,0,0,0,1087.386,209.456Z"/><path class="b" d="M987.876,217.9c.159.41.339.848.533,1.313a10.867,10.867,0,0,0,.7,1.388,8.981,8.981,0,0,0,1,1.344,5.547,5.547,0,0,0,1.375,1.112,3.769,3.769,0,0,0,1.376.5,1.858,1.858,0,0,0,1.17-.2,1.906,1.906,0,0,0,.809-.963,4.788,4.788,0,0,0,.292-1.844,7.127,7.127,0,0,0-.91-3.465,6.534,6.534,0,0,0-2.5-2.579,2.188,2.188,0,0,0-.91-.314,4.87,4.87,0,0,0-.792-.007c-.241.02-.465.041-.67.064a.85.85,0,0,1-.517-.087l-5.366-3.1a1.787,1.787,0,0,1-.689-.821,2.315,2.315,0,0,1-.239-1.145l1.032-18.311a1.306,1.306,0,0,1,.291-.839.471.471,0,0,1,.638-.056l14.723,8.5a1.751,1.751,0,0,1,.653.8,2.707,2.707,0,0,1,.276,1.165v5.614a1.131,1.131,0,0,1-.276.847.5.5,0,0,1-.653.047l-10.005-5.773-.24,4.576a3.417,3.417,0,0,1,1.427-.05,5.174,5.174,0,0,1,1.771.678,15.938,15.938,0,0,1,3.7,2.983,20.169,20.169,0,0,1,2.959,4.143,22.232,22.232,0,0,1,1.961,5.052,23.043,23.043,0,0,1,.705,5.757,14.471,14.471,0,0,1-.775,5.167,5.78,5.78,0,0,1-2.138,2.873,4.686,4.686,0,0,1-3.182.678,10.259,10.259,0,0,1-3.922-1.417,17.773,17.773,0,0,1-4.18-3.34,22.212,22.212,0,0,1-5.074-9.02,18.092,18.092,0,0,1-.722-4.627.926.926,0,0,1,.223-.691.407.407,0,0,1,.533-.036l4.37,2.521a2.3,2.3,0,0,1,.843.8A5.424,5.424,0,0,1,987.876,217.9Z"/><path class="b" d="M1014.639,206.768a16.335,16.335,0,0,1,4.437,3.727,22.023,22.023,0,0,1,3.079,4.9,25.718,25.718,0,0,1,1.824,5.634,36.09,36.09,0,0,1,.7,5.888q.069,2.32.068,4.807t-.068,4.621a23.185,23.185,0,0,1-.7,5.075,7.84,7.84,0,0,1-1.824,3.529,4.439,4.439,0,0,1-3.079,1.346,8.386,8.386,0,0,1-4.437-1.4,16.32,16.32,0,0,1-4.437-3.727,21.868,21.868,0,0,1-3.079-4.9,25.719,25.719,0,0,1-1.823-5.634,35.985,35.985,0,0,1-.706-5.888q-.069-2.213-.068-4.7t.068-4.727a23.178,23.178,0,0,1,.706-5.075,7.824,7.824,0,0,1,1.823-3.529,4.45,4.45,0,0,1,3.079-1.347A8.406,8.406,0,0,1,1014.639,206.768Zm3.681,25.641q.138-4.423,0-8.9a24.9,24.9,0,0,0-.259-2.586,10.767,10.767,0,0,0-.6-2.281,7.556,7.556,0,0,0-1.1-1.933,5.948,5.948,0,0,0-1.72-1.469,2.943,2.943,0,0,0-1.719-.517,1.511,1.511,0,0,0-1.1.662,4.206,4.206,0,0,0-.62,1.575,13.065,13.065,0,0,0-.24,2.3q-.172,4.3,0,8.9a19.854,19.854,0,0,0,.223,2.565,10.317,10.317,0,0,0,.62,2.29,7.845,7.845,0,0,0,1.119,1.945,5.9,5.9,0,0,0,1.719,1.469,2.947,2.947,0,0,0,1.72.516,1.576,1.576,0,0,0,1.118-.652,3.751,3.751,0,0,0,.619-1.576,14.427,14.427,0,0,0,.219-2.31Z"/><path class="b" d="M1046.08,225.448a1.76,1.76,0,0,1,.654.8,2.692,2.692,0,0,1,.275,1.165v5.613a1.562,1.562,0,0,1-.24.921,3.9,3.9,0,0,1-.448.536l-4.161,4.058a21.472,21.472,0,0,1,4.369,6.1,17.316,17.316,0,0,1,1.686,7.621q0,5.984-2.684,7.454t-7.5-1.311a19.454,19.454,0,0,1-4.386-3.433,22.853,22.853,0,0,1-3.217-4.24,21.588,21.588,0,0,1-2.013-4.525,15.435,15.435,0,0,1-.739-4.267.924.924,0,0,1,.224-.692.409.409,0,0,1,.533-.035l4.335,2.5a2.784,2.784,0,0,1,1.1,1.138q.376.725.843,1.573a12.5,12.5,0,0,0,1.2,1.781,7.362,7.362,0,0,0,2.117,1.724,4.082,4.082,0,0,0,2.734.732q1.085-.22,1.084-2.075a5.47,5.47,0,0,0-1.084-3.328,8.846,8.846,0,0,0-2.734-2.425l-2.855-1.649a1.725,1.725,0,0,1-.654-.8,2.676,2.676,0,0,1-.276-1.165v-4.556a1.57,1.57,0,0,1,.24-.92,4.028,4.028,0,0,1,.482-.569l3.646-3.561-8.978-5.184a1.737,1.737,0,0,1-.654-.8,2.692,2.692,0,0,1-.275-1.165v-5.612a1.133,1.133,0,0,1,.275-.848.5.5,0,0,1,.654-.047Z"/><path class="d" d="M1011.628,356.592l10.07,5.813a11.082,11.082,0,0,0,11.111-.586l16.608-12.126c2.964-2.156,2.8-5.393-.375-7.231l-5.049-2.925a13.711,13.711,0,0,0-11.673-.354L1011.814,350.3C1008.538,351.944,1008.455,354.763,1011.628,356.592Z"/><path class="k" d="M1049.693,344.423l-11.492,8.984-8.48,6.634a7.834,7.834,0,0,1-6.728-.2l-9.011-5.2a.013.013,0,0,1-.013-.013h0l-.052-.029a6.368,6.368,0,0,1-2.053-8.77c.073-.119.151-.235.232-.348s.175-.247.267-.369a11.98,11.98,0,0,1,7.246-4.591l4.564-.916c7.392-1.5,13.457-2.23,14.161-1.752l11.293,6.543A.1.1,0,0,1,1049.693,344.423Z"/><path class="b" d="M1043.269,349.448l.645-.505-10.134-5.851,8.868-2.745-.9-.518-8.869,2.745-6.043-3.489c-.376.069-.76.142-1.145.217Z"/><path class="j" d="M1030.717,359.5c.013-.013.04-.027.053-.04a.013.013,0,0,1,.012-.014h0l8.069-5.826,10.9-7.869v-1.235a.137.137,0,0,0-.119-.119c-.81-.279-5.534,1.141-11.241,3.41l-3.782,1.5a11.755,11.755,0,0,0-3.224,1.91,12.022,12.022,0,0,0-4.367,9.276v.2a7.453,7.453,0,0,0,2.707-.651Z"/><path class="b" d="M851.733,204.97l-4.858-11.07,3.908-11.282V175.71l-11.961,6.906v6.906l5.142,10.843a.741.741,0,0,0,.349.31v0Z"/><path class="d" d="M851.733,204.97l-4.858-11.07,3.908-11.282V175.71l-11.961,6.906v6.906l5.142,10.843a.741.741,0,0,0,.349.31v0Z"/><path class="b" d="M882.775,141.216A7.927,7.927,0,0,0,879.188,135l-2.92-1.686a7.929,7.929,0,0,0-7.172,0l-58.421,33.645a7.927,7.927,0,0,0-3.587,6.212v27.386a7.931,7.931,0,0,0,3.587,6.212l2.92,1.686a7.931,7.931,0,0,0,7.173,0l25.565-14.587,5.132,10.826a.766.766,0,0,0,1.387-.132l5.424-17.593,20.913-12.159a7.924,7.924,0,0,0,3.586-6.211Z"/><path class="d" d="M807.088,200.561a7.927,7.927,0,0,0,3.587,6.212l2.92,1.686a8.014,8.014,0,0,0,6.56.288c-1.688.639-2.973-.314-2.973-2.359V179a7.337,7.337,0,0,1,1.049-3.535l-10.092-5.826a7.332,7.332,0,0,0-1.05,3.534Z"/><path class="q" d="M882.657,140.2c-.419-1.522-1.807-2.008-3.463-1.053l-58.43,33.65a7.088,7.088,0,0,0-2.526,2.676l-10.089-5.822a7.252,7.252,0,0,1,2.526-2.677l58.412-33.65a7.973,7.973,0,0,1,7.178,0l2.928,1.69A7.911,7.911,0,0,1,882.657,140.2Z"/><path class="i" d="M844.292,180.42q-.187-.054-.187-.457a9.815,9.815,0,0,1,.236-2.127,16,16,0,0,1,.7-2.266l.359-.862q.457-1.1.663-1.719a3.477,3.477,0,0,0,.2-1.049q0-1.412-1.064-.8a2.191,2.191,0,0,0-.589.5q-.261.316-.515.688a2.146,2.146,0,0,1-.319.411q-.213.122-.45-.13a2.226,2.226,0,0,1-.409-.659,1.816,1.816,0,0,1-.172-.682,2.56,2.56,0,0,1,.434-1.333,6.866,6.866,0,0,1,1.08-1.329,6.6,6.6,0,0,1,1.268-.983q1.5-.87,2.4-.265t.892,2.623a8.488,8.488,0,0,1-.189,1.846,9.336,9.336,0,0,1-.458,1.5q-.269.659-.745,1.639a20,20,0,0,0-.868,1.987,7.651,7.651,0,0,0-.407,1.873,1.514,1.514,0,0,1-.263.681,1.951,1.951,0,0,1-.606.5l-.376.218A.923.923,0,0,1,844.292,180.42Zm-.4,5.234V183.34a1.621,1.621,0,0,1,.982-1.374l.524-.3q.982-.568.983.238v2.316a1.619,1.619,0,0,1-.983,1.373l-.524.3q-.983.571-.983-.235Z"/><path class="i" d="M850.691,176.729c-.126-.035-.188-.187-.188-.456a9.755,9.755,0,0,1,.237-2.127,16,16,0,0,1,.7-2.266l.36-.863c.3-.731.527-1.3.662-1.718a3.475,3.475,0,0,0,.2-1.049q0-1.411-1.063-.8a2.229,2.229,0,0,0-.59.5c-.173.21-.346.44-.515.688a2.183,2.183,0,0,1-.318.411c-.141.081-.293.037-.451-.131a2.253,2.253,0,0,1-.408-.658,1.8,1.8,0,0,1-.172-.682,2.551,2.551,0,0,1,.434-1.333,6.8,6.8,0,0,1,1.079-1.329,6.608,6.608,0,0,1,1.268-.984q1.5-.869,2.4-.264t.891,2.623a8.422,8.422,0,0,1-.189,1.846,9.333,9.333,0,0,1-.457,1.5q-.268.66-.745,1.64a20.217,20.217,0,0,0-.868,1.986,7.664,7.664,0,0,0-.408,1.874,1.541,1.541,0,0,1-.262.681,2,2,0,0,1-.606.5l-.377.217A.916.916,0,0,1,850.691,176.729Zm-.4,5.234v-2.319a1.618,1.618,0,0,1,.982-1.373l.524-.3q.983-.565.982.24v2.318a1.619,1.619,0,0,1-.982,1.373l-.524.3c-.656.381-.983.3-.983-.239Z"/><path class="i" d="M857.089,173.036c-.126-.035-.188-.188-.188-.457a9.811,9.811,0,0,1,.236-2.127,16.308,16.308,0,0,1,.7-2.266l.36-.862q.457-1.1.663-1.719a3.507,3.507,0,0,0,.2-1.049q0-1.411-1.063-.8a2.229,2.229,0,0,0-.59.5c-.174.21-.345.44-.515.689a2.146,2.146,0,0,1-.318.41c-.142.082-.294.038-.45-.13a2.177,2.177,0,0,1-.41-.659,1.786,1.786,0,0,1-.171-.681,2.542,2.542,0,0,1,.434-1.333,6.772,6.772,0,0,1,1.08-1.33,6.609,6.609,0,0,1,1.264-.975q1.506-.868,2.4-.263t.892,2.622a8.5,8.5,0,0,1-.192,1.841,9.689,9.689,0,0,1-.458,1.5q-.272.66-.745,1.639a19.915,19.915,0,0,0-.868,1.987,7.706,7.706,0,0,0-.409,1.873,1.5,1.5,0,0,1-.262.681,1.957,1.957,0,0,1-.6.5l-.377.219A.92.92,0,0,1,857.089,173.036Zm-.4,5.234v-2.323a1.622,1.622,0,0,1,.983-1.373l.522-.3c.656-.378.982-.3.982.239v2.318a1.618,1.618,0,0,1-.982,1.372l-.522.3c-.651.382-.985.3-.985-.233Z"/><path class="k" d="M1086.814,490.806c-9.7-10.015-15.406-50.774-5.94-58.716h48.164c9.464,7.94,3.769,48.685-5.931,58.707-.083.094-.178.184-.266.276-.111.111-.222.223-.334.33-.274.269-.564.532-.877.79-.077.064-.155.122-.232.184-.238.189-.472.378-.733.56a13.555,13.555,0,0,1-1.254.811c-7.984,4.661-20.928,4.661-28.912,0h0a13.751,13.751,0,0,1-1.264-.817c-.241-.169-.458-.345-.682-.521-.1-.076-.191-.147-.286-.228-.3-.249-.581-.5-.846-.761-.13-.123-.257-.253-.386-.381C1086.964,490.961,1086.884,490.884,1086.814,490.806Z"/><path class="i" d="M1124.859,428.89c10.99,6.417,10.99,16.821,0,23.238s-28.81,6.417-39.8,0-10.991-16.821,0-23.237S1113.868,422.471,1124.859,428.89Z"/><path class="j" d="M1119.573,431.977c8.071,4.712,8.071,12.352,0,17.065s-21.158,4.713-29.228,0-8.071-12.352,0-17.065S1111.5,427.265,1119.573,431.977Z"/><path class="r" d="M1090.345,440.075c8.072-4.713,21.158-4.713,29.228,0a13.468,13.468,0,0,1,4.835,4.483,13.476,13.476,0,0,1-4.835,4.483c-8.071,4.713-21.157,4.713-29.228,0a13.476,13.476,0,0,1-4.835-4.483A13.468,13.468,0,0,1,1090.345,440.075Z"/><path class="b" d="M1101.014,419.507a13.316,13.316,0,0,1-1.229-3.514c-.541-2.935.191-6.3,2.566-8.1.944-.719,2.174-1.252,2.576-2.37a3.8,3.8,0,0,0,.025-1.939c-.441-2.5-1.286-5.083-.59-7.53a8.42,8.42,0,0,1,4.671-5.007,25.338,25.338,0,0,1,6.807-1.779,10.878,10.878,0,0,0,3.6-1.032c1.345-.753,1.764-2.083,2.6-3.25a22.592,22.592,0,0,1,3.3-3.528c2.452-2.192,5.525-4,8.921-3.845,7.084.313,6.884,6.409,4.839,11.031s-2.583,6.126,1.842,10.94,4.436,10.749-.844,14.074-8.718,3.761-6.627,10.159c1.866,5.712,3.023,10.589-2.256,16.694-3.411,3.946-8.076,6.762-13.914,6.523a23.405,23.405,0,0,1-6.825-1.592c-1.607-.8-.524-2.048-1.066-3.633q-1.75-5.109-3.5-10.217a76.144,76.144,0,0,0-2.782-8.058C1102.463,422.13,1101.675,420.851,1101.014,419.507Z"/><path class="n" d="M1110.646,445.411a.525.525,0,0,0,.35-.5c-.3-35,18.988-55.888,19.183-56.094a.532.532,0,0,0-.019-.746.517.517,0,0,0-.731.011l-.006.006c-.2.209-19.773,21.391-19.47,56.831a.525.525,0,0,0,.526.524A.561.561,0,0,0,1110.646,445.411Z"/><path class="n" d="M1116.261,412.859a.517.517,0,0,0,.106-.051c6.275-3.949,17.476-6.9,17.587-6.926a.527.527,0,0,0-.262-1.02c-.467.12-11.467,3.017-17.878,7.051a.531.531,0,0,0-.167.727A.521.521,0,0,0,1116.261,412.859Z"/><path class="n" d="M1118.2,408.066l.028-.011a.527.527,0,0,0,.284-.686,40.365,40.365,0,0,0-5.79-9.739.517.517,0,0,0-.727-.067l-.007.006a.528.528,0,0,0-.06.743,40.112,40.112,0,0,1,5.619,9.453A.52.52,0,0,0,1118.2,408.066Z"/><path class="b" d="M1105.728,449.2a29.462,29.462,0,0,1-15.365.568c-8.815-1.909-14.209-10.141-14.209-10.141s9.535-3.82,15.1-4.19a49.118,49.118,0,0,0-16.7.358s-5.1-1.9-4.137-10.518c0,0,4.8-3.54,15.858-2.153,0,0-5.54-3.954-15.251-5.122-.765.007.27-11.218,1.2-16.223s2.764-4.231,6.735-3.8,15.718,3.1,17.209,5.986.042,10.227.042,10.227a16.8,16.8,0,0,0,3.242-9.613,26.034,26.034,0,0,1,6.784,3.7,15.712,15.712,0,0,1,4.229,5.294c-.552,3.939-2.406,9.949-5,13.306a17.966,17.966,0,0,0,7.2-10.746,24.36,24.36,0,0,1,4.637,13.7C1117.231,438.651,1113.315,445.189,1105.728,449.2Z"/><path class="m" d="M1105.728,449.2a29.462,29.462,0,0,1-15.365.568c-8.815-1.909-14.209-10.141-14.209-10.141s9.535-3.82,15.1-4.19a49.118,49.118,0,0,0-16.7.358s-5.1-1.9-4.137-10.518c0,0,4.8-3.54,15.858-2.153,0,0-5.54-3.954-15.251-5.122-.765.007.27-11.218,1.2-16.223s2.764-4.231,6.735-3.8,15.718,3.1,17.209,5.986.042,10.227.042,10.227a16.8,16.8,0,0,0,3.242-9.613,26.034,26.034,0,0,1,6.784,3.7,15.712,15.712,0,0,1,4.229,5.294c-.552,3.939-2.406,9.949-5,13.306a17.966,17.966,0,0,0,7.2-10.746,24.36,24.36,0,0,1,4.637,13.7C1117.231,438.651,1113.315,445.189,1105.728,449.2Z"/><path class="n" d="M1106.894,448.418a.5.5,0,0,1-.318-.432c-1.333-16.7-20.019-42.787-28.277-48.025a.51.51,0,0,1-.158-.7.5.5,0,0,1,.689-.161h0c8.4,5.325,27.39,31.836,28.743,48.8a.5.5,0,0,1-.451.544h-.008A.488.488,0,0,1,1106.894,448.418Z"/></g></g></svg>